<?xml version="1.0" encoding="UTF-8"?>
<svg width="43px" height="30px" viewBox="0 0 43 30" version="1.1" xmlns="http://www.w3.org/2000/svg" xmlns:xlink="http://www.w3.org/1999/xlink">
    <!-- Generator: Sketch 41.2 (35397) - http://www.bohemiancoding.com/sketch -->
    <title>sprite-icon3</title>
    <desc>Created with Sketch.</desc>
    <defs></defs>
    <g id="Symbols" stroke="none" stroke-width="1" fill="none" fill-rule="evenodd">
        <g id="sprite-icon3" fill="#77AE0E">
            <path d="M4.23425076,0.0665617291 C2.66941896,0.307633129 1.13088685,1.52638313 0.420795107,3.07995453 L0.0657492355,3.85674033 L0.0262996942,14.6379903 C-0.0131498471,25.1379903 -1.15284518e-13,25.4326331 0.262996942,26.289776 C0.749541284,27.9103117 1.94617737,29.1290617 3.53730887,29.6379903 C4.35259939,29.9058474 4.72079511,29.9058474 23.4724771,29.9058474 C41.0801223,29.9058474 42.5923547,29.8924546 42.7501529,29.6781689 C42.9079511,29.5040617 42.9342508,27.3879903 42.9342508,17.1826331 C42.9342508,6.97727603 42.9079511,4.86120453 42.7501529,4.68709743 C42.5923547,4.47281173 41.27737,4.45941883 26.3654434,4.45941883 L10.151682,4.45941883 L9.99388379,3.78977603 C9.41529052,1.32549033 6.8116208,-0.362009671 4.23425076,0.0665617291 Z M6.86422018,1.87459743 C7.24556575,2.10227603 7.75840979,2.53084743 7.98195719,2.83888313 C8.81039755,3.93709743 8.81039755,3.92370453 8.81039755,13.0040617 L8.81039755,21.227276 L8.25810398,20.7451331 C7.39021407,19.9817403 6.45657492,19.6737045 5.06269113,19.6737045 C4.05015291,19.6603117 3.76085627,19.7138831 3.12966361,20.0219189 C2.7088685,20.2228117 2.15657492,20.5442403 1.90672783,20.7451331 L1.44648318,21.0933474 L1.44648318,4.25852603 L1.76207951,3.58888313 C2.14342508,2.74513313 3.11651376,1.84781173 3.93180428,1.57995453 C4.85229358,1.27191883 6.02262997,1.39245453 6.86422018,1.87459743 Z M41.5535168,5.79870453 L41.5535168,28.5665617 L22.9201835,28.539776 C4.27370031,28.4995974 4.27370031,28.4995974 3.66880734,28.2183474 C1.8146789,27.3344189 0.999388379,25.3924546 1.67003058,23.3969189 C1.94617737,22.5531689 2.91926606,21.5754903 3.76085627,21.2808474 C4.68134557,20.9594189 5.85168196,20.9995974 6.64067278,21.3879903 C7.83730887,21.9504903 8.81039755,23.4370974 8.81039755,24.6826331 C8.81039755,25.2183474 9.24434251,25.5665617 9.70458716,25.4058474 L10.059633,25.2853117 L10.0859327,15.7094188 C10.1122324,10.446026 10.151682,6.05316883 10.1911315,5.95941883 C10.230581,5.83888313 13.504893,5.79870453 25.9051988,5.79870453 L41.5535168,5.79870453 Z" id="Shape"></path>
            <path d="M24.4587156,8.53314801 C23.3015291,9.19541775 23.0911315,9.49531351 23.4461774,9.95765277 C23.7091743,10.2950354 24.2220183,10.2450528 24.9978593,9.78271358 C25.6027523,9.43283522 25.7342508,9.39534823 25.9577982,9.53280041 C26.7599388,10.0076354 27.3779817,10.2575485 27.6278287,10.1950702 C27.9960245,10.095105 28.206422,9.6327657 28.0223242,9.30787863 C27.8250765,8.95800027 26.0892966,8.03332176 25.6685015,8.04581736 C25.4712538,8.04581736 24.9321101,8.27073924 24.4587156,8.53314801 Z" id="Shape"></path>
            <path d="M19.1724771,11.4696271 C18.6070336,11.7820185 18.0941896,12.1443925 18.0152905,12.2818447 C17.9495413,12.4068013 17.883792,12.9566102 17.883792,13.4939234 C17.883792,14.5935411 18.0941896,15.0308891 18.6070336,15.0308891 C19.1593272,15.0308891 19.3302752,14.7184977 19.3302752,13.7688278 L19.3302752,12.9066276 L20.0535168,12.5192622 C20.7373089,12.1568881 21.0397554,11.8569925 21.0397554,11.544601 C21.0397554,11.3571662 20.553211,10.9073226 20.3559633,10.9073226 C20.2639144,10.9073226 19.7247706,11.1697313 19.1724771,11.4696271 Z" id="Shape"></path>
            <path d="M30.6391437,11.1572357 C30.1657492,11.6070793 30.3629969,11.981949 31.3623853,12.5192622 L32.0856269,12.9066276 L32.0856269,13.7688278 C32.0856269,14.7184977 32.2565749,15.0308891 32.8088685,15.0308891 C33.3348624,15.0308891 33.5321101,14.5935411 33.5321101,13.4314451 C33.5321101,12.2193664 33.453211,12.1069056 32.0593272,11.3696618 C31.046789,10.8323487 30.9941896,10.819853 30.6391437,11.1572357 Z" id="Shape"></path>
            <path d="M21.9076453,13.4814277 C21.7235474,13.6438712 21.6972477,14.1561931 21.6972477,17.1551505 C21.6972477,20.1541079 21.7235474,20.6664298 21.9076453,20.8288734 C22.2100917,21.1287691 29.2058104,21.1287691 29.5082569,20.8288734 C29.6923547,20.6664298 29.7186544,20.1541079 29.7186544,17.1551505 C29.7186544,14.1561931 29.6923547,13.6438712 29.5082569,13.4814277 C29.2058104,13.1815319 22.2100917,13.1815319 21.9076453,13.4814277 Z M24.9847095,15.5931936 L24.9847095,16.5303677 L23.9984709,16.5303677 L23.0122324,16.5303677 L23.0122324,15.5931936 L23.0122324,14.6560194 L23.9984709,14.6560194 L24.9847095,14.6560194 L24.9847095,15.5931936 Z M28.4036697,15.5931936 L28.4036697,16.5303677 L27.4174312,16.5303677 L26.4311927,16.5303677 L26.4311927,15.5931936 L26.4311927,14.6560194 L27.4174312,14.6560194 L28.4036697,14.6560194 L28.4036697,15.5931936 Z M24.9847095,18.7171075 L24.9847095,19.6542817 L23.9984709,19.6542817 L23.0122324,19.6542817 L23.0122324,18.7171075 L23.0122324,17.7799334 L23.9984709,17.7799334 L24.9847095,17.7799334 L24.9847095,18.7171075 Z M28.4036697,18.7171075 L28.4036697,19.6542817 L27.4174312,19.6542817 L26.4311927,19.6542817 L26.4311927,18.7171075 L26.4311927,17.7799334 L27.4174312,17.7799334 L28.4036697,17.7799334 L28.4036697,18.7171075 Z" id="Shape"></path>
            <path d="M18.0941896,15.43075 C17.9232416,15.6556718 17.883792,16.1180111 17.883792,17.9048899 C17.883792,20.2790645 17.975841,20.6539342 18.5938838,20.6539342 C19.264526,20.6539342 19.3302752,20.3915254 19.3302752,17.8798986 C19.3302752,15.8056197 19.3039755,15.5432109 19.093578,15.3682717 C18.751682,15.0808716 18.3308869,15.1058629 18.0941896,15.43075 Z" id="Shape"></path>
            <path d="M32.3749235,16.7302983 C32.0987768,16.9177331 32.0856269,16.9802114 32.0856269,19.279412 C32.0856269,21.8285258 32.1382263,22.0284563 32.8088685,22.0284563 C33.4400612,22.0284563 33.5321101,21.6660823 33.5321101,19.2544207 C33.5321101,17.1926375 33.5058104,17.0052027 33.2691131,16.7802809 C32.9535168,16.4803851 32.769419,16.4678895 32.3749235,16.7302983 Z" id="Shape"></path>
            <path d="M18.0941896,22.4283173 C17.7785933,22.840674 17.804893,24.6525441 18.1204893,25.0149181 C18.3308869,25.2648312 18.4492355,25.2898225 19.7247706,25.2523355 C21.0923547,25.2148486 21.1055046,25.2148486 21.2238532,24.8774659 C21.4342508,24.3151614 21.0529052,24.0277613 20.0929664,24.0277613 L19.3302752,24.0277613 L19.3302752,23.3030132 C19.3302752,22.7532044 19.264526,22.5157869 19.093578,22.365839 C18.751682,22.0784389 18.3308869,22.1034303 18.0941896,22.4283173 Z" id="Shape"></path>
            <path d="M32.3091743,22.3783347 C32.1513761,22.5407782 32.0856269,22.840674 32.0856269,23.3155089 L32.0856269,24.0277613 L31.3229358,24.0277613 C30.3629969,24.0277613 29.9816514,24.3151614 30.1920489,24.8774659 C30.3103976,25.2148486 30.3235474,25.2148486 31.6911315,25.2523355 C32.9666667,25.2898225 33.0850153,25.2648312 33.3085627,25.0149181 C33.6110092,24.6525441 33.6373089,22.840674 33.3217125,22.4283173 C33.0850153,22.0909346 32.5984709,22.0659433 32.3091743,22.3783347 Z" id="Shape"></path>
            <path d="M21.7761468,24.3026657 C21.5131498,24.6525441 21.5131498,24.8399789 21.7761468,25.0773964 C21.9470948,25.2523355 22.4204893,25.2773269 24.9321101,25.2773269 L27.8776758,25.2773269 L28.035474,24.9649355 C28.1538226,24.727518 28.1406728,24.6025614 27.9565749,24.3401527 L27.7461774,24.0277613 L24.853211,24.0277613 C22.0259939,24.0277613 21.9733945,24.0277613 21.7761468,24.3026657 Z" id="Shape"></path>
        </g>
    </g>
</svg>