<?xml version="1.0" encoding="UTF-8"?>
<svg width="39px" height="37px" viewBox="0 0 39 37" version="1.1" xmlns="http://www.w3.org/2000/svg" xmlns:xlink="http://www.w3.org/1999/xlink">
    <!-- Generator: Sketch 41.2 (35397) - http://www.bohemiancoding.com/sketch -->
    <title>sprite-icon5</title>
    <desc>Created with Sketch.</desc>
    <defs></defs>
    <g id="Symbols" stroke="none" stroke-width="1" fill="none" fill-rule="evenodd">
        <g id="sprite-icon5" fill="#77AE0E">
            <path d="M3.83959466,0.1454148 C2.39372219,0.5978166 1.10850222,1.6803493 0.465892239,2.989083 L0.0642609985,3.7969432 L0.0160652496,18.2091703 C-0.0160652496,32.3951965 -0.0160652496,32.6213974 0.305239743,33.4938865 C0.963914978,35.2550218 2.52224419,36.5152838 4.48220465,36.8222707 C5.15694513,36.9353712 11.2296095,37 21.88087,37 L38.2192289,37 L38.2192289,4.6855895 L5.76742462,4.6855895 L5.76742462,0 L5.01235788,0.0161572 C4.57859614,0.0161572 4.06450816,0.080786 3.83959466,0.1454148 Z M4.56253089,13.8951965 L4.56253089,26.4008734 L3.95205141,26.530131 C3.21304993,26.6917031 2.47404844,27.0633188 1.83143846,27.5965066 L1.34948097,28.0004367 L1.30128522,16.141048 L1.26915472,4.2816594 L1.67078596,3.4576419 C1.89569946,2.989083 2.3294612,2.4235808 2.63470094,2.1973799 C3.26124567,1.7126638 4.16089965,1.2764192 4.4018784,1.3572052 C4.51433515,1.3895197 4.56253089,5.7034934 4.56253089,13.8951965 Z M36.9340089,5.9781659 L36.9340089,35.7074236 L20.9008898,35.7074236 C3.14878893,35.7074236 3.87172516,35.7558952 2.60257044,34.6572052 C1.67078596,33.8655022 1.26915472,32.9445415 1.26915472,31.6519651 C1.26915472,30.3432314 1.63865546,29.5030568 2.60257044,28.6628821 C3.38976767,27.9681223 4.22516065,27.628821 5.18907563,27.628821 L5.76742462,27.628821 L5.76742462,5.9781659 L36.9340089,5.9781659 Z" id="Shape"></path>
            <path d="M17.1416214,10.7358079 L17.0934256,12.7716158 L16.5632724,12.949345 C15.7921404,13.2078603 14.9728127,13.9349345 14.5711814,14.7104804 C14.0410282,15.7283843 14.0570934,17.2471616 14.6193772,18.2165939 C14.8603559,18.620524 15.1977261,19.0729258 15.3744439,19.2344978 C15.6796836,19.5091703 15.6796836,19.5253275 15.3423134,21.4965066 L14.9888779,23.4676856 L13.6715274,23.5161572 L12.354177,23.5646289 L12.354177,24.8410481 L14.7639644,24.8410481 L14.6675729,25.2772926 C14.6193772,25.5358079 14.2820069,27.4585153 13.8964409,29.558952 L13.2217004,33.3720524 L13.7679189,33.4851529 C14.0731587,33.5336245 14.3462679,33.5497817 14.3944637,33.5174673 C14.4265942,33.4689956 14.7960949,31.530131 15.2298566,29.1873363 L15.9849234,24.9218341 L17.8484923,24.8733625 L19.695996,24.8248909 L19.95304,26.2305677 C20.0976273,27.0061136 20.4510628,28.9772926 20.7402373,30.6091703 L21.2543253,33.5982533 L21.8005437,33.5013101 C22.1057835,33.4528384 22.3788927,33.3882096 22.4110232,33.3558952 C22.4431537,33.3235808 22.1539792,31.4816594 21.752348,29.2681223 C21.3507168,27.0545852 21.0294118,25.148035 21.0294118,25.0349345 C21.0294118,24.9056769 21.3828473,24.8410481 22.2343055,24.8410481 L23.4391992,24.8410481 L23.4391992,23.5484716 L20.7402373,23.5484716 L20.4831933,22.0458516 C20.3225408,21.2379913 20.1618883,20.3170306 20.1136925,20.0262009 C20.0333663,19.5737992 20.1136925,19.3960699 20.5153238,18.9759826 C22.3788927,17.0371179 21.5434998,13.7733625 18.9730598,12.868559 L18.4589718,12.6908297 L18.4589718,8.68384279 L17.1898171,8.68384279 L17.1416214,10.7358079 Z M19.1497776,14.3227075 C20.4831933,15.2113537 20.659911,17.0048035 19.5192783,18.1358079 C19.2461691,18.4266376 18.9248641,18.6851529 18.8124073,18.7174673 C18.6517548,18.7659389 18.6999506,19.2668123 19.0212556,20.9633188 C19.2461691,22.158952 19.4228868,23.2414847 19.4228868,23.338428 C19.4228868,23.5 18.9891251,23.5484716 17.8163618,23.5484716 C16.2259021,23.5484716 16.2098369,23.5484716 16.2901631,23.1768559 C16.4347504,22.5305677 17.0130994,19.1213974 17.0130994,18.9436682 C17.0130994,18.8467249 16.7881859,18.6366813 16.5311419,18.4912664 C15.9527929,18.1358079 15.4065744,17.1340612 15.4065744,16.4069869 C15.4065744,15.6637555 15.8724666,14.8074236 16.5150766,14.3873363 C17.2058824,13.9187773 18.4911023,13.8864629 19.1497776,14.3227075 Z" id="Shape"></path>
            <path d="M27.4555116,8.95851528 L27.4555116,29.9628821 L28.3551656,31.7724891 L29.2708848,33.5982533 L30.2026693,31.7401747 L31.1344538,29.8820961 L31.1344538,19.4122271 L31.150519,8.95851528 L27.4555116,8.95851528 Z M29.8652991,22.239738 C29.8492338,29.0580786 29.8331686,29.7689957 29.5761246,30.2537118 L29.2869501,30.7868996 L29.0138408,30.2052402 C28.7728621,29.6882096 28.7407316,28.8641922 28.7407316,22.2074236 L28.7407316,14.7751092 L29.8652991,14.7751092 L29.8652991,22.239738 Z" id="Shape"></path>
        </g>
    </g>
</svg>