<?xml version="1.0" encoding="UTF-8"?>
<svg width="47px" height="47px" viewBox="0 0 47 47" version="1.1" xmlns="http://www.w3.org/2000/svg" xmlns:xlink="http://www.w3.org/1999/xlink">
    <!-- Generator: Sketch 41.2 (35397) - http://www.bohemiancoding.com/sketch -->
    <title>sprite-icon1</title>
    <desc>Created with Sketch.</desc>
    <defs></defs>
    <g id="Symbols" stroke="none" stroke-width="1" fill="none" fill-rule="evenodd">
        <g id="sprite-icon1" fill="#77AE0E">
            <path d="M25.1405981,0.0751451563 C26.5793736,0.207370156 28.7015675,0.748290856 30.0564144,1.31325256 C32.3104961,2.27488936 34.0610063,3.48895586 35.8235063,5.34010676 C38.1735062,7.79228066 39.6482511,10.7012321 40.3076899,14.1871656 C40.5834552,15.6416413 40.5834552,18.47847 40.3076899,20.0170889 C39.947996,22.0245058 38.9888124,24.4766797 37.8258022,26.3879329 L37.5620267,26.808649 L42.2260573,33.5401068 C45.1036083,37.699186 46.8900879,40.3797487 46.8900879,40.5600556 C46.8900879,41.1610786 46.7102409,41.1490582 42.6696797,40.3677282 C40.5834552,39.9590326 38.8449348,39.6465006 38.8209552,39.6705415 C38.7849858,39.6945825 38.3173838,41.2933037 37.777843,43.2045569 C37.2263124,45.1278305 36.7467206,46.7505927 36.6987614,46.8227155 C36.6148328,46.966961 36.1592206,46.9789814 35.9673838,46.8467564 C35.9074348,46.7986745 34.0250369,43.9017436 31.782945,40.3917692 C29.552843,36.8817948 27.670445,33.9488025 27.5865165,33.8646592 C27.4666185,33.7324342 27.2508022,33.7444546 26.3755471,33.9127411 C24.9367716,34.1892117 22.1071797,34.2012321 20.5844757,33.9247615 C19.6732512,33.7564751 19.4334552,33.7444546 19.3495267,33.8646592 C19.3015675,33.9488025 17.4071797,36.9178562 15.1530981,40.4518715 C11.6280981,45.9452218 10.9926389,46.8828178 10.7288634,46.9188791 C10.5610063,46.9429201 10.3691695,46.8828178 10.2972308,46.7986745 C10.225292,46.7145313 9.72172057,45.0797487 9.17018987,43.156475 C8.63064907,41.2332014 8.16304707,39.6585211 8.15105727,39.6344802 C8.13906747,39.6104392 6.48447567,39.9229712 4.48217967,40.3196464 C2.49187357,40.728342 0.705393973,41.0528945 0.525547073,41.0528945 C0.309730773,41.0528945 0.153863373,40.9567308 0.0579449729,40.8004648 C-0.0979223271,40.4999533 -0.361697827,40.8966285 5.57325117,32.3380608 L9.39799607,26.808649 L9.09825117,26.3278306 C7.99518987,24.5127411 7.14391437,22.39714 6.71228177,20.3777027 C6.40054707,18.9472679 6.40054707,15.3531503 6.70029197,13.8626132 C7.49161847,9.94394306 9.68575117,6.27770266 12.6951899,3.83754926 C16.1962103,1.01274106 20.680394,-0.345570944 25.1405981,0.0751451563 Z M20.6564144,1.33729346 C14.3497818,2.39509396 9.19416947,7.41964636 7.79136337,13.8866541 C7.47962867,15.3291094 7.47962867,18.8150429 7.79136337,20.2574981 C8.45080217,23.2746337 9.85360827,25.9551963 11.927843,28.1068587 C14.2898328,30.5710531 16.9875369,32.0615902 20.3566695,32.7707973 C21.975292,33.1193907 24.792894,33.1434316 26.3635573,32.8429201 C29.6367716,32.1938152 32.490343,30.6792372 34.780394,28.3713088 C37.1064144,26.05136 38.6530981,23.0823063 39.2405981,19.8488025 C39.5043736,18.4063472 39.5043736,15.737805 39.2405981,14.2953498 C38.2214654,8.63371286 34.2168736,3.90967196 28.845445,2.01043926 C26.1717206,1.07284336 23.5339655,0.856475056 20.6564144,1.33729346 Z M33.6413634,30.7874214 C32.5383022,31.6048127 30.5599859,32.6866541 29.3610063,33.1193907 C28.8814144,33.2876771 28.6416185,33.4439431 28.6895777,33.5280863 C29.1931491,34.3574981 35.8594757,44.7551963 35.9793736,44.8754009 C36.0872818,44.9956055 36.2911083,44.4066029 36.9985062,41.9303881 C37.4780981,40.2234827 37.9696797,38.7329456 38.0775879,38.612741 C38.2814144,38.3963727 38.4013124,38.4083932 41.6745267,39.0695185 C43.532945,39.4421528 45.0796287,39.7306438 45.1036083,39.7066029 C45.1395777,39.6585211 43.5209552,37.2904904 38.4732511,30.0301324 L36.8786083,27.722204 L35.7635573,28.8761682 C35.1640675,29.5012321 34.2048838,30.3667053 33.6413634,30.7874214 Z M5.84901647,33.8045569 C3.60692457,37.0621016 1.79646547,39.7306438 1.84442457,39.7306438 C1.89238377,39.7306438 3.42707767,39.4301323 5.24952667,39.0695185 C7.63549607,38.5887001 8.64263887,38.4324341 8.79850627,38.5165773 C8.95437357,38.6007206 9.24212867,39.4661937 9.88957767,41.7380607 C10.3691695,43.4449661 10.8008022,44.8754009 10.8487614,44.9355032 C10.8967206,44.983585 12.5992716,42.423227 14.6255471,39.2498254 C16.6638124,36.0644035 18.3064144,33.4439431 18.2824348,33.4199022 C18.2584552,33.3958613 17.8148328,33.2155544 17.2992716,33.0112065 C14.9372818,32.0736106 13.1987614,30.907626 11.400292,29.0925365 C10.6689144,28.3472679 10.045445,27.7823063 10.0094757,27.8183677 C9.97350627,27.8544291 8.09110827,30.5590326 5.84901647,33.8045569 Z" id="Shape"></path>
            <path d="M21.9701531,12.5486183 C20.5913266,12.9693344 19.9918368,13.9550122 19.8359694,16.0465723 C19.6561225,18.414603 20.0278061,20.4340403 20.7591837,21.1192065 C21.4426021,21.7683114 21.8142857,21.8764955 23.3010204,21.8764955 C24.4880102,21.8764955 24.7517857,21.8404342 25.1594388,21.6120454 C26.1785714,21.0711247 26.5982143,20.2537334 26.8020408,18.4025825 C26.9579082,16.9961886 26.8260204,15.2412014 26.4663266,14.2194623 C26.2265306,13.4982347 25.4232143,12.7649866 24.679847,12.5726592 C24.092347,12.4284137 22.4497449,12.4163932 21.9701531,12.5486183 Z M24.2602041,14.3036055 C24.6918368,14.6882602 24.7997449,15.2892833 24.7997449,17.188516 C24.7997449,19.2680556 24.679847,19.7849354 24.092347,20.1455492 C23.444898,20.5422244 22.5336735,20.3859585 22.1619898,19.8209968 C21.742347,19.171892 21.6344388,16.1908178 21.9941327,14.9286695 C22.1619898,14.2915851 22.6895408,13.9790531 23.4568878,14.0391554 C23.7686225,14.0631963 24.1283163,14.1834009 24.2602041,14.3036055 Z" id="Shape"></path>
            <path d="M30.3630102,12.5486183 C28.9841837,12.9693344 28.3846939,13.9550122 28.2288266,16.0465723 C28.0489796,18.414603 28.4206633,20.4340403 29.1520408,21.1192065 C29.8354592,21.7683114 30.2071429,21.8764955 31.6938776,21.8764955 C32.8808674,21.8764955 33.1446429,21.8404342 33.5522959,21.6120454 C34.5714286,21.0711247 34.9910714,20.2537334 35.194898,18.4025825 C35.3507653,16.9961886 35.2188776,15.2412014 34.8591837,14.2194623 C34.6193878,13.4982347 33.8160714,12.7649866 33.0727041,12.5726592 C32.4852041,12.4284137 30.8426021,12.4163932 30.3630102,12.5486183 Z M32.6530612,14.3036055 C33.0846939,14.6882602 33.1926021,15.2892833 33.1926021,17.188516 C33.1926021,19.2680556 33.0727041,19.7849354 32.4852041,20.1455492 C31.8377551,20.5422244 30.9265306,20.3859585 30.554847,19.8209968 C30.1352041,19.171892 30.0272959,16.1908178 30.3869898,14.9286695 C30.554847,14.2915851 31.082398,13.9790531 31.8497449,14.0391554 C32.1614796,14.0631963 32.5211735,14.1834009 32.6530612,14.3036055 Z" id="Shape"></path>
            <path d="M12.3903061,12.8652173 C12.3903061,13.117647 12.4262755,13.5023017 12.4622449,13.7066495 L12.5461735,14.0792838 L14.5604592,14.0792838 C15.6755102,14.0792838 16.5867347,14.1033247 16.5867347,14.1273657 C16.5867347,14.163427 16.5267857,14.3317135 16.454847,14.5240408 C16.3829082,14.7043478 15.8193878,16.2910485 15.2079082,18.0460357 C14.5964286,19.8010229 14.0568878,21.3276214 14.0089286,21.4358056 C13.9369898,21.6281329 14.0209184,21.6521738 14.9561225,21.6521738 C15.5196429,21.6521738 15.9872449,21.6281329 15.9872449,21.604092 C15.9872449,21.5800511 16.5987245,19.7529411 17.3540817,17.5531969 C18.1094388,15.3414321 18.7568878,13.4181585 18.804847,13.273913 C18.8528061,13.0695651 18.7928572,12.9253196 18.5770408,12.6969309 L18.2772959,12.3964194 L12.3903061,12.3964194 L12.3903061,12.8652173 Z" id="Shape"></path>
        </g>
    </g>
</svg>