<?xml version="1.0" encoding="UTF-8"?>
<svg width="37px" height="36px" viewBox="0 0 37 36" version="1.1" xmlns="http://www.w3.org/2000/svg" xmlns:xlink="http://www.w3.org/1999/xlink">
    <!-- Generator: Sketch 41.2 (35397) - http://www.bohemiancoding.com/sketch -->
    <title>sprite-icon2</title>
    <desc>Created with Sketch.</desc>
    <defs></defs>
    <g id="Symbols" stroke="none" stroke-width="1" fill="none" fill-rule="evenodd">
        <g id="sprite-icon2" fill="#77AE0E">
            <path d="M0.502005846,36.2510081 C0.352307657,36.1895161 0.16518492,35.9927419 0.102810675,35.8082661 C0.0154867311,35.5991935 -0.0094629671,29.7205645 0.003011882,18.9594758 C0.0404364293,3.29133065 0.0529112784,2.43044355 0.264983713,2.22137097 C0.477056148,2.01229839 1.33782073,2 17.6923479,2 C34.046875,2 34.9076396,2.01229839 35.1197121,2.22137097 C35.3317845,2.43044355 35.3442593,3.26673387 35.3442593,19.15625 C35.3442593,35.0457661 35.3317845,35.8820565 35.1197121,36.091129 C34.9076396,36.3002016 34.0344002,36.3125 17.8420461,36.3370968 C7.74989317,36.3493952 0.676653733,36.3125 0.502005846,36.2510081 Z M34.0344002,19.15625 L34.0344002,3.29133065 L17.6923479,3.29133065 L1.35029558,3.29133065 L1.35029558,19.15625 L1.35029558,35.0211694 L17.6923479,35.0211694 L34.0344002,35.0211694 L34.0344002,19.15625 Z" id="Shape"></path>
            <path d="M9.53078486,8.2887096 L7.98390357,9.7891128 L7.18551323,9.0266128 C6.74889351,8.6084677 6.29979894,8.2641128 6.1875253,8.2641128 C5.92555347,8.2641128 5.48893375,8.7068547 5.48893375,8.9774193 C5.48893375,9.0881047 5.97545287,9.6784273 6.58672047,10.2687499 C7.37263597,11.0435483 7.75935629,11.3387096 7.99637842,11.3387096 C8.23340055,11.3387096 8.74486937,10.908266 10.1420525,9.5185483 C11.1525152,8.5100806 11.9758553,7.5999999 11.9758553,7.4893144 C11.9758553,7.2187499 11.5392356,6.7883064 11.2647889,6.7883064 C11.1525152,6.7883064 10.3665997,7.4647177 9.53078486,8.2887096 Z" id="Shape"></path>
            <path d="M14.9947688,8.9704637 C14.807646,9.1549395 14.807646,9.7206653 14.9947688,9.9051411 C15.2068412,10.1142137 29.3283704,10.1142137 29.5404428,9.9051411 C29.7275655,9.7206653 29.7275655,9.1549395 29.5404428,8.9704637 C29.3283704,8.7613911 15.2068412,8.7613911 14.9947688,8.9704637 Z" id="Shape"></path>
            <path d="M9.45593576,15.422766 L7.99637842,16.8616773 L7.24788747,16.1606693 C6.46197198,15.422766 6.05030196,15.2874838 5.68853134,15.6564354 C5.32676071,16.0007902 5.46398405,16.3205483 6.39959774,17.2675241 C7.41006051,18.312887 7.87162993,18.6080483 8.20845086,18.4235725 C8.59517118,18.2144999 11.9758553,14.7709515 11.9758553,14.5741773 C11.9758553,14.4757902 11.8760565,14.3036128 11.751308,14.1929273 C11.2647889,13.7624838 10.9778674,13.9223628 9.45593576,15.422766 Z" id="Shape"></path>
            <path d="M14.9947688,15.9805443 C14.807646,16.1650201 14.807646,16.7307459 14.9947688,16.9152217 C15.2068412,17.1242943 29.3283704,17.1242943 29.5404428,16.9152217 C29.7275655,16.7307459 29.7275655,16.1650201 29.5404428,15.9805443 C29.3283704,15.7714717 15.2068412,15.7714717 14.9947688,15.9805443 Z" id="Shape"></path>
            <path d="M14.9947688,22.9906248 C14.807646,23.1751007 14.807646,23.7408265 14.9947688,23.9253023 C15.2068412,24.1343748 29.3283704,24.1343748 29.5404428,23.9253023 C29.7275655,23.7408265 29.7275655,23.1751007 29.5404428,22.9906248 C29.3283704,22.7815523 15.2068412,22.7815523 14.9947688,22.9906248 Z" id="Shape"></path>
            <path d="M9.41851122,28.8024193 L7.90905448,30.2782257 L7.17303838,29.5403225 C6.72394381,29.0975806 6.32474864,28.8024193 6.1625756,28.8024193 C5.78833013,28.8024193 5.43903436,29.2205645 5.5263583,29.5649193 C5.62615709,29.9461693 7.6346078,31.8770161 7.93400418,31.8770161 C8.14607661,31.8770161 11.6265595,28.5810483 11.8635816,28.1506048 C12.0507044,27.8185483 11.6889338,27.3266128 11.2647889,27.3266128 C11.0152919,27.3266128 10.591147,27.6709677 9.41851122,28.8024193 Z" id="Shape"></path>
            <path d="M14.9947688,29.2628023 C14.807646,29.4472782 14.807646,30.013004 14.9947688,30.1974798 C15.2068412,30.4065523 29.3283704,30.4065523 29.5404428,30.1974798 C29.7275655,30.013004 29.7275655,29.4472782 29.5404428,29.2628023 C29.3283704,29.0537298 15.2068412,29.0537298 14.9947688,29.2628023 Z" id="Shape"></path>
        </g>
    </g>
</svg>