<?xml version="1.0" encoding="UTF-8"?>
<svg width="83px" height="80px" viewBox="0 0 83 80" version="1.1" xmlns="http://www.w3.org/2000/svg" xmlns:xlink="http://www.w3.org/1999/xlink">
    <!-- Generator: Sketch 41.2 (35397) - http://www.bohemiancoding.com/sketch -->
    <title>5</title>
    <desc>Created with Sketch.</desc>
    <defs></defs>
    <g id="Symbols" stroke="none" stroke-width="1" fill="none" fill-rule="evenodd">
        <g id="5" fill="#77AE0E">
            <path d="M8.35111839,0.3144104 C5.20634576,1.2925764 2.41099233,3.6331877 1.01331562,6.4628822 L0.139767672,8.2096069 L0.0349419179,39.371179 C-0.0349419179,70.0436681 -0.0349419179,70.5327511 0.663896441,72.419214 C2.09651508,76.2270742 5.48588111,78.9519651 9.74879511,79.6157205 C11.2163557,79.860262 24.4244007,80 47.5908922,80 L83.1268229,80 L83.1268229,10.1310043 L12.5441485,10.1310043 L12.5441485,0 L10.9018784,0.0349345 C9.9584466,0.0349345 8.84030525,0.1746724 8.35111839,0.3144104 Z M9.92350469,30.0436681 L9.92350469,57.0829695 L8.59571182,57.3624454 C6.9883836,57.7117905 5.38105536,58.5152838 3.98337865,59.6681223 L2.93512111,60.5414847 L2.83029535,34.8995632 L2.76041152,9.2576419 L3.63395946,7.4759825 C4.12314633,6.4628822 5.06657811,5.2401747 5.73047454,4.7510917 C7.09320933,3.7030569 9.04995674,2.7598253 9.57408552,2.9344977 C9.81867895,3.0043669 9.92350469,12.3318776 9.92350469,30.0436681 Z M80.3314694,12.9257641 L80.3314694,77.2052402 L45.4594353,77.2052402 C6.84861592,77.2052402 8.42100222,77.3100437 5.66059071,74.9344978 C3.63395946,73.2227074 2.76041152,71.231441 2.76041152,68.4366812 C2.76041152,65.6069869 3.56407563,63.790393 5.66059071,61.9737991 C7.37274468,60.4716157 9.18972441,59.7379913 11.2862395,59.7379913 L12.5441485,59.7379913 L12.5441485,12.9257641 L80.3314694,12.9257641 Z" id="Shape"></path>
            <path d="M38.5675668,22.4017468 L38.6723926,26.8034936 L39.8254758,27.187773 C41.5026879,27.746725 43.2847257,29.3187773 44.1582738,30.9956333 C45.311357,33.1965066 45.2764152,36.4803494 44.0534479,38.5764192 C43.5293192,39.4497816 42.795539,40.4279477 42.4111778,40.7772925 C41.7472815,41.371179 41.7472815,41.4061135 42.4810617,45.6681224 L43.2497839,49.930131 L46.1150212,50.0349345 L48.9802583,50.1397382 L48.9802583,52.8995635 L43.7389707,52.8995635 L43.9486222,53.8427948 C44.0534479,54.4017468 44.7872283,58.558952 45.6258343,63.1004368 L47.0933949,71.3449782 L45.9053697,71.5895197 C45.2414731,71.6943232 44.6474606,71.7292577 44.5426348,71.6593887 C44.4727509,71.5545852 43.6690869,67.3624455 42.7256552,62.2969433 L41.0833849,53.0742359 L37.0301225,52.9694324 L33.011802,52.864629 L32.4527313,55.9039302 C32.1382539,57.5807862 31.3695317,61.8427948 30.7405772,65.3711791 L29.6224358,71.8340612 L28.4344108,71.6244542 C27.7705142,71.5196507 27.1765017,71.3799127 27.1066178,71.3100437 C27.036734,71.2401747 27.6656885,67.257642 28.5392364,62.4716158 C29.4127843,57.6855896 30.1116226,53.5633189 30.1116226,53.3187773 C30.1116226,53.0393014 29.3429004,52.8995635 27.4909788,52.8995635 L24.870335,52.8995635 L24.870335,50.1048035 L30.7405772,50.1048035 L31.2996479,46.8558953 C31.6490671,45.1091704 31.9984862,43.117904 32.1033121,42.489083 C32.2780216,41.5109172 32.1033121,41.1266376 31.229764,40.2183408 C27.1765017,36.0262009 28.9934812,28.9694324 34.5841882,27.0131005 L35.7023296,26.628821 L35.7023296,17.9650655 L38.4627411,17.9650655 L38.5675668,22.4017468 Z M34.199827,30.1572054 C31.2996479,32.0786026 30.9152869,35.9563319 33.396163,38.4017468 C33.9901755,39.0305678 34.6890139,39.5895198 34.9336074,39.6593888 C35.2830266,39.7641922 35.1782007,40.8471617 34.4793624,44.5152839 C33.9901755,47.1004368 33.6058145,49.441048 33.6058145,49.6506551 C33.6058145,50 34.5492462,50.1048035 37.1000064,50.1048035 C40.5592562,50.1048035 40.594198,50.1048035 40.4194886,49.3013101 C40.1050112,47.9039302 38.8471021,40.5327511 38.8471021,40.1484718 C38.8471021,39.9388646 39.336289,39.4847163 39.8953597,39.1703057 C41.1532687,38.4017468 42.341294,36.235808 42.341294,34.6637555 C42.341294,33.0567686 41.3279784,31.2052402 39.9303017,30.2969433 C38.4277991,29.2838428 35.6324458,29.2139738 34.199827,30.1572054 Z" id="Shape"></path>
            <path d="M66.7523788,17.558952 L66.7523788,62.9737992 L64.7956313,66.886463 L62.8039421,70.8340612 L60.7773108,66.816594 L58.7506795,62.7991267 L58.7506795,40.1615721 L58.7157377,17.558952 L66.7523788,17.558952 Z M61.511091,46.2751092 C61.546033,61.0174673 61.5809748,62.5545852 62.1400455,63.6026202 L62.769,64.7554586 L63.3630128,63.4978167 C63.8871414,62.3799128 63.9570253,60.5982534 63.9570253,46.2052402 L63.9570253,30.1353713 L61.511091,30.1353713 L61.511091,46.2751092 Z" id="Shape"></path>
        </g>
    </g>
</svg>