<?xml version="1.0" encoding="UTF-8"?>
<svg width="41px" height="32px" viewBox="0 0 41 32" version="1.1" xmlns="http://www.w3.org/2000/svg" xmlns:xlink="http://www.w3.org/1999/xlink">
    <!-- Generator: Sketch 41.2 (35397) - http://www.bohemiancoding.com/sketch -->
    <title>sprite-icon4</title>
    <desc>Created with Sketch.</desc>
    <defs></defs>
    <g id="Symbols" stroke="none" stroke-width="1" fill="none" fill-rule="evenodd">
        <g id="sprite-icon4" fill="#77AE0E">
            <path d="M17.4563319,0.0603414551 C15.7196507,0.317423255 15.3973799,0.647957055 15.3973799,2.13535906 L15.3973799,3.21877536 L14.4663755,3.53094616 C12.9087336,4.04510976 10.4737991,5.45905986 8.95196507,6.68938006 C7.08995633,8.23187106 5.37117904,10.4354296 4.29694323,12.7124401 C2.84672489,15.7423331 2.64978166,16.7155715 2.56026201,21.0308736 L2.47074236,24.7585601 L1.61135371,25.1992718 C0.644541485,25.6950725 0,26.429592 0,27.0172076 C0,28.5780616 3.20480349,29.8267447 9.13100437,30.5979902 C21.5742358,32.2322961 38.2248908,30.8550721 40.5524017,28.0088089 C41.4834061,26.8703037 40.9462882,25.8970653 38.941048,24.9972789 L37.7772926,24.4831153 L37.7772926,21.7103041 C37.7772926,18.4967813 37.5982533,17.1930091 36.8462882,14.8609097 C35.8078603,11.6657498 33.8384279,8.76439766 31.2423581,6.63429106 C29.7384279,5.40397086 27.428821,4.06347276 25.8353712,3.53094616 L24.8864629,3.21877536 L24.8864629,2.24553696 C24.8864629,0.978490855 24.7790393,0.739771955 24.1165939,0.372512255 C23.6868996,0.152156355 22.8991266,0.0787044551 20.768559,0.0236154551 C19.2467249,0.00525245513 17.7606987,0.0236154551 17.4563319,0.0603414551 Z M23.4720524,1.73137336 C23.5973799,1.85991426 22.4694323,14.8058207 22.290393,15.3199844 C22.2366812,15.5036143 21.6279476,15.5587032 20.0524017,15.5587032 C18.8707424,15.5587032 17.9039301,15.5036143 17.9039301,15.4485253 C17.9039301,15.3750733 17.6174672,12.3084544 17.2772926,8.61749376 C16.919214,4.92653326 16.7043668,1.84155126 16.7759825,1.76809936 C16.8475983,1.69464736 17.3310044,1.58446946 17.8144105,1.54774346 C19.1034934,1.41920256 23.310917,1.56610646 23.4720524,1.73137336 Z M15.5764192,4.85308126 C15.5764192,4.94489626 15.8270742,7.55244046 16.1135371,10.6925114 C16.5611354,15.3750733 16.7043668,16.4217637 16.9550218,16.6053935 C17.3847162,16.9359273 22.8991266,16.9359273 23.328821,16.6053935 C23.5973799,16.4217637 23.7406114,15.4301623 24.1882096,10.6006965 C24.4925764,7.42389956 24.7611354,4.77962936 24.7969432,4.74290336 C24.9580786,4.57763646 27.6078603,5.71614166 28.7537118,6.45066126 L29.989083,7.22190666 L29.8995633,8.76439766 C29.8458515,9.62745816 29.8100437,11.2801271 29.8100437,12.4369953 C29.8100437,14.438561 29.8458515,14.6221908 30.3829694,15.7974221 C31.4751092,18.1478845 33.1938865,19.7271015 35.4497817,20.424895 L36.5240175,20.7554288 L36.5240175,24.1525815 L35.4139738,23.9138627 C30.1502183,22.7937204 19.2825328,22.4080976 11.8165939,23.0875282 C9.77554585,23.2711581 5.15633188,24.0056776 4.15371179,24.2994854 C3.7419214,24.4280263 3.7419214,24.4096633 3.79563319,22.6284535 L3.84934498,20.8288807 L5.03100437,20.424895 C7.19737991,19.6903755 8.91615721,18.1111585 9.90087336,15.962689 C10.4558952,14.7874577 10.4737991,14.6405538 10.4737991,12.4369953 C10.4737991,11.1699491 10.4021834,9.51728016 10.3305677,8.74603466 L10.1873362,7.33208466 L11.3689956,6.57920216 C12.4969432,5.84468266 14.8781659,4.74290336 15.3615721,4.72454036 C15.4689956,4.72454036 15.5764192,4.77962936 15.5764192,4.85308126 Z M9.18471616,12.0697355 C9.22052402,14.5120129 8.82663755,15.6321552 7.430131,17.1746462 C6.5349345,18.1846105 4.88777293,19.2313008 4.22532751,19.2313008 C3.83144105,19.2313008 3.86724891,18.5702332 4.29694323,16.6788455 C4.92358079,14.0345752 6.32008734,11.335216 8.05676856,9.42546526 L8.86244541,8.54404186 L9.00567686,9.33365026 C9.07729258,9.77436206 9.16681223,11.0046822 9.18471616,12.0697355 Z M32.7641921,10.1599848 C33.3550218,10.9128673 34.1069869,12.0330096 34.4471616,12.6757141 C35.2349345,14.1263902 36.1122271,16.7890234 36.2733624,18.2580624 L36.39869,19.4149307 L35.5572052,19.1211229 C33.5161572,18.4049663 31.9406114,16.7339344 31.2960699,14.5671019 C30.9737991,13.4836856 30.9379913,13.0429739 31.0454148,11.5188459 C31.1707424,9.35201326 31.3139738,8.54404186 31.5467249,8.69094576 C31.6362445,8.74603466 32.1912664,9.40710226 32.7641921,10.1599848 Z M27.3930131,24.3729373 C33.1938865,24.7952861 37.6519651,25.6399835 39.1917031,26.5948589 C39.7467249,26.9437556 39.7646288,26.9804816 39.4960699,27.2926524 C38.8694323,28.0088089 35.2170306,28.9085953 30.8842795,29.422759 C27.4825328,29.8267447 17.8502183,29.9920116 13.8755459,29.7165668 C10.3305677,29.459485 6.40960699,28.9085953 4.40436681,28.3944317 C2.73930131,27.95372 1.39650655,27.3477414 1.4860262,27.0539336 C1.79039301,26.0990582 7.55545852,24.8136491 13.3384279,24.3913003 C16.4716157,24.1709445 24.3851528,24.1709445 27.3930131,24.3729373 Z" id="Shape"></path>
        </g>
    </g>
</svg>