<?xml version="1.0" encoding="UTF-8"?>
<svg width="97px" height="68px" viewBox="0 0 97 68" version="1.1" xmlns="http://www.w3.org/2000/svg" xmlns:xlink="http://www.w3.org/1999/xlink">
    <!-- Generator: Sketch 41.2 (35397) - http://www.bohemiancoding.com/sketch -->
    <title>3</title>
    <desc>Created with Sketch.</desc>
    <defs></defs>
    <g id="Symbols" stroke="none" stroke-width="1" fill="none" fill-rule="evenodd">
        <g id="3" fill="#77AE0E">
            <path d="M9.55168195,0.150873251 C6.02171254,0.697301851 2.55107034,3.45980185 0.949235474,6.98123035 L0.148318043,8.74194475 L0.0593272171,33.1794448 C-0.0296636086,56.9794447 -3.16666832e-13,57.6473019 0.593272171,59.590159 C1.69082569,63.2633733 4.39021407,66.0258733 7.97951071,67.1794447 C9.81865444,67.7865876 10.6492355,67.7865876 52.9495414,67.7865876 C92.6691131,67.7865876 96.080428,67.7562304 96.4363914,67.2705161 C96.7923548,66.8758733 96.851682,62.0794447 96.851682,38.9473019 C96.851682,15.8151591 96.7923548,11.0187304 96.4363914,10.6240876 C96.080428,10.1383733 93.1140672,10.1080161 59.4755351,10.1080161 L22.9003059,10.1080161 L22.5443425,8.59015905 C21.2391437,3.00444475 15.3657492,-0.820555249 9.55168195,0.150873251 Z M15.4844037,4.24908755 C16.3446483,4.76515905 17.5015291,5.73658755 18.0058104,6.43480185 C19.8746177,8.92408755 19.8746177,8.89373035 19.8746177,29.4758733 L19.8746177,48.115159 L18.6287462,47.0223019 C16.670948,45.2919447 14.5648318,44.5937304 11.4204893,44.5937304 C9.13639145,44.5633733 8.48379205,44.6848019 7.05993884,45.3830162 C6.11070336,45.8383733 4.8648318,46.5669447 4.30122324,47.0223019 L3.26299694,47.8115876 L3.26299694,9.65265905 L3.97492355,8.13480185 C4.8351682,6.22230185 7.03027523,4.18837325 8.86941896,3.58123035 C10.9458716,2.88301605 13.5859327,3.15623035 15.4844037,4.24908755 Z M93.737003,13.1437304 L93.737003,64.7508733 L51.7036698,64.690159 C9.64067279,64.5990876 9.64067279,64.5990876 8.27614679,63.9615876 C4.09357798,61.9580161 2.25443425,57.5562305 3.76727829,53.0330162 C4.39021407,51.1205162 6.58532111,48.9044447 8.48379205,48.2365876 C10.5602447,47.5080162 13.2003058,47.5990876 14.9801223,48.4794447 C17.6795107,49.7544447 19.8746177,53.1240876 19.8746177,55.9473019 C19.8746177,57.1615876 20.8535168,57.9508733 21.8917431,57.5865876 L22.6926605,57.3133733 L22.7519877,35.6080161 C22.8113149,23.6776591 22.9003059,13.7205161 22.9892966,13.5080161 C23.0782874,13.2348019 30.4645261,13.1437304 58.4373089,13.1437304 L93.737003,13.1437304 Z" id="Shape"></path>
            <path d="M62.1743119,18.450031 C59.5639145,20.0831283 59.0892966,20.8226442 59.8902141,21.9627309 C60.4834862,22.7946861 61.6403669,22.6714336 63.3905198,21.5313467 C64.7550459,20.6685783 65.051682,20.5761389 65.5559634,20.9150835 C67.3654433,22.0859836 68.7596331,22.7022468 69.3232415,22.548181 C70.1538227,22.3016757 70.6284403,21.1615888 70.2131499,20.3604468 C69.7681958,19.4976783 65.8525993,17.2175046 64.9033638,17.2483177 C64.4584097,17.2483177 63.2422019,17.8029547 62.1743119,18.450031 Z" id="Shape"></path>
            <path d="M50.2495414,25.691123 C48.974006,26.4614519 47.8171254,27.3550335 47.6391437,27.6939783 C47.4908257,28.0021099 47.3425075,29.3578888 47.3425075,30.6828546 C47.3425075,33.3944125 47.8171254,34.472873 48.974006,34.472873 C50.2198776,34.472873 50.6055045,33.7025441 50.6055045,31.3607441 L50.6055045,29.2346362 L52.237003,28.2794283 C53.7795108,27.3858467 54.4617738,26.646331 54.4617738,25.8760019 C54.4617738,25.4138046 53.3642202,24.3045309 52.919266,24.3045309 C52.7116209,24.3045309 51.4954127,24.9516072 50.2495414,25.691123 Z" id="Shape"></path>
            <path d="M76.1162079,24.9207942 C75.048318,26.0300677 75.4932721,26.9544624 77.7477064,28.2794283 L79.3792049,29.2346362 L79.3792049,31.3607441 C79.3792049,33.7025441 79.7648318,34.472873 81.0107034,34.472873 C82.1972477,34.472873 82.6422019,33.3944125 82.6422019,30.5287889 C82.6422019,27.5399124 82.4642202,27.2625941 79.3198776,25.4446177 C77.0357798,24.119652 76.9171254,24.0888388 76.1162079,24.9207942 Z" id="Shape"></path>
            <path d="M56.419572,30.6520414 C56.0042813,31.0526124 55.9449541,32.3159519 55.9449541,39.7111098 C55.9449541,47.1062677 56.0042813,48.3696071 56.419572,48.7701782 C57.1018348,49.509694 72.8828746,49.509694 73.5651377,48.7701782 C73.980428,48.3696071 74.0397553,47.1062677 74.0397553,39.7111098 C74.0397553,32.3159519 73.980428,31.0526124 73.5651377,30.6520414 C72.8828746,29.9125256 57.1018348,29.9125256 56.419572,30.6520414 Z M63.3608563,35.8594652 L63.3608563,38.1704519 L61.1360855,38.1704519 L58.9113149,38.1704519 L58.9113149,35.8594652 L58.9113149,33.5484783 L61.1360855,33.5484783 L63.3608563,33.5484783 L63.3608563,35.8594652 Z M71.0733944,35.8594652 L71.0733944,38.1704519 L68.8486239,38.1704519 L66.6238533,38.1704519 L66.6238533,35.8594652 L66.6238533,33.5484783 L68.8486239,33.5484783 L71.0733944,33.5484783 L71.0733944,35.8594652 Z M63.3608563,43.5627545 L63.3608563,45.8737414 L61.1360855,45.8737414 L58.9113149,45.8737414 L58.9113149,43.5627545 L58.9113149,41.2517678 L61.1360855,41.2517678 L63.3608563,41.2517678 L63.3608563,43.5627545 Z M71.0733944,43.5627545 L71.0733944,45.8737414 L68.8486239,45.8737414 L66.6238533,45.8737414 L66.6238533,43.5627545 L66.6238533,41.2517678 L68.8486239,41.2517678 L71.0733944,41.2517678 L71.0733944,43.5627545 Z" id="Shape"></path>
            <path d="M47.8171254,35.4588941 C47.4314985,36.0135308 47.3425075,37.1536178 47.3425075,41.5598992 C47.3425075,47.4143992 47.550153,48.338794 48.9443425,48.338794 C50.4571866,48.338794 50.6055045,47.6917177 50.6055045,41.498273 C50.6055045,36.3832887 50.5461773,35.7362124 50.0715597,35.3048282 C49.3003059,34.5961256 48.3510704,34.6577519 47.8171254,35.4588941 Z" id="Shape"></path>
            <path d="M80.0318042,38.6634625 C79.4088686,39.1256598 79.3792049,39.2797256 79.3792049,44.9493467 C79.3792049,51.2352308 79.4978593,51.7282413 81.0107034,51.7282413 C82.4345567,51.7282413 82.6422019,50.8346598 82.6422019,44.8877203 C82.6422019,39.8035494 82.5828746,39.3413519 82.0489296,38.7867151 C81.337003,38.0471993 80.9217126,38.0163862 80.0318042,38.6634625 Z" id="Shape"></path>
            <path d="M47.8171254,52.7142624 C47.1051988,53.7310966 47.1645261,58.1990045 47.8764526,59.0925861 C48.3510704,59.7088492 48.6180429,59.7704755 51.4954127,59.6780361 C54.580428,59.5855966 54.6100918,59.5855966 54.8770642,58.7536413 C55.351682,57.3670493 54.4914373,56.6583466 52.325994,56.6583466 L50.6055045,56.6583466 L50.6055045,54.8711835 C50.6055045,53.5154045 50.4571866,52.9299545 50.0715597,52.5601966 C49.3003059,51.851494 48.3510704,51.9131203 47.8171254,52.7142624 Z" id="Shape"></path>
            <path d="M79.8834862,52.5910098 C79.5275228,52.9915809 79.3792049,53.7310966 79.3792049,54.9019966 L79.3792049,56.6583466 L77.6587156,56.6583466 C75.4932721,56.6583466 74.6330276,57.3670493 75.1076452,58.7536413 C75.3746178,59.5855966 75.4042813,59.5855966 78.4892966,59.6780361 C81.3666667,59.7704755 81.6336392,59.7088492 82.1379205,59.0925861 C82.8201835,58.1990045 82.8795108,53.7310966 82.167584,52.7142624 C81.6336392,51.8823071 80.5360855,51.8206808 79.8834862,52.5910098 Z" id="Shape"></path>
            <path d="M56.1229358,57.3362361 C55.5296635,58.1990045 55.5296635,58.6612018 56.1229358,59.2466518 C56.5085627,59.6780361 57.5764526,59.7396624 63.2422019,59.7396624 L69.8868501,59.7396624 L70.2428134,58.9693334 C70.5097859,58.3838834 70.4801224,58.0757519 70.0648318,57.4286755 L69.5902141,56.6583466 L63.0642202,56.6583466 C56.6865444,56.6583466 56.5678899,56.6583466 56.1229358,57.3362361 Z" id="Shape"></path>
        </g>
    </g>
</svg>