<?xml version="1.0" encoding="UTF-8"?>
<svg width="79px" height="77px" viewBox="0 0 79 77" version="1.1" xmlns="http://www.w3.org/2000/svg" xmlns:xlink="http://www.w3.org/1999/xlink">
    <!-- Generator: Sketch 41.2 (35397) - http://www.bohemiancoding.com/sketch -->
    <title>2</title>
    <desc>Created with Sketch.</desc>
    <defs></defs>
    <g id="Symbols" stroke="none" stroke-width="1" fill="none" fill-rule="evenodd">
        <g id="2" fill="#77AE0E">
            <path d="M1.13220896,76.0205302 C0.800830725,75.8840479 0.386607935,75.4473052 0.248533673,75.0378589 C0.0552297052,74.5738197 1.7094659e-13,61.526131 0.0276148526,37.6417634 C0.11045941,2.86612413 0.138074263,0.955374704 0.607526756,0.491335563 C1.07697925,0.0272964201 2.98240407,5.68408535e-14 39.1854759,5.68408535e-14 C75.3885474,5.68408535e-14 77.2939723,0.0272964201 77.7634249,0.491335563 C78.2328773,0.955374704 78.2604921,2.81153127 78.2604921,38.0785061 C78.2604921,73.3454809 78.2328773,75.2016376 77.7634249,75.6656766 C77.2939723,76.1297157 75.3609327,76.1570122 39.5168541,76.2116051 C17.1764383,76.2389015 1.51881689,76.1570122 1.13220896,76.0205302 Z M75.3609327,38.0785061 L75.3609327,2.86612413 L39.1854759,2.86612413 L3.01001893,2.86612413 L3.01001893,38.0785061 L3.01001893,73.2908882 L39.1854759,73.2908882 L75.3609327,73.2908882 L75.3609327,38.0785061 Z" id="Shape"></path>
            <path d="M21.0701325,59.1513424 L17.6458908,62.4815056 L15.8785402,60.7891276 C14.9120204,59.8610494 13.9178857,59.0967495 13.669352,59.0967495 C13.0894401,59.0967495 12.1229203,60.0794206 12.1229203,60.679942 C12.1229203,60.9256096 13.1998995,62.2358378 14.5530273,63.546066 C16.292763,65.2657405 17.1488234,65.9208546 17.6735056,65.9208546 C18.1981878,65.9208546 19.3303968,64.9654798 22.4232604,61.8809844 C24.6600632,59.6426781 26.4826436,57.6227429 26.4826436,57.377075 C26.4826436,56.7765538 25.5161239,55.8211792 24.9085971,55.8211792 C24.6600632,55.8211792 22.9203275,57.3224824 21.0701325,59.1513424 Z" id="Shape"></path>
            <path d="M33.165438,60.4069777 C32.7512151,59.9975314 32.7512151,58.7418961 33.165438,58.3324498 C33.6348904,57.8684106 64.8949036,57.8684106 65.364356,58.3324498 C65.7785787,58.7418961 65.7785787,59.9975314 65.364356,60.4069777 C64.8949036,60.8710169 33.6348904,60.8710169 33.165438,60.4069777 Z" id="Shape"></path>
            <path d="M20.9044434,27.0387223 L17.6735056,30.2324035 L16.0166145,28.6765077 C14.2768788,27.0387223 13.3655886,26.7384618 12.5647579,27.5573544 C11.7639272,28.3216541 12.0676906,29.0313611 14.1388045,31.1331854 C16.3756076,33.4533811 17.3973571,34.1084952 18.1429581,33.6990489 C18.9990186,33.2350097 26.4826436,25.5920121 26.4826436,25.1552693 C26.4826436,24.936898 26.2617248,24.5547481 25.9855763,24.3090803 C24.9085971,23.3537057 24.2734555,23.7085591 20.9044434,27.0387223 Z" id="Shape"></path>
            <path d="M33.165438,44.8480183 C32.7512151,44.438572 32.7512151,43.1829367 33.165438,42.7734904 C33.6348904,42.3094512 64.8949036,42.3094512 65.364356,42.7734904 C65.7785787,43.1829367 65.7785787,44.438572 65.364356,44.8480183 C64.8949036,45.3120575 33.6348904,45.3120575 33.165438,44.8480183 Z" id="Shape"></path>
            <path d="M33.165438,29.2890589 C32.7512151,28.8796124 32.7512151,27.6239771 33.165438,27.2145308 C33.6348904,26.7504918 64.8949036,26.7504918 65.364356,27.2145308 C65.7785787,27.6239771 65.7785787,28.8796124 65.364356,29.2890589 C64.8949036,29.7530979 33.6348904,29.7530979 33.165438,29.2890589 Z" id="Shape"></path>
            <path d="M20.8215988,13.511728 L17.4802017,16.7872984 L15.8509254,15.1495132 C14.8567907,14.1668421 13.9731154,13.511728 13.6141223,13.511728 C12.7856767,13.511728 12.0124609,14.4398063 12.2057648,15.2041061 C12.4266836,16.0502951 16.8726749,20.335833 17.5354314,20.335833 C18.0048839,20.335833 25.7094277,13.0203925 26.2341098,12.0650177 C26.6483328,11.3280144 25.8475021,10.2361576 24.9085971,10.2361576 C24.3563,10.2361576 23.4173949,11.0004574 20.8215988,13.511728 Z" id="Shape"></path>
            <path d="M33.165438,15.3678845 C32.7512151,14.9584382 32.7512151,13.7028029 33.165438,13.2933566 C33.6348904,12.8293175 64.8949036,12.8293175 65.364356,13.2933566 C65.7785787,13.7028029 65.7785787,14.9584382 65.364356,15.3678845 C64.8949036,15.8319237 33.6348904,15.8319237 33.165438,15.3678845 Z" id="Shape"></path>
        </g>
    </g>
</svg>