<?xml version="1.0" encoding="UTF-8"?>
<svg width="85px" height="65px" viewBox="0 0 85 65" version="1.1" xmlns="http://www.w3.org/2000/svg" xmlns:xlink="http://www.w3.org/1999/xlink">
    <!-- Generator: Sketch 41.2 (35397) - http://www.bohemiancoding.com/sketch -->
    <title>Shape</title>
    <desc>Created with Sketch.</desc>
    <defs></defs>
    <g id="Symbols" stroke="none" stroke-width="1" fill="none" fill-rule="evenodd">
        <g id="4" fill="#77AE0E">
            <path d="M48.8000851,0.123901121 C52.4005218,0.651775721 53.0686441,1.33047182 53.0686441,4.38460392 L53.0686441,6.60921872 L54.9987752,7.25020942 C58.2280328,8.30595872 63.2760678,11.2092695 66.4310895,13.735527 C70.2913515,16.9027752 73.8546703,21.4274153 76.0817446,26.1028769 C79.0882948,32.3242572 79.4965917,34.32264 79.6821812,43.1833937 L79.8677708,50.8375767 L81.6494302,51.7425047 C83.653797,52.7605488 84.9900415,54.2687622 84.9900415,55.4753329 C84.9900415,58.6802864 78.3459367,61.2442492 66.0599105,62.8278733 C40.2629673,66.1836481 5.7433167,63.3557479 0.917989204,57.511421 C-1.0121419,55.1736902 0.101395204,53.1753075 4.2586005,51.327746 L6.6712642,50.2719967 L6.6712642,44.5784911 C6.6712642,37.9800575 7.0424432,35.3029786 8.6013952,30.5144011 C10.7542336,23.9536728 14.8372032,17.9962298 20.2192991,13.6224109 C23.3372032,11.0961535 28.1254126,8.34366402 31.4289061,7.25020942 L33.396155,6.60921872 L33.396155,4.61083582 C33.396155,2.00916792 33.6188625,1.51899842 34.9922249,0.764891821 C35.8830545,0.312427721 37.5162425,0.161606421 41.9332728,0.0484904206 C45.0882948,0.0107850206 48.1690808,0.0484904206 48.8000851,0.123901121 Z M36.3284695,3.55508662 C36.0686441,3.81902392 38.4070721,30.401285 38.7782511,31.4570345 C38.8896049,31.8340879 40.1516135,31.9472038 43.4179892,31.9472038 C45.8677707,31.9472038 47.8721376,31.8340879 47.8721376,31.7209718 C47.8721376,31.5701504 48.4660241,25.2733596 49.1712642,17.6945871 C49.9136222,10.1158149 50.3590372,3.78131852 50.2105656,3.63049732 C50.0620938,3.47967592 49.0599104,3.25344392 48.057727,3.17803322 C45.3852381,2.91409592 36.6625306,3.21573862 36.3284695,3.55508662 Z M52.6974651,9.96499352 C52.6974651,10.1535203 52.1778145,15.5076777 51.583928,21.9552899 C50.6559803,31.5701504 50.3590372,33.7193547 49.8393865,34.0964079 C48.9485567,34.7751039 37.5162425,34.7751039 36.6254126,34.0964079 C36.0686441,33.7193547 35.7717008,31.6832665 34.8437533,21.7667634 C34.212749,15.2437404 33.6559803,9.81417222 33.5817446,9.73876152 C33.2476834,9.39941352 27.7542336,11.7371442 25.3786878,13.2453577 L22.8175524,14.8289816 L23.003142,17.9962298 C23.1144957,19.7683807 23.1887314,23.1618608 23.1887314,25.5372969 C23.1887314,29.6471785 23.1144957,30.0242316 22.0009586,32.4373732 C19.7367663,37.263656 16.1734475,40.506315 11.4965916,41.9391176 L9.2695174,42.6178137 L9.2695174,49.5933006 L11.5708275,49.1031313 C22.4834914,46.8031058 45.0140589,46.0112938 60.4922249,47.4063912 C64.723666,47.7834445 74.3000852,49.291658 76.3786878,49.8949433 C77.2323996,50.1588807 77.2323996,50.1211753 77.1210459,46.4637578 L77.0096922,42.7686349 L74.5599105,41.9391176 C70.0686441,40.4309042 66.5053253,37.1882453 64.4638406,32.7767213 C63.3131856,30.3635797 63.2760678,30.061937 63.2760678,25.5372969 C63.2760678,22.9356287 63.4245393,19.5421485 63.5730109,17.9585245 L63.8699543,15.0552138 L61.4201726,13.5092951 C59.0817446,12.0010817 54.1450634,9.73876152 53.1428798,9.70105622 C52.9201726,9.70105622 52.6974651,9.81417222 52.6974651,9.96499352 Z M65.9485568,24.7831901 C65.874321,29.7979997 66.6909149,32.0980252 69.5861114,35.2652734 C71.4420066,37.3390668 74.8568537,39.4882708 76.2302162,39.4882708 C77.0468101,39.4882708 76.9725743,38.1308787 76.0817446,34.2472293 C74.7826179,28.8176609 71.8874214,23.2749767 68.2869847,19.353622 L66.6166791,17.5437659 L66.3197358,19.1650952 C66.1712642,20.0700234 65.9856747,22.5962807 65.9485568,24.7831901 Z M17.0642774,20.8618353 C15.8393865,22.4077541 14.2804345,24.7077796 13.5751943,26.0274662 C11.9420066,29.0061877 10.1232292,34.4734613 9.7891682,37.489888 L9.5293427,39.8653242 L11.2738844,39.2620389 C15.5053254,37.7915307 18.7717008,34.3603452 20.1079454,29.9111158 C20.7760678,27.686501 20.8503034,26.7815729 20.6275962,23.6520301 C20.3677707,19.2028005 20.0708275,17.5437659 19.5882948,17.8454086 C19.4027053,17.9585245 18.2520502,19.3159166 17.0642774,20.8618353 Z M28.1996485,50.0457646 C16.1734475,50.9129873 6.9310895,52.6474328 3.7389497,54.6081102 C2.5882948,55.3245116 2.5511769,55.3999223 3.1079454,56.0409129 C4.4070721,57.511421 11.9791244,59.3589824 20.9616572,60.4147318 C28.0140589,61.2442492 47.9834914,61.5835972 56.2236659,61.0180172 C63.5730109,60.4901425 71.7018319,59.3589824 75.8590371,58.303233 C79.3110022,57.398305 82.094845,56.1540289 81.9092555,55.5507436 C81.2782511,53.5900661 69.326286,50.9506927 57.3372032,50.08347 C50.8415699,49.631006 34.4354564,49.631006 28.1996485,50.0457646 Z" id="Shape"></path>
        </g>
    </g>
</svg>