<?xml version="1.0" encoding="UTF-8"?>
<svg width="87px" height="88px" viewBox="0 0 87 88" version="1.1" xmlns="http://www.w3.org/2000/svg" xmlns:xlink="http://www.w3.org/1999/xlink">
    <!-- Generator: Sketch 43.2 (39069) - http://www.bohemiancoding.com/sketch -->
    <title>noun_843849_cc (1)</title>
    <desc>Created with Sketch.</desc>
    <defs></defs>
    <g id="Page-1" stroke="none" stroke-width="1" fill="none" fill-rule="evenodd">
        <g id="noun_843849_cc-(1)" fill-rule="nonzero" fill="#77AE0E">
            <path d="M42.0967742,0 L42.0967742,1.19625004 L36.8346774,1.19625004 C35.1508065,1.19625004 33.8174676,2.3232 33.3964999,3.872 C26.3133829,7.3621511 21.5812011,14.230323 20.714025,21.9436251 C14.8319305,22.3358214 10.0968959,25.236471 7.29704852,30.2018753 L7.08601599,30.624 C5.12150014,32.2432 3.85887097,34.7069247 3.85887097,37.3821247 L3.85887097,38.2277498 C2.24516129,38.3685498 0.912644874,39.7762753 0.912644874,41.4658753 L0.912644874,45.5482502 C0.912644874,47.2378502 2.175,48.6469498 3.85887097,48.7877498 L3.85887097,59.5581247 C3.85887097,63.4301247 5.19138738,67.0202502 7.5067101,69.8362509 L3.92875821,71.5962509 C1.54327434,72.7226509 0,75.1869254 0,77.8621254 L0,88 L16.9784843,88 L16.9784843,87.8597491 L70.8629032,87.8597491 L84.4045795,87.8597491 L84.4045795,77.792 C84.4045795,75.1168 82.8599366,72.7229254 80.4744527,71.5261254 L69.5295651,66.176 L69.5295651,65.8941247 C73.1779522,63.2893247 75.7739199,59.0656 77.247307,55.968 L79.9139833,56.4602502 C80.1946285,56.5306502 80.475,56.5317498 80.6854839,56.5317498 C82.9306452,56.5317498 84.825,54.9122753 85.2459677,52.7298753 L86.9301123,43.2258753 C87.3510801,40.6914753 85.8078053,38.3674502 83.3521602,37.8042502 C82.7979,28.0022125 75.3997006,19.8530429 65.6213616,18.4978753 C63.9092739,12.2294051 59.5980183,6.89587712 53.6035001,3.94212502 C53.1825324,2.39332502 51.8491935,1.26774996 50.1653226,1.26774996 L44.9032258,1.26774996 L44.9032258,0 L42.0967742,0 Z M36.8346774,4.01225004 L42.0967742,4.01225004 L42.0967742,20.2042502 L44.9032258,20.2042502 L44.9032258,4.01225004 L50.1653226,4.01225004 C50.5862903,4.01225004 50.9368224,4.36534996 50.9368224,4.78774996 L50.9368224,15.5581247 L53.7432741,15.5581247 L53.7432741,7.11012474 C59.8473063,10.7005247 63.6357424,17.3189498 63.6357424,24.4997498 L63.6357424,27.0338753 L66.6532258,27.8781247 L66.6532258,29.7082502 L20.3467742,29.7082502 L20.3467742,27.9482502 L23.3642576,27.104 L23.3642576,24.5698753 C23.3642576,17.3890753 27.222855,10.7706502 33.2567259,7.18025018 L33.2567259,15.6282502 L36.0631776,15.6282502 L36.0631776,4.78774996 C36.0631776,4.36535004 36.4137097,4.01225004 36.8346774,4.01225004 Z M66.2311621,21.4774996 C73.9262785,22.9875965 79.7491955,29.4529924 80.5457085,37.312 L79.9139833,37.1717498 C78.3532524,29.0011124 73.4381383,23.6738832 66.325715,22.3767498 C66.2971425,22.0763777 66.2712727,21.775034 66.2311621,21.4774996 Z M28.4153226,24.64 L28.4153226,27.456 L58.5846774,27.456 L58.5846774,24.64 L28.4153226,24.64 Z M20.557806,24.7733749 L20.557806,24.9218753 L17.5403226,25.8362502 L17.5403226,28.5821247 L12.6290323,28.5821247 C12.4185484,28.5821247 12.1379032,28.5818502 11.9274194,28.6522502 C14.1372102,26.3733487 17.0457016,25.0652413 20.557806,24.7733749 Z M69.4596774,26.3986251 C73.698156,28.531115 76.4571646,32.8533167 77.3171947,39.0018753 L76.6155818,42.8738753 L76.4758065,42.8738753 C72.884678,43.4483217 69.642195,42.6643142 66.6600778,41.4466251 C67.3235552,41.0606909 67.8965456,40.548143 68.3373711,39.9162502 C69.5301123,38.2266502 69.7397753,35.9744 68.8978398,34.144 C68.617194,33.5104 68.1964999,33.0181498 67.7755321,32.5957498 L69.4596774,32.5957498 L69.4596774,26.3986251 Z M12.6290323,31.3981247 L17.5403226,31.3981247 L17.5403226,32.5957498 L19.2244679,32.5957498 C18.7333388,33.0181498 18.382806,33.5808 18.1021609,34.144 C17.2602254,35.9744 17.469887,38.2266502 18.6626289,39.9162502 C19.4330749,40.9985439 20.5059744,41.7005424 21.7404075,42.0282502 L10.4543066,42.0282502 L10.4543066,52.0258753 L27.9055573,52.0258753 C30.3095687,55.8041433 32.7934278,58.2827619 35.0806452,59.9101247 L35.0806452,61.0362502 L32.4852254,62.304 L20.9086125,67.936 C18.966414,68.8866372 17.4744734,70.5448269 16.7085275,72.5174982 C10.8318613,70.952105 6.66532258,65.6749991 6.66532258,59.488 L6.66532258,37.3821247 C6.66532258,34.0733247 9.33145161,31.3981247 12.6290323,31.3981247 Z M24.0658705,32.5957498 L62.9341295,32.5957498 C62.8639682,34.8485498 62.3739351,38.2277498 61.6021609,40.3397498 C55.2876447,58.0101498 46.8677419,59.9101247 43.5,59.9101247 C40.2024194,59.9805247 31.7836125,58.0802753 25.4690963,40.4098753 C24.8376447,38.0866753 24.2061931,35.6229498 24.0658705,32.5957498 Z M21.3991935,34.496 C21.5395161,36.256 21.8897746,37.8053498 22.2405811,39.2837498 C21.6091295,39.0725498 21.1892576,38.6498753 20.9086125,38.2978753 C20.2771609,37.4530753 20.2067259,36.2565498 20.6276937,35.4117498 C20.8381776,35.0597498 21.0483871,34.7072 21.3991935,34.496 Z M65.6008065,34.496 C65.9516129,34.7072 66.2319837,34.9893498 66.3723063,35.4117498 C66.7932741,36.2565498 66.7228391,37.4530753 66.0913875,38.2978753 C65.8107424,38.6498753 65.4607582,39.0725498 64.8293066,39.2837498 C65.180113,37.7349498 65.4604839,36.0448 65.6008065,34.496 Z M80.0537586,40.0578753 L82.7204349,40.5501247 C83.702693,40.7613247 84.333871,41.6765247 84.1935484,42.6621247 L82.5094038,52.1661247 C82.3690812,53.1517247 81.3868231,53.7850502 80.4045651,53.6442502 L77.7392569,53.152 L80.0537586,40.0578753 Z M3.85887097,41.1138753 L3.85887097,45.8301247 C3.78870968,45.6893247 3.71909656,45.6189247 3.71909649,45.4781247 L3.71909649,41.3957498 C3.71909649,41.2549498 3.78870968,41.1842753 3.85887097,41.1138753 Z M63.4945975,43.1474996 C66.5507524,44.6193693 70.0966998,45.9002502 74.090049,45.9002502 C74.7215006,45.9002502 75.4236607,45.8304 76.0551123,45.76 L74.3709677,55.264 C69.8104839,64.3456 64.6881617,65.4018753 62.583323,65.4018753 C61.8854806,65.4018753 60.9535576,65.2858188 59.8727952,64.8972502 L57.9269153,63.9471247 C56.4120327,63.0106618 54.7363454,61.4929519 53.0430314,59.0754996 C56.536964,56.3040509 60.2685526,51.4455934 63.4945975,43.1474996 Z M13.2607582,44.8442502 L24.1946825,44.8442502 C24.867391,46.4347917 25.5590628,47.8875577 26.2652628,49.2098753 L13.2607582,49.2098753 L13.2607582,44.8442502 Z M37.8172098,61.3181247 C40.1325324,62.3741247 42.0970485,62.5858753 43.430113,62.5858753 C44.7631776,62.5858753 46.7276937,62.3741247 49.0430163,61.3181247 L49.0430163,61.952 C49.1131776,62.0224 49.1129032,62.0218502 49.1129032,62.0922502 C49.1129032,62.3034502 49.0430163,62.5861498 49.0430163,62.8677498 C49.0430163,63.0085498 48.9731286,63.2192 48.9731286,63.36 C48.9029673,63.5008 48.902145,63.6413247 48.8319837,63.7821247 C48.8319837,63.7821247 48.8322581,63.8522502 48.7620968,63.8522502 C48.6919355,63.9930502 48.6924834,64.0634502 48.6223222,64.2042502 C48.6223222,64.2746502 48.5513386,64.3456 48.4811773,64.416 C48.4811773,64.4864 48.4115647,64.5573498 48.3414034,64.6277498 L48.1303708,65.0498753 C47.4989192,65.9650753 46.6569837,66.6693498 45.6747257,67.0917498 L45.6048387,67.0917498 C45.4645161,67.1621498 45.3244679,67.232 45.1841453,67.232 L45.1142576,67.232 C44.9739351,67.3024 44.8325166,67.3021247 44.692194,67.3021247 L44.5524194,67.3021247 C44.4120968,67.3021247 44.2720485,67.3722502 44.1317259,67.3722502 L43.9905811,67.3722502 L43.430113,67.3722502 C40.3430163,67.3722502 37.8172098,64.8378502 37.8172098,61.7402502 L37.8172098,61.3181247 Z M35.3615647,64.064 C35.3615647,64.1344 35.4314516,64.2053498 35.4314516,64.2757498 C35.4314516,64.3461498 35.5013386,64.4858502 35.5013386,64.5562502 C35.5714999,64.6970502 35.6422098,64.9090753 35.7123711,65.0498753 C35.7123711,65.1202753 35.7822581,65.1898502 35.7822581,65.2602502 C35.8524194,65.4714502 35.9930163,65.6832 36.0631776,65.824 C36.0631776,65.824 36.0629032,65.8941247 36.1330645,65.8941247 L36.5537579,66.528 C36.6239192,66.5984 36.6247415,66.6693498 36.6949028,66.7397498 C36.7650641,66.8805498 36.9053867,67.0210753 37.0457093,67.1618753 L37.2553708,67.3722502 C37.3255321,67.5130502 37.4658547,67.5834502 37.6061773,67.7242502 L37.8172098,67.936 L38.1680163,68.288 L38.3776778,68.4997498 C38.5180004,68.6405498 38.6594189,68.7109498 38.7997415,68.8517498 C38.8699028,68.9221498 38.9395161,68.9216 38.9395161,68.992 L39.5712421,69.4141247 C39.6414034,69.4141247 39.6408547,69.4842502 39.711016,69.4842502 C39.9214999,69.5546502 40.0623711,69.6957247 40.272855,69.7661254 C40.3430163,69.8365254 40.4134512,69.8362509 40.5537738,69.8362509 C40.6940963,69.9066509 40.833871,69.9778746 41.0443548,69.9778746 C41.1145161,69.9778746 41.255113,70.048 41.3252743,70.048 C41.4655969,70.1184 41.6755321,70.1178509 41.8158547,70.1882509 C41.886016,70.1882509 42.0266129,70.2597491 42.0967742,70.2597491 C42.2370968,70.2597491 42.4481286,70.3298746 42.6586125,70.3298746 L42.9381617,70.3298746 C43.2188069,70.3298746 43.500548,70.4 43.7110318,70.4 L44.4825324,70.4 C44.622855,70.4 44.7631776,70.4002746 44.8333388,70.3298746 C44.9736614,70.3298746 45.0438227,70.3301491 45.1841453,70.2597491 C45.3244679,70.2597491 45.5344031,70.1885254 45.6747257,70.1181254 C45.744887,70.1181254 45.8155969,70.1184 45.8857582,70.048 C46.0962421,69.9776 46.2357424,69.9077491 46.4462262,69.9077491 L46.5873711,69.9077491 C46.797855,69.8373491 47.0075166,69.7664 47.1478391,69.696 L47.2190963,69.696 C47.4295802,69.6256 47.6392418,69.4845247 47.7795644,69.4141247 C47.9900482,69.2733247 48.1309195,69.2029247 48.3414034,69.0621247 C48.5518872,68.9213247 48.6916612,68.8509247 48.8319837,68.7101247 C48.8319837,68.7101247 48.9018714,68.7104 48.9018714,68.64 C49.042194,68.4992 49.1836125,68.3584 49.3239351,68.288 L49.3938227,68.2178753 L49.7446292,67.8658753 C49.8147905,67.7954753 49.8844031,67.7245247 49.8844031,67.6541247 C49.9545644,67.5837247 50.025,67.4426502 50.1653226,67.3722502 C50.2354839,67.2314502 50.3760808,67.1610502 50.4462421,67.0202502 C50.5164034,66.9498502 50.5158547,66.88 50.586016,66.88 C51.1473063,66.1056 51.5690963,65.1898502 51.7795802,64.2042502 L64.9690805,70.6117491 C66.9335966,71.5269491 68.1263386,73.568 68.1263386,75.68 L68.1263386,85.0437491 L68.0564516,85.0437491 L61.7419355,85.0437491 L61.7419355,83.072 L58.9354839,83.072 L58.9354839,85.0437491 L28.0645161,85.0437491 L28.0645161,83.072 L25.2580645,83.072 L25.2580645,85.0437491 L18.9435484,85.0437491 L18.9435484,75.5397491 C18.9435484,73.3573491 20.2064516,71.3853254 22.1008065,70.4701254 L35.3615647,64.064 Z M66.9341453,67.3722502 C67.2147905,68.0058502 67.7061931,68.4986502 68.2674834,68.7802502 L79.2123704,74.0602509 C80.6155962,74.7642509 81.5268721,76.1728 81.5268721,77.792 L81.5268721,85.0437491 L77.3171947,85.0437491 L77.3171947,83.8461254 L74.5107431,83.8461254 L74.5107431,85.0437491 L70.8629032,85.0437491 L70.8629032,75.5397491 C70.8629032,72.3013491 68.9680011,69.344 66.0913875,67.936 L65.7488033,67.7682502 C66.1550442,67.6510637 66.5534108,67.5208174 66.9341453,67.3722502 Z M9.61154881,71.9482509 C11.4879417,73.5172275 13.7006127,74.6909152 16.1466892,75.2771219 C16.1439059,75.3647418 16.1370968,75.4516858 16.1370968,75.5397491 L16.1370968,85.184 L9.96235527,85.184 L9.96235527,83.8461254 L7.15590365,83.8461254 L7.15590365,85.184 L2.80645161,85.184 L2.80645161,77.8621254 C2.80645161,76.3133254 3.71909649,74.8357491 5.12232229,74.1317491 L9.61154881,71.9482509 Z" id="Shape"></path>
        </g>
    </g>
</svg>