<?xml version="1.0" encoding="UTF-8"?>
<svg width="119px" height="119px" viewBox="0 0 119 119" version="1.1" xmlns="http://www.w3.org/2000/svg" xmlns:xlink="http://www.w3.org/1999/xlink">
    <!-- Generator: Sketch 41.2 (35397) - http://www.bohemiancoding.com/sketch -->
    <title>1</title>
    <desc>Created with Sketch.</desc>
    <defs></defs>
    <g id="Symbols" stroke="none" stroke-width="1" fill="none" fill-rule="evenodd">
        <g id="1" fill="#77AE0E">
            <path d="M63.7305372,0.200558923 C67.3777828,0.535340923 72.7574701,1.90490592 76.1919597,3.33534092 C81.905978,5.77012392 86.3434601,8.84403692 90.811336,13.5309929 C96.7685037,19.7396889 100.506931,27.1049063 102.178585,35.9309932 C102.87764,39.6136019 102.87764,46.7962108 102.178585,50.6918629 C101.266773,55.7744716 98.8352763,61.9831672 95.8870861,66.8222977 L95.2184244,67.887515 L107.041579,84.9309933 C114.33607,95.4614281 118.864733,102.248385 118.864733,102.704906 C118.864733,104.226646 118.408828,104.196211 108.166146,102.21795 C102.87764,101.183167 98.4705517,100.391863 98.4097643,100.452732 C98.3185831,100.513602 97.1332283,104.561428 95.7655112,109.400559 C94.3674004,114.270124 93.151652,118.378819 93.0300771,118.561428 C92.817321,118.926645 91.66236,118.95708 91.1760604,118.622298 C91.0240918,118.500559 86.2522789,111.165776 80.5686544,102.278819 C74.9154238,93.3918629 70.1436107,85.965776 69.9308549,85.7527323 C69.6269176,85.4179499 69.0798308,85.4483845 66.8610898,85.8744716 C63.2138442,86.5744717 56.0409276,86.6049063 52.1809262,85.9049063 C49.871004,85.4788194 49.2631295,85.4483845 49.0503737,85.7527323 C48.9287988,85.965776 44.126592,93.4831673 38.4125739,102.430993 C29.4768222,116.339689 27.8659553,118.713602 27.1972937,118.804906 C26.7717818,118.865776 26.2854822,118.713602 26.1031201,118.500559 C25.9207578,118.287515 24.6442219,114.148385 23.2461108,109.278819 C21.8783938,104.409254 20.6930391,100.422298 20.6626453,100.361428 C20.6322516,100.300559 16.4379194,101.091863 11.3621694,102.096211 C6.31681243,103.130993 1.78814943,103.952732 1.33224343,103.952732 C0.785156434,103.952732 0.390038434,103.709254 0.146888434,103.313602 C-0.248229566,102.552732 -0.916891566,103.55708 14.1279974,81.8875151 L23.8235916,67.887515 L23.0637488,66.6701238 C20.2675269,62.0744716 18.1095734,56.7179497 17.0153994,51.6049063 C16.2251634,47.9831671 16.2251634,38.8831673 16.9850064,35.1092542 C18.990991,25.187515 24.5530407,15.9049059 32.1818626,9.72664592 C41.0568269,2.57447192 52.4240758,-0.864659077 63.7305372,0.200558923 Z M52.3632883,3.39621092 C36.3761952,6.07447192 23.3068983,18.7962109 19.7508339,35.1701237 C18.9605973,38.8222977 18.9605973,47.6483847 19.7508339,51.3005585 C21.4224882,58.9396891 24.9785526,65.7266454 30.236665,71.1744715 C36.2242266,77.413602 43.0628122,81.1875151 51.6034455,82.9831671 C55.7065969,83.8657759 62.8491195,83.9266454 66.830696,83.1657759 C75.1281798,81.5222975 82.3618836,77.6875149 88.1670828,71.8440367 C94.0634632,65.9701237 97.9842523,58.4527324 99.4735442,50.265776 C100.142206,46.613602 100.142206,39.8570802 99.4735442,36.2049064 C96.8900786,21.8701236 86.7385783,9.90925392 73.1221946,5.10055892 C66.3443967,2.72664592 59.6577798,2.17881992 52.3632883,3.39621092 Z M85.27968,77.9614281 C82.4834585,80.0309933 77.4684958,82.7701237 74.4291244,83.8657759 C73.2133758,84.2918628 72.6055015,84.687515 72.7270764,84.9005584 C74.0036123,87.0005585 90.9025172,113.326645 91.2064541,113.630993 C91.4799977,113.935341 91.9966907,112.444037 93.7899198,106.174472 C95.0056683,101.852732 96.2518106,98.0788194 96.525354,97.7744715 C97.0420472,97.2266455 97.3459843,97.2570803 105.643468,98.9309933 C110.354494,99.8744716 114.275283,100.604906 114.33607,100.544037 C114.427251,100.422298 110.3241,94.4266455 97.5283466,76.0440368 L93.4859827,70.2005585 L90.6593674,73.1222977 C89.1396817,74.7049063 86.7081845,76.8962108 85.27968,77.9614281 Z M14.8270524,85.6005584 C9.14342743,93.8483846 4.55397743,100.604906 4.67555243,100.604906 C4.79712643,100.604906 8.68752243,99.8440368 13.3073664,98.9309933 C19.3557157,97.713602 21.9087875,97.3179498 22.3039059,97.5309933 C22.6990241,97.7440368 23.4284732,99.9353411 25.0697338,105.687515 C26.2854822,110.009254 27.379656,113.630993 27.5012309,113.783167 C27.6228058,113.904906 31.9387131,107.422298 37.0752506,99.387515 C42.2421819,91.3222977 46.4061205,84.687515 46.3453331,84.6266455 C46.2845456,84.565776 45.1599783,84.1092542 43.8530487,83.5918627 C37.8654872,81.2179497 33.4583987,78.2657759 28.8993417,73.6701238 C27.0453251,71.7831671 25.4648519,70.3527324 25.373671,70.4440368 C25.2824898,70.5353412 20.5106767,77.3831671 14.8270524,85.6005584 Z" id="Shape"></path>
            <path d="M55.0066363,32.9070938 C51.5113593,33.9723112 49.9916736,36.4679635 49.5965552,41.7636157 C49.1406496,47.7592679 50.0828545,52.8723113 51.9368712,54.6070938 C53.6693129,56.2505721 54.6115179,56.5244851 58.3803383,56.5244851 C61.389316,56.5244851 62.0579776,56.4331809 63.091364,55.8549199 C65.6748295,54.4853547 66.7386096,52.4157895 67.2553026,47.728833 C67.650421,44.1679633 67.3160901,39.7244851 66.4042789,37.1375287 C65.7964044,35.3114418 63.7600257,33.45492 61.8756156,32.9679634 C60.3863236,32.602746 56.2223847,32.5723111 55.0066363,32.9070938 Z M60.8118355,37.3505721 C61.9060093,38.324485 62.1795525,39.8462244 62.1795525,44.6549199 C62.1795525,49.9201372 61.8756156,51.2288329 60.3863236,52.1418763 C58.745063,53.1462242 56.4351408,52.7505722 55.4929356,51.3201373 C54.4291558,49.6766592 54.1556123,42.128833 55.0674237,38.9331809 C55.4929356,37.3201374 56.8302589,36.528833 58.7754567,36.6810069 C59.5656933,36.7418764 60.4775045,37.0462243 60.8118355,37.3505721 Z" id="Shape"></path>
            <path d="M76.2822356,32.9070938 C72.7869586,33.9723112 71.2672729,36.4679635 70.8721548,41.7636157 C70.4162489,47.7592679 71.3584541,52.8723113 73.2124705,54.6070938 C74.9449122,56.2505721 75.8871174,56.5244851 79.6559379,56.5244851 C82.6649155,56.5244851 83.3335772,56.4331809 84.3669633,55.8549199 C86.9504291,54.4853547 88.0142089,52.4157895 88.5309022,47.728833 C88.9260203,44.1679633 88.5916896,39.7244851 87.6798782,37.1375287 C87.072004,35.3114418 85.035625,33.45492 83.1512149,32.9679634 C81.6619229,32.602746 77.4979843,32.5723111 76.2822356,32.9070938 Z M82.0874348,37.3505721 C83.1816086,38.324485 83.4551521,39.8462244 83.4551521,44.6549199 C83.4551521,49.9201372 83.1512149,51.2288329 81.6619229,52.1418763 C80.0206623,53.1462242 77.7107401,52.7505722 76.7685351,51.3201373 C75.7047551,49.6766592 75.4312115,42.128833 76.343023,38.9331809 C76.7685351,37.3201374 78.1058585,36.528833 80.051056,36.6810069 C80.8412926,36.7418764 81.7531041,37.0462243 82.0874348,37.3505721 Z" id="Shape"></path>
            <path d="M30.7220591,34.0130435 C30.7220591,34.652174 30.8132403,35.626087 30.9044214,36.1434782 L31.1171775,37.0869566 L36.2233213,37.0869566 C39.0499366,37.0869566 41.3598589,37.1478261 41.3598589,37.2086958 C41.3598589,37.3 41.2078902,37.7260871 41.0255281,38.2130434 C40.8431658,38.6695654 39.4146613,42.6869566 37.8645819,47.1304348 C36.3145025,51.573913 34.9467854,55.4391305 34.8252105,55.7130437 C34.6428482,56.2 34.8556042,56.2608695 37.2263139,56.2608695 C38.6548185,56.2608695 39.8401732,56.2 39.8401732,56.1391305 C39.8401732,56.078261 41.3902526,51.452174 43.3050567,45.8826089 C45.2198605,40.2826086 46.8611211,35.4130436 46.982696,35.0478262 C47.1042706,34.5304348 46.9523023,34.1652174 46.4052152,33.5869567 L45.6453724,32.8260871 L30.7220591,32.8260871 L30.7220591,34.0130435 Z" id="Shape"></path>
        </g>
    </g>
</svg>