<?xml version="1.0" encoding="UTF-8"?>
<svg width="36px" height="46px" viewBox="0 0 36 46" version="1.1" xmlns="http://www.w3.org/2000/svg" xmlns:xlink="http://www.w3.org/1999/xlink">
    <!-- Generator: Sketch 41.2 (35397) - http://www.bohemiancoding.com/sketch -->
    <title>Shape</title>
    <desc>Created with Sketch.</desc>
    <defs></defs>
    <g id="Symbols" stroke="none" stroke-width="1" fill="none" fill-rule="evenodd">
        <g id="4" fill="#81C780">
            <path d="M35.1627907,45.3519465 L0,45.3519465 L0,13.4376138 L5.02325581,13.4376138 L5.02325581,6.71880689 L8.37209302,6.71880689 L8.37209302,0 L10.0465116,0 L10.0465116,6.71880689 L13.3953488,6.71880689 L13.3953488,13.4376138 L18.4186047,13.4376138 L18.4186047,16.7970172 L35.1627907,16.7970172 L35.1627907,45.3519465 Z M16.744186,43.6722448 L16.744186,15.1173155 L1.6744186,15.1173155 L1.6744186,43.6722448 L6.69767442,43.6722448 L6.69767442,36.9534379 L11.7209302,36.9534379 L11.7209302,43.6722448 L16.744186,43.6722448 Z M3.34883721,16.7970172 L8.37209302,16.7970172 L8.37209302,21.8361224 L3.34883721,21.8361224 L3.34883721,16.7970172 Z M5.02325581,18.476719 L5.02325581,20.1564207 L6.69767442,20.1564207 L6.69767442,18.476719 L5.02325581,18.476719 Z M3.34883721,23.5158241 L8.37209302,23.5158241 L8.37209302,28.5549293 L3.34883721,28.5549293 L3.34883721,23.5158241 Z M5.02325581,25.1955259 L5.02325581,26.8752276 L6.69767442,26.8752276 L6.69767442,25.1955259 L5.02325581,25.1955259 Z M3.34883721,30.234631 L8.37209302,30.234631 L8.37209302,35.2737362 L3.34883721,35.2737362 L3.34883721,30.234631 Z M5.02325581,31.9143327 L5.02325581,33.5940345 L6.69767442,33.5940345 L6.69767442,31.9143327 L5.02325581,31.9143327 Z M10.0465116,16.7970172 L15.0697674,16.7970172 L15.0697674,21.8361224 L10.0465116,21.8361224 L10.0465116,16.7970172 Z M11.7209302,18.476719 L11.7209302,20.1564207 L13.3953488,20.1564207 L13.3953488,18.476719 L11.7209302,18.476719 Z M10.0465116,23.5158241 L15.0697674,23.5158241 L15.0697674,28.5549293 L10.0465116,28.5549293 L10.0465116,23.5158241 Z M11.7209302,25.1955259 L11.7209302,26.8752276 L13.3953488,26.8752276 L13.3953488,25.1955259 L11.7209302,25.1955259 Z M10.0465116,30.234631 L15.0697674,30.234631 L15.0697674,35.2737362 L10.0465116,35.2737362 L10.0465116,30.234631 Z M11.7209302,31.9143327 L11.7209302,33.5940345 L13.3953488,33.5940345 L13.3953488,31.9143327 L11.7209302,31.9143327 Z M8.37209302,38.6331396 L8.37209302,43.6722448 L10.0465116,43.6722448 L10.0465116,38.6331396 L8.37209302,38.6331396 Z M6.69767442,8.39850862 L6.69767442,13.4376138 L11.7209302,13.4376138 L11.7209302,8.39850862 L6.69767442,8.39850862 Z M33.4883721,43.6722448 L33.4883721,18.476719 L18.4186047,18.476719 L18.4186047,43.6722448 L23.4418605,43.6722448 L23.4418605,40.3128414 L28.4651163,40.3128414 L28.4651163,43.6722448 L33.4883721,43.6722448 Z M20.0930233,20.1564207 L25.1162791,20.1564207 L25.1162791,25.1955259 L20.0930233,25.1955259 L20.0930233,20.1564207 Z M21.7674419,21.8361224 L21.7674419,23.5158241 L23.4418605,23.5158241 L23.4418605,21.8361224 L21.7674419,21.8361224 Z M20.0930233,26.8752276 L25.1162791,26.8752276 L25.1162791,31.9143327 L20.0930233,31.9143327 L20.0930233,26.8752276 Z M21.7674419,28.5549293 L21.7674419,30.234631 L23.4418605,30.234631 L23.4418605,28.5549293 L21.7674419,28.5549293 Z M20.0930233,33.5940345 L25.1162791,33.5940345 L25.1162791,38.6331396 L20.0930233,38.6331396 L20.0930233,33.5940345 Z M21.7674419,35.2737362 L21.7674419,36.9534379 L23.4418605,36.9534379 L23.4418605,35.2737362 L21.7674419,35.2737362 Z M26.7906977,20.1564207 L31.8139535,20.1564207 L31.8139535,25.1955259 L26.7906977,25.1955259 L26.7906977,20.1564207 Z M28.4651163,21.8361224 L28.4651163,23.5158241 L30.1395349,23.5158241 L30.1395349,21.8361224 L28.4651163,21.8361224 Z M26.7906977,26.8752276 L31.8139535,26.8752276 L31.8139535,31.9143327 L26.7906977,31.9143327 L26.7906977,26.8752276 Z M28.4651163,28.5549293 L28.4651163,30.234631 L30.1395349,30.234631 L30.1395349,28.5549293 L28.4651163,28.5549293 Z M26.7906977,33.5940345 L31.8139535,33.5940345 L31.8139535,38.6331396 L26.7906977,38.6331396 L26.7906977,33.5940345 Z M28.4651163,35.2737362 L28.4651163,36.9534379 L30.1395349,36.9534379 L30.1395349,35.2737362 L28.4651163,35.2737362 Z M25.1162791,41.9925431 L25.1162791,43.6722448 L26.7906977,43.6722448 L26.7906977,41.9925431 L25.1162791,41.9925431 Z" id="Shape"></path>
        </g>
    </g>
</svg>