<?xml version="1.0" encoding="UTF-8"?>
<svg width="37px" height="22px" viewBox="0 0 37 22" version="1.1" xmlns="http://www.w3.org/2000/svg" xmlns:xlink="http://www.w3.org/1999/xlink">
    <!-- Generator: Sketch 43 (38999) - http://www.bohemiancoding.com/sketch -->
    <title>noun_796594_cc (1)</title>
    <desc>Created with Sketch.</desc>
    <defs></defs>
    <g id="Page-1" stroke="none" stroke-width="1" fill="none" fill-rule="evenodd">
        <g id="noun_796594_cc-(1)" fill-rule="nonzero" fill="#92C37C">
            <path d="M27,20 L0,20 L0,13 L10,13 L10,8 L7,8 L11,3 L24,3 L24,0 L27,0 L27,3 L31,3 L35,8 L32,8 L32,11 L31,11 L31,10 L11,10 L11,17.006 L18,17 L18,12 L24,12 L24,17 L27,17 L27,20 Z M11,9 L31,9 L31,8 L11,8 L11,9 Z M12,4 L9,7 L33,7 L30,4 L12,4 Z M11,19 L18,19 L18,18 L11,18 L11,19 Z M26,19 L26,18 L24,18 L24,19 L26,19 Z M23,19 L23,13 L19,13 L19,19 L23,19 Z M12,11 L17,11 L17,15 L12,15 L12,11 Z M13,12 L13,14 L16,14 L16,12 L13,12 Z M25,15 L25,11 L29,11 L29,12 L26,12 L26,14 L29,14 L29,15 L25,15 Z M25,1 L25,3 L26,3 L26,1 L25,1 Z M32.5,12 C33.8807119,12 35,13.1192881 35,14.5 C35,15.8807119 33.8807119,17 32.5,17 C31.1192881,17 30,15.8807119 30,14.5 C30,13.1192881 31.1192881,12 32.5,12 L32.5,12 Z M32.5,13 C31.6715729,13 31,13.6715729 31,14.5 C31,15.3284271 31.6715729,16 32.5,16 C33.3284271,16 34,15.3284271 34,14.5 C34,13.6715729 33.3284271,13 32.5,13 Z M33,17 C34.363,17.03 37,17.952 37,20 L37,22 L28,22 L28,20 C28,17.93 30.468,17.116 32,17 L33,17 Z M33,18 L32,18 C32,18 28.992,18.422 29,20 C28.987,20.513 29,21 29,21 L36,21 C36,21 35.984,20.81 36,20 C35.995,18.443 33.647,18 33,18 Z M10,19 L10,14 L1,14 L1,19 L2,19 L2,15 L9,15 L9,19 L10,19 Z M3,16 L3,17 L8,17 L8,16 L3,16 Z M3,19 L8,19 L8,18 L3,18 L3,19 Z" id="Shape"></path>
        </g>
    </g>
</svg>