<?xml version="1.0" encoding="UTF-8"?>
<svg width="25px" height="24px" viewBox="0 0 25 24" version="1.1" xmlns="http://www.w3.org/2000/svg" xmlns:xlink="http://www.w3.org/1999/xlink">
    <!-- Generator: Sketch 43 (38999) - http://www.bohemiancoding.com/sketch -->
    <title>noun_730598_cc (1)</title>
    <desc>Created with Sketch.</desc>
    <defs></defs>
    <g id="Page-1" stroke="none" stroke-width="1" fill="none" fill-rule="evenodd">
        <g id="noun_730598_cc-(1)" fill-rule="nonzero" fill="#92C37C">
            <path d="M25,6 L25,24 L0,24 L0,6 L2,6 L2,0 L5.006,0 L5,6 L6,6 L6,3 L9.012,3 L9,6 L25,6 Z M1,23 L24,23 L24,7 L1,7 L1,23 Z M3,9 L8,9 L8,14 L3,14 L3,9 Z M4,10 L4,13 L7,13 L7,10 L4,10 Z M3,16 L8,16 L8,21 L3,21 L3,16 Z M4,17 L4,20 L7,20 L7,17 L4,17 Z M10,9 L15,9 L15,14 L10,14 L10,9 Z M11,10 L11,13 L14,13 L14,10 L11,10 Z M10,16 L15,16 L15,21 L10,21 L10,16 Z M11,17 L11,20 L14,20 L14,17 L11,17 Z M17,9 L22,9 L22,14 L17,14 L17,9 Z M18,10 L18,13 L21,13 L21,10 L18,10 Z M3,1 L3,6 L4,6 L4,1 L3,1 Z M7,4 L7,6 L8,6 L8,4 L7,4 Z M17,16 L22,16 L22,21 L17,21 L17,16 Z M18,17 L18,20 L21,20 L21,17 L18,17 Z" id="Shape"></path>
        </g>
    </g>
</svg>