<?xml version="1.0" encoding="UTF-8"?>
<svg width="31px" height="26px" viewBox="0 0 31 26" version="1.1" xmlns="http://www.w3.org/2000/svg" xmlns:xlink="http://www.w3.org/1999/xlink">
    <!-- Generator: Sketch 43 (38999) - http://www.bohemiancoding.com/sketch -->
    <title>noun_796584_cc (1)</title>
    <desc>Created with Sketch.</desc>
    <defs></defs>
    <g id="Page-1" stroke="none" stroke-width="1" fill="none" fill-rule="evenodd">
        <g id="noun_796584_cc-(1)" fill-rule="nonzero" fill="#92C37C">
            <path d="M0,26 L0,25 L2,25 L2,9 L8,9 L8,0 L23,0 L23,9 L29,9 L29,25 L31,25 L31,26 L0,26 Z M22,25 L22,1 L9,1 L9,25 L13,25 L13,22 L18,22 L18,25 L22,25 Z M10,2 L13,2 L13,5 L10,5 L10,2 Z M11,3 L11,4 L12,4 L12,3 L11,3 Z M14,2 L17,2 L17,5 L14,5 L14,2 Z M15,3 L15,4 L16,4 L16,3 L15,3 Z M18,2 L21,2 L21,5 L18,5 L18,2 Z M19,3 L19,4 L20,4 L20,3 L19,3 Z M10,6 L13,6 L13,9 L10,9 L10,6 Z M11,7 L11,8 L12,8 L12,7 L11,7 Z M14,6 L17,6 L17,9 L14,9 L14,6 Z M15,7 L15,8 L16,8 L16,7 L15,7 Z M18,6 L21,6 L21,9 L18,9 L18,6 Z M19,7 L19,8 L20,8 L20,7 L19,7 Z M10,10 L13,10 L13,13 L10,13 L10,10 Z M11,11 L11,12 L12,12 L12,11 L11,11 Z M14,10 L17,10 L17,13 L14,13 L14,10 Z M15,11 L15,12 L16,12 L16,11 L15,11 Z M18,10 L21,10 L21,13 L18,13 L18,10 Z M19,11 L19,12 L20,12 L20,11 L19,11 Z M10,14 L13,14 L13,17 L10,17 L10,14 Z M11,15 L11,16 L12,16 L12,15 L11,15 Z M14,14 L17,14 L17,17 L14,17 L14,14 Z M15,15 L15,16 L16,16 L16,15 L15,15 Z M18,14 L21,14 L21,17 L18,17 L18,14 Z M19,15 L19,16 L20,16 L20,15 L19,15 Z M10,18 L13,18 L13,21 L10,21 L10,18 Z M11,19 L11,20 L12,20 L12,19 L11,19 Z M18,18 L21,18 L21,21 L18,21 L18,18 Z M19,19 L19,20 L20,20 L20,19 L19,19 Z M14,23 L14,25 L17,25 L17,23 L14,23 Z M3,10 L3,25 L8,25 L8,10 L3,10 Z M4,11 L7,11 L7,14 L4,14 L4,11 Z M5,12 L5,13 L6,13 L6,12 L5,12 Z M4,15 L7,15 L7,18 L4,18 L4,15 Z M5,16 L5,17 L6,17 L6,16 L5,16 Z M23,10 L23,25 L28,25 L28,10 L23,10 Z M24,11 L27,11 L27,14 L24,14 L24,11 Z M25,12 L25,13 L26,13 L26,12 L25,12 Z M24,15 L27,15 L27,18 L24,18 L24,15 Z M25,16 L25,17 L26,17 L26,16 L25,16 Z M24,19 L27,19 L27,22 L24,22 L24,19 Z M25,20 L25,21 L26,21 L26,20 L25,20 Z M4,19 L7,19 L7,22 L4,22 L4,19 Z M5,20 L5,21 L6,21 L6,20 L5,20 Z M14,18 L17,18 L17,21 L14,21 L14,18 Z M15,19 L15,20 L16,20 L16,19 L15,19 Z" id="Shape"></path>
        </g>
    </g>
</svg>