<?xml version="1.0" encoding="UTF-8"?>
<svg width="70px" height="35px" viewBox="0 0 70 35" version="1.1" xmlns="http://www.w3.org/2000/svg" xmlns:xlink="http://www.w3.org/1999/xlink">
    <!-- Generator: Sketch 41.2 (35397) - http://www.bohemiancoding.com/sketch -->
    <title>Shape</title>
    <desc>Created with Sketch.</desc>
    <defs></defs>
    <g id="Symbols" stroke="none" stroke-width="1" fill="none" fill-rule="evenodd">
        <g id="3" fill="#81C780">
            <path d="M0,34.2939102 L0,32.6608668 L3.25581395,32.6608668 L3.25581395,0 L27.6744186,0 L27.6190698,6.53217337 L42.2930233,6.53217337 L42.3255814,0 L66.744186,0 L66.744186,32.6608668 L70,32.6608668 L70,34.2939102 L0,34.2939102 Z M42.3255814,32.6608668 L42.3255814,8.16521671 L27.6744186,8.16521671 L27.6744186,32.6608668 L42.3255814,32.6608668 Z M26.0465116,32.6608668 L26.0465116,1.63304334 L4.88372093,1.63304334 L4.88372093,32.6608668 L11.3953488,32.6608668 L11.3953488,24.4956501 L19.5348837,24.4956501 L19.5348837,32.6608668 L26.0465116,32.6608668 Z M65.1162791,32.6608668 L65.1162791,1.63304334 L43.9534884,1.63304334 L43.9534884,32.6608668 L50.4651163,32.6608668 L50.4651163,24.4956501 L58.6046512,24.4956501 L58.6046512,32.6608668 L65.1162791,32.6608668 Z M45.5813953,3.26608668 L50.4651163,3.26608668 L50.4651163,8.16521671 L45.5813953,8.16521671 L45.5813953,3.26608668 Z M47.2093023,4.89913003 L47.2093023,6.53217337 L48.8372093,6.53217337 L48.8372093,4.89913003 L47.2093023,4.89913003 Z M52.0930233,3.26608668 L56.9767442,3.26608668 L56.9767442,8.16521671 L52.0930233,8.16521671 L52.0930233,3.26608668 Z M53.7209302,4.89913003 L53.7209302,6.53217337 L55.3488372,6.53217337 L55.3488372,4.89913003 L53.7209302,4.89913003 Z M45.5813953,9.79826005 L50.4651163,9.79826005 L50.4651163,14.6973901 L45.5813953,14.6973901 L45.5813953,9.79826005 Z M47.2093023,11.4313034 L47.2093023,13.0643467 L48.8372093,13.0643467 L48.8372093,11.4313034 L47.2093023,11.4313034 Z M52.0930233,9.79826005 L56.9767442,9.79826005 L56.9767442,14.6973901 L52.0930233,14.6973901 L52.0930233,9.79826005 Z M53.7209302,11.4313034 L53.7209302,13.0643467 L55.3488372,13.0643467 L55.3488372,11.4313034 L53.7209302,11.4313034 Z M45.5813953,16.3304334 L50.4651163,16.3304334 L50.4651163,21.2295635 L45.5813953,21.2295635 L45.5813953,16.3304334 Z M47.2093023,17.9634768 L47.2093023,19.5965201 L48.8372093,19.5965201 L48.8372093,17.9634768 L47.2093023,17.9634768 Z M52.0930233,16.3304334 L56.9767442,16.3304334 L56.9767442,21.2295635 L52.0930233,21.2295635 L52.0930233,16.3304334 Z M53.7209302,17.9634768 L53.7209302,19.5965201 L55.3488372,19.5965201 L55.3488372,17.9634768 L53.7209302,17.9634768 Z M29.3023256,9.79826005 L34.1860465,9.79826005 L34.1860465,14.6973901 L29.3023256,14.6973901 L29.3023256,9.79826005 Z M30.9302326,11.4313034 L30.9302326,13.0643467 L32.5581395,13.0643467 L32.5581395,11.4313034 L30.9302326,11.4313034 Z M35.8139535,9.79826005 L40.6976744,9.79826005 L40.6976744,14.6973901 L35.8139535,14.6973901 L35.8139535,9.79826005 Z M37.4418605,11.4313034 L37.4418605,13.0643467 L39.0697674,13.0643467 L39.0697674,11.4313034 L37.4418605,11.4313034 Z M29.3023256,16.3304334 L34.1860465,16.3304334 L34.1860465,21.2295635 L29.3023256,21.2295635 L29.3023256,16.3304334 Z M30.9302326,17.9634768 L30.9302326,19.5965201 L32.5581395,19.5965201 L32.5581395,17.9634768 L30.9302326,17.9634768 Z M35.8139535,16.3304334 L40.6976744,16.3304334 L40.6976744,21.2295635 L35.8139535,21.2295635 L35.8139535,16.3304334 Z M37.4418605,17.9634768 L37.4418605,19.5965201 L39.0697674,19.5965201 L39.0697674,17.9634768 L37.4418605,17.9634768 Z M29.3023256,22.8626068 L34.1860465,22.8626068 L34.1860465,27.7617368 L29.3023256,27.7617368 L29.3023256,22.8626068 Z M30.9302326,24.4956501 L30.9302326,26.1286935 L32.5581395,26.1286935 L32.5581395,24.4956501 L30.9302326,24.4956501 Z M35.8139535,22.8626068 L40.6976744,22.8626068 L40.6976744,27.7617368 L35.8139535,27.7617368 L35.8139535,22.8626068 Z M37.4418605,24.4956501 L37.4418605,26.1286935 L39.0697674,26.1286935 L39.0697674,24.4956501 L37.4418605,24.4956501 Z M58.6046512,3.26608668 L63.4883721,3.26608668 L63.4883721,8.16521671 L58.6046512,8.16521671 L58.6046512,3.26608668 Z M60.2325581,4.89913003 L60.2325581,6.53217337 L61.8604651,6.53217337 L61.8604651,4.89913003 L60.2325581,4.89913003 Z M58.6046512,9.79826005 L63.4883721,9.79826005 L63.4883721,14.6973901 L58.6046512,14.6973901 L58.6046512,9.79826005 Z M60.2325581,11.4313034 L60.2325581,13.0643467 L61.8604651,13.0643467 L61.8604651,11.4313034 L60.2325581,11.4313034 Z M58.6046512,16.3304334 L63.4883721,16.3304334 L63.4883721,21.2295635 L58.6046512,21.2295635 L58.6046512,16.3304334 Z M60.2325581,17.9634768 L60.2325581,19.5965201 L61.8604651,19.5965201 L61.8604651,17.9634768 L60.2325581,17.9634768 Z M6.51162791,3.26608668 L11.3953488,3.26608668 L11.3953488,8.16521671 L6.51162791,8.16521671 L6.51162791,3.26608668 Z M8.13953488,4.89913003 L8.13953488,6.53217337 L9.76744186,6.53217337 L9.76744186,4.89913003 L8.13953488,4.89913003 Z M13.0232558,3.26608668 L17.9069767,3.26608668 L17.9069767,8.16521671 L13.0232558,8.16521671 L13.0232558,3.26608668 Z M14.6511628,4.89913003 L14.6511628,6.53217337 L16.2790698,6.53217337 L16.2790698,4.89913003 L14.6511628,4.89913003 Z M6.51162791,9.79826005 L11.3953488,9.79826005 L11.3953488,14.6973901 L6.51162791,14.6973901 L6.51162791,9.79826005 Z M8.13953488,11.4313034 L8.13953488,13.0643467 L9.76744186,13.0643467 L9.76744186,11.4313034 L8.13953488,11.4313034 Z M13.0232558,9.79826005 L17.9069767,9.79826005 L17.9069767,14.6973901 L13.0232558,14.6973901 L13.0232558,9.79826005 Z M14.6511628,11.4313034 L14.6511628,13.0643467 L16.2790698,13.0643467 L16.2790698,11.4313034 L14.6511628,11.4313034 Z M6.51162791,16.3304334 L11.3953488,16.3304334 L11.3953488,21.2295635 L6.51162791,21.2295635 L6.51162791,16.3304334 Z M8.13953488,17.9634768 L8.13953488,19.5965201 L9.76744186,19.5965201 L9.76744186,17.9634768 L8.13953488,17.9634768 Z M13.0232558,16.3304334 L17.9069767,16.3304334 L17.9069767,21.2295635 L13.0232558,21.2295635 L13.0232558,16.3304334 Z M14.6511628,17.9634768 L14.6511628,19.5965201 L16.2790698,19.5965201 L16.2790698,17.9634768 L14.6511628,17.9634768 Z M19.5348837,3.26608668 L24.4186047,3.26608668 L24.4186047,8.16521671 L19.5348837,8.16521671 L19.5348837,3.26608668 Z M21.1627907,4.89913003 L21.1627907,6.53217337 L22.7906977,6.53217337 L22.7906977,4.89913003 L21.1627907,4.89913003 Z M19.5348837,9.79826005 L24.4186047,9.79826005 L24.4186047,14.6973901 L19.5348837,14.6973901 L19.5348837,9.79826005 Z M21.1627907,11.4313034 L21.1627907,13.0643467 L22.7906977,13.0643467 L22.7906977,11.4313034 L21.1627907,11.4313034 Z M19.5348837,16.3304334 L24.4186047,16.3304334 L24.4186047,21.2295635 L19.5348837,21.2295635 L19.5348837,16.3304334 Z M21.1627907,17.9634768 L21.1627907,19.5965201 L22.7906977,19.5965201 L22.7906977,17.9634768 L21.1627907,17.9634768 Z M13.0232558,26.1286935 L13.0232558,32.6608668 L17.9069767,32.6608668 L17.9069767,26.1286935 L13.0232558,26.1286935 Z M52.0930233,26.1286935 L52.0930233,32.6608668 L56.9767442,32.6608668 L56.9767442,26.1286935 L52.0930233,26.1286935 Z" id="Shape"></path>
        </g>
    </g>
</svg>