<?xml version="1.0" encoding="UTF-8"?>
<svg width="53px" height="45px" viewBox="0 0 53 45" version="1.1" xmlns="http://www.w3.org/2000/svg" xmlns:xlink="http://www.w3.org/1999/xlink">
    <!-- Generator: Sketch 41.2 (35397) - http://www.bohemiancoding.com/sketch -->
    <title>Shape</title>
    <desc>Created with Sketch.</desc>
    <defs></defs>
    <g id="Symbols" stroke="none" stroke-width="1" fill="none" fill-rule="evenodd">
        <g id="2" fill="#81C780">
            <path d="M0,44.4730328 L0,42.7625316 L3.41024254,42.7625316 L3.41024254,15.3945114 L13.6409702,15.3945114 L13.6409702,0 L39.2177892,0 L39.2177892,15.3945114 L49.4485169,15.3945114 L49.4485169,42.7625316 L52.8587594,42.7625316 L52.8587594,44.4730328 L0,44.4730328 Z M37.512668,42.7625316 L37.512668,1.71050126 L15.3460914,1.71050126 L15.3460914,42.7625316 L22.1665765,42.7625316 L22.1665765,37.6310278 L30.6921829,37.6310278 L30.6921829,42.7625316 L37.512668,42.7625316 Z M17.0512127,3.42100253 L22.1665765,3.42100253 L22.1665765,8.55250632 L17.0512127,8.55250632 L17.0512127,3.42100253 Z M18.756334,5.13150379 L18.756334,6.84200505 L20.4614553,6.84200505 L20.4614553,5.13150379 L18.756334,5.13150379 Z M23.8716978,3.42100253 L28.9870616,3.42100253 L28.9870616,8.55250632 L23.8716978,8.55250632 L23.8716978,3.42100253 Z M25.5768191,5.13150379 L25.5768191,6.84200505 L27.2819403,6.84200505 L27.2819403,5.13150379 L25.5768191,5.13150379 Z M30.6921829,3.42100253 L35.8075467,3.42100253 L35.8075467,8.55250632 L30.6921829,8.55250632 L30.6921829,3.42100253 Z M32.3973042,5.13150379 L32.3973042,6.84200505 L34.1024254,6.84200505 L34.1024254,5.13150379 L32.3973042,5.13150379 Z M17.0512127,10.2630076 L22.1665765,10.2630076 L22.1665765,15.3945114 L17.0512127,15.3945114 L17.0512127,10.2630076 Z M18.756334,11.9735088 L18.756334,13.6840101 L20.4614553,13.6840101 L20.4614553,11.9735088 L18.756334,11.9735088 Z M23.8716978,10.2630076 L28.9870616,10.2630076 L28.9870616,15.3945114 L23.8716978,15.3945114 L23.8716978,10.2630076 Z M25.5768191,11.9735088 L25.5768191,13.6840101 L27.2819403,13.6840101 L27.2819403,11.9735088 L25.5768191,11.9735088 Z M30.6921829,10.2630076 L35.8075467,10.2630076 L35.8075467,15.3945114 L30.6921829,15.3945114 L30.6921829,10.2630076 Z M32.3973042,11.9735088 L32.3973042,13.6840101 L34.1024254,13.6840101 L34.1024254,11.9735088 L32.3973042,11.9735088 Z M17.0512127,17.1050126 L22.1665765,17.1050126 L22.1665765,22.2365164 L17.0512127,22.2365164 L17.0512127,17.1050126 Z M18.756334,18.8155139 L18.756334,20.5260152 L20.4614553,20.5260152 L20.4614553,18.8155139 L18.756334,18.8155139 Z M23.8716978,17.1050126 L28.9870616,17.1050126 L28.9870616,22.2365164 L23.8716978,22.2365164 L23.8716978,17.1050126 Z M25.5768191,18.8155139 L25.5768191,20.5260152 L27.2819403,20.5260152 L27.2819403,18.8155139 L25.5768191,18.8155139 Z M30.6921829,17.1050126 L35.8075467,17.1050126 L35.8075467,22.2365164 L30.6921829,22.2365164 L30.6921829,17.1050126 Z M32.3973042,18.8155139 L32.3973042,20.5260152 L34.1024254,20.5260152 L34.1024254,18.8155139 L32.3973042,18.8155139 Z M17.0512127,23.9470177 L22.1665765,23.9470177 L22.1665765,29.0785215 L17.0512127,29.0785215 L17.0512127,23.9470177 Z M18.756334,25.6575189 L18.756334,27.3680202 L20.4614553,27.3680202 L20.4614553,25.6575189 L18.756334,25.6575189 Z M23.8716978,23.9470177 L28.9870616,23.9470177 L28.9870616,29.0785215 L23.8716978,29.0785215 L23.8716978,23.9470177 Z M25.5768191,25.6575189 L25.5768191,27.3680202 L27.2819403,27.3680202 L27.2819403,25.6575189 L25.5768191,25.6575189 Z M30.6921829,23.9470177 L35.8075467,23.9470177 L35.8075467,29.0785215 L30.6921829,29.0785215 L30.6921829,23.9470177 Z M32.3973042,25.6575189 L32.3973042,27.3680202 L34.1024254,27.3680202 L34.1024254,25.6575189 L32.3973042,25.6575189 Z M17.0512127,30.7890227 L22.1665765,30.7890227 L22.1665765,35.9205265 L17.0512127,35.9205265 L17.0512127,30.7890227 Z M18.756334,32.499524 L18.756334,34.2100253 L20.4614553,34.2100253 L20.4614553,32.499524 L18.756334,32.499524 Z M30.6921829,30.7890227 L35.8075467,30.7890227 L35.8075467,35.9205265 L30.6921829,35.9205265 L30.6921829,30.7890227 Z M32.3973042,32.499524 L32.3973042,34.2100253 L34.1024254,34.2100253 L34.1024254,32.499524 L32.3973042,32.499524 Z M23.8716978,39.3415291 L23.8716978,42.7625316 L28.9870616,42.7625316 L28.9870616,39.3415291 L23.8716978,39.3415291 Z M5.11536381,17.1050126 L5.11536381,42.7625316 L13.6409702,42.7625316 L13.6409702,17.1050126 L5.11536381,17.1050126 Z M6.82048509,18.8155139 L11.9358489,18.8155139 L11.9358489,23.9470177 L6.82048509,23.9470177 L6.82048509,18.8155139 Z M8.52560636,20.5260152 L8.52560636,22.2365164 L10.2307276,22.2365164 L10.2307276,20.5260152 L8.52560636,20.5260152 Z M6.82048509,25.6575189 L11.9358489,25.6575189 L11.9358489,30.7890227 L6.82048509,30.7890227 L6.82048509,25.6575189 Z M8.52560636,27.3680202 L8.52560636,29.0785215 L10.2307276,29.0785215 L10.2307276,27.3680202 L8.52560636,27.3680202 Z M39.2177892,17.1050126 L39.2177892,42.7625316 L47.7433956,42.7625316 L47.7433956,17.1050126 L39.2177892,17.1050126 Z M40.9229105,18.8155139 L46.0382743,18.8155139 L46.0382743,23.9470177 L40.9229105,23.9470177 L40.9229105,18.8155139 Z M42.6280318,20.5260152 L42.6280318,22.2365164 L44.3331531,22.2365164 L44.3331531,20.5260152 L42.6280318,20.5260152 Z M40.9229105,25.6575189 L46.0382743,25.6575189 L46.0382743,30.7890227 L40.9229105,30.7890227 L40.9229105,25.6575189 Z M42.6280318,27.3680202 L42.6280318,29.0785215 L44.3331531,29.0785215 L44.3331531,27.3680202 L42.6280318,27.3680202 Z M40.9229105,32.499524 L46.0382743,32.499524 L46.0382743,37.6310278 L40.9229105,37.6310278 L40.9229105,32.499524 Z M42.6280318,34.2100253 L42.6280318,35.9205265 L44.3331531,35.9205265 L44.3331531,34.2100253 L42.6280318,34.2100253 Z M6.82048509,32.499524 L11.9358489,32.499524 L11.9358489,37.6310278 L6.82048509,37.6310278 L6.82048509,32.499524 Z M8.52560636,34.2100253 L8.52560636,35.9205265 L10.2307276,35.9205265 L10.2307276,34.2100253 L8.52560636,34.2100253 Z M23.8716978,30.7890227 L28.9870616,30.7890227 L28.9870616,35.9205265 L23.8716978,35.9205265 L23.8716978,30.7890227 Z M25.5768191,32.499524 L25.5768191,34.2100253 L27.2819403,34.2100253 L27.2819403,32.499524 L25.5768191,32.499524 Z" id="Shape"></path>
        </g>
    </g>
</svg>