<?xml version="1.0" encoding="UTF-8"?>
<svg width="57px" height="27px" viewBox="0 0 57 27" version="1.1" xmlns="http://www.w3.org/2000/svg" xmlns:xlink="http://www.w3.org/1999/xlink">
    <!-- Generator: Sketch 41.2 (35397) - http://www.bohemiancoding.com/sketch -->
    <title>Shape</title>
    <desc>Created with Sketch.</desc>
    <defs></defs>
    <g id="Symbols" stroke="none" stroke-width="1" fill="none" fill-rule="evenodd">
        <g id="7" fill="#81C780">
            <path d="M56.5119885,0 L56.5119885,7.08628686 L54.7459888,7.08628686 L54.7459888,26.5735757 L0,26.5735757 L0,14.1725737 L17.6599964,14.1725737 L17.6599964,7.08628686 L15.8939968,7.08628686 L15.8939968,0 L56.5119885,0 Z M19.425996,8.85785857 L52.9799892,8.85785857 L52.9799892,7.08628686 L19.425996,7.08628686 L19.425996,8.85785857 Z M17.6599964,1.77157171 L17.6599964,5.31471514 L54.7459888,5.31471514 L54.7459888,1.77157171 L17.6599964,1.77157171 Z M19.425996,24.802004 L31.7879935,24.802004 L31.7879935,23.0304323 L19.425996,23.0304323 L19.425996,24.802004 Z M52.9799892,10.6294303 L19.425996,10.6294303 L19.425996,21.26949 L31.7879935,21.2588606 L31.7879935,14.1725737 L40.6179917,14.1725737 L40.6179917,21.2588606 L52.9799892,21.2588606 L52.9799892,10.6294303 Z M52.9799892,24.802004 L52.9799892,23.0304323 L40.6179917,23.0304323 L40.6179917,24.802004 L52.9799892,24.802004 Z M38.8519921,24.802004 L38.8519921,15.9441454 L33.5539931,15.9441454 L33.5539931,24.802004 L38.8519921,24.802004 Z M21.1919957,12.401002 L30.0219939,12.401002 L30.0219939,19.4872889 L21.1919957,19.4872889 L21.1919957,12.401002 Z M22.9579953,14.1725737 L22.9579953,17.7157171 L28.2559942,17.7157171 L28.2559942,14.1725737 L22.9579953,14.1725737 Z M42.3839913,12.401002 L51.2139895,12.401002 L51.2139895,19.4872889 L42.3839913,19.4872889 L42.3839913,12.401002 Z M44.149991,14.1725737 L44.149991,17.7157171 L49.4479899,17.7157171 L49.4479899,14.1725737 L44.149991,14.1725737 Z M17.6599964,24.802004 L17.6599964,15.958318 L1.76599964,15.9441454 L1.76599964,24.802004 L3.53199928,24.802004 L3.53199928,17.7157171 L15.8939968,17.7298897 L15.8939968,24.802004 L17.6599964,24.802004 Z M14.1279971,23.0304323 L5.29799892,23.0304323 L5.29799892,24.802004 L14.1279971,24.802004 L14.1279971,23.0304323 Z M14.1279971,21.2588606 L14.1279971,19.4872889 L5.29799892,19.4872889 L5.29799892,21.2588606 L14.1279971,21.2588606 Z" id="Shape"></path>
        </g>
    </g>
</svg>