<?xml version="1.0" encoding="UTF-8"?>
<svg width="62px" height="37px" viewBox="0 0 62 37" version="1.1" xmlns="http://www.w3.org/2000/svg" xmlns:xlink="http://www.w3.org/1999/xlink">
    <!-- Generator: Sketch 41.2 (35397) - http://www.bohemiancoding.com/sketch -->
    <title>1</title>
    <desc>Created with Sketch.</desc>
    <defs></defs>
    <g id="Symbols" stroke="none" stroke-width="1" fill="none" fill-rule="evenodd">
        <g id="1" fill="#81C780">
            <path d="M45.2093023,33.5940345 L0,33.5940345 L0,21.8361224 L16.744186,21.8361224 L16.744186,13.4376138 L11.7209302,13.4376138 L18.4186047,5.03910517 L40.1860465,5.03910517 L40.1860465,0 L45.2093023,0 L45.2093023,5.03910517 L51.9069767,5.03910517 L58.6046512,13.4376138 L53.5813953,13.4376138 L53.5813953,18.476719 L51.9069767,18.476719 L51.9069767,16.7970172 L18.4186047,16.7970172 L18.4186047,28.5650075 L30.1395349,28.5549293 L30.1395349,20.1564207 L40.1860465,20.1564207 L40.1860465,28.5549293 L45.2093023,28.5549293 L45.2093023,33.5940345 Z M18.4186047,15.1173155 L51.9069767,15.1173155 L51.9069767,13.4376138 L18.4186047,13.4376138 L18.4186047,15.1173155 Z M20.0930233,6.71880689 L15.0697674,11.7579121 L55.255814,11.7579121 L50.2325581,6.71880689 L20.0930233,6.71880689 Z M18.4186047,31.9143327 L30.1395349,31.9143327 L30.1395349,30.234631 L18.4186047,30.234631 L18.4186047,31.9143327 Z M43.5348837,26.9143327 L43.5348837,25.234631 L40.1860465,25.234631 L40.1860465,26.9143327 L43.5348837,26.9143327 Z M38.5116279,31.9143327 L38.5116279,21.8361224 L31.8139535,21.8361224 L31.8139535,31.9143327 L38.5116279,31.9143327 Z M20.0930233,18.476719 L28.4651163,18.476719 L28.4651163,25.1955259 L20.0930233,25.1955259 L20.0930233,18.476719 Z M21.7674419,20.1564207 L21.7674419,23.5158241 L26.7906977,23.5158241 L26.7906977,20.1564207 L21.7674419,20.1564207 Z M41.8604651,25.1955259 L41.8604651,18.476719 L48.5581395,18.476719 L48.5581395,20.1564207 L43.5348837,20.1564207 L43.5348837,23.5158241 L48.5581395,23.5158241 L48.5581395,25.1955259 L41.8604651,25.1955259 Z M41.8604651,1.67970172 L41.8604651,5.03910517 L43.5348837,5.03910517 L43.5348837,1.67970172 L41.8604651,1.67970172 Z M54.4186047,20.1564207 C56.7304943,20.1564207 58.6046512,22.0364908 58.6046512,24.355675 C58.6046512,26.6748591 56.7304943,28.5549293 54.4186047,28.5549293 C52.106715,28.5549293 50.2325581,26.6748591 50.2325581,24.355675 C50.2325581,22.0364908 52.106715,20.1564207 54.4186047,20.1564207 L54.4186047,20.1564207 Z M54.4186047,21.8361224 C53.0314709,21.8361224 51.9069767,22.9641646 51.9069767,24.355675 C51.9069767,25.7471854 53.0314709,26.8752276 54.4186047,26.8752276 C55.8057384,26.8752276 56.9302326,25.7471854 56.9302326,24.355675 C56.9302326,22.9641646 55.8057384,21.8361224 54.4186047,21.8361224 Z M55.255814,28.5549293 C57.5380465,28.6053204 61.9534884,30.1540053 61.9534884,33.5940345 L61.9534884,36.9534379 L46.8837209,36.9534379 L46.8837209,33.5940345 C46.8837209,30.1170519 51.016186,28.7497747 53.5813953,28.5549293 L55.255814,28.5549293 Z M55.255814,30.234631 L53.5813953,30.234631 C53.5813953,30.234631 48.5447442,30.9434652 48.5581395,33.5940345 C48.5363721,34.4557215 48.5581395,35.2737362 48.5581395,35.2737362 L60.2790698,35.2737362 C60.2790698,35.2737362 60.2522791,34.9545929 60.2790698,33.5940345 C60.2706977,30.9787389 56.3391628,30.234631 55.255814,30.234631 Z M16.744186,31.9143327 L16.744186,23.5158241 L1.6744186,23.5158241 L1.6744186,31.9143327 L3.34883721,31.9143327 L3.34883721,25.1955259 L15.0697674,25.1955259 L15.0697674,31.9143327 L16.744186,31.9143327 Z M5.02325581,26.8752276 L5.02325581,28.5549293 L13.3953488,28.5549293 L13.3953488,26.8752276 L5.02325581,26.8752276 Z M5.02325581,31.9143327 L13.3953488,31.9143327 L13.3953488,30.234631 L5.02325581,30.234631 L5.02325581,31.9143327 Z" id="Shape"></path>
        </g>
    </g>
</svg>