<?xml version="1.0" encoding="UTF-8"?>
<svg width="30px" height="27px" viewBox="0 0 30 27" version="1.1" xmlns="http://www.w3.org/2000/svg" xmlns:xlink="http://www.w3.org/1999/xlink">
    <!-- Generator: Sketch 43 (38999) - http://www.bohemiancoding.com/sketch -->
    <title>noun_796585_cc (1)</title>
    <desc>Created with Sketch.</desc>
    <defs></defs>
    <g id="Page-1" stroke="none" stroke-width="1" fill="none" fill-rule="evenodd">
        <g id="noun_796585_cc-(1)" fill-rule="nonzero" fill="#92C37C">
            <path d="M19,27 L19,14 L11,14 L11,27 L0,27 L0,8 L3,8 L3,4 L5,4 L5,0 L6,0 L6,4 L8,4 L8,8 L11,8 L11,13 L19,13 L19,8 L22,8 L22,4 L24,4 L24,0 L25,0 L25,4 L27,4 L27,8 L30,8 L30,27 L19,27 Z M10,26 L10,9 L1,9 L1,26 L4,26 L4,22 L7,22 L7,26 L10,26 Z M2,10 L5,10 L5,13 L2,13 L2,10 Z M3,11 L3,12 L4,12 L4,11 L3,11 Z M2,14 L5,14 L5,17 L2,17 L2,14 Z M3,15 L3,16 L4,16 L4,15 L3,15 Z M2,18 L5,18 L5,21 L2,21 L2,18 Z M3,19 L3,20 L4,20 L4,19 L3,19 Z M6,10 L9,10 L9,13 L6,13 L6,10 Z M7,11 L7,12 L8,12 L8,11 L7,11 Z M6,14 L9,14 L9,17 L6,17 L6,14 Z M7,15 L7,16 L8,16 L8,15 L7,15 Z M6,18 L9,18 L9,21 L6,21 L6,18 Z M7,19 L7,20 L8,20 L8,19 L7,19 Z M5,23 L5,26 L6,26 L6,23 L5,23 Z M4,5 L4,8 L7,8 L7,5 L4,5 Z M29,26 L29,9 L20,9 L20,26 L23,26 L23,22 L26,22 L26,26 L29,26 Z M21,10 L24,10 L24,13 L21,13 L21,10 Z M22,11 L22,12 L23,12 L23,11 L22,11 Z M21,14 L24,14 L24,17 L21,17 L21,14 Z M22,15 L22,16 L23,16 L23,15 L22,15 Z M21,18 L24,18 L24,21 L21,21 L21,18 Z M22,19 L22,20 L23,20 L23,19 L22,19 Z M25,10 L28,10 L28,13 L25,13 L25,10 Z M26,11 L26,12 L27,12 L27,11 L26,11 Z M25,14 L28,14 L28,17 L25,17 L25,14 Z M26,15 L26,16 L27,16 L27,15 L26,15 Z M25,18 L28,18 L28,21 L25,21 L25,18 Z M26,19 L26,20 L27,20 L27,19 L26,19 Z M24,23 L24,26 L25,26 L25,23 L24,23 Z M23,5 L23,8 L26,8 L26,5 L23,5 Z" id="Shape"></path>
        </g>
    </g>
</svg>