<?xml version="1.0" encoding="UTF-8"?>
<svg width="32px" height="15px" viewBox="0 0 32 15" version="1.1" xmlns="http://www.w3.org/2000/svg" xmlns:xlink="http://www.w3.org/1999/xlink">
    <!-- Generator: Sketch 43 (38999) - http://www.bohemiancoding.com/sketch -->
    <title>noun_796601_cc (1)</title>
    <desc>Created with Sketch.</desc>
    <defs></defs>
    <g id="Page-1" stroke="none" stroke-width="1" fill="none" fill-rule="evenodd">
        <g id="noun_796601_cc-(1)" fill-rule="nonzero" fill="#92C37C">
            <path d="M32,0 L32,4 L31,4 L31,15 L0,15 L0,8 L10,8 L10,4 L9,4 L9,0 L32,0 Z M11,5 L30,5 L30,4 L11,4 L11,5 Z M10,1 L10,3 L31,3 L31,1 L10,1 Z M11,14 L18,14 L18,13 L11,13 L11,14 Z M30,6 L11,6 L11,12.006 L18,12 L18,8 L23,8 L23,12 L30,12 L30,6 Z M30,14 L30,13 L23,13 L23,14 L30,14 Z M22,14 L22,9 L19,9 L19,14 L22,14 Z M12,7 L17,7 L17,11 L12,11 L12,7 Z M13,8 L13,10 L16,10 L16,8 L13,8 Z M24,7 L29,7 L29,11 L24,11 L24,7 Z M25,8 L25,10 L28,10 L28,8 L25,8 Z M10,14 L10,9.008 L1,9 L1,14 L2,14 L2,10 L9,10.008 L9,14 L10,14 Z M8,13 L3,13 L3,14 L8,14 L8,13 Z M8,12 L8,11 L3,11 L3,12 L8,12 Z" id="Shape"></path>
        </g>
    </g>
</svg>