<?xml version="1.0" encoding="UTF-8"?>
<svg width="51px" height="46px" viewBox="0 0 51 46" version="1.1" xmlns="http://www.w3.org/2000/svg" xmlns:xlink="http://www.w3.org/1999/xlink">
    <!-- Generator: Sketch 41.2 (35397) - http://www.bohemiancoding.com/sketch -->
    <title>Shape</title>
    <desc>Created with Sketch.</desc>
    <defs></defs>
    <g id="Symbols" stroke="none" stroke-width="1" fill="none" fill-rule="evenodd">
        <g id="5" fill="#81C780">
            <path d="M31.8139535,45.3519465 L31.8139535,23.5158241 L18.4186047,23.5158241 L18.4186047,45.3519465 L0,45.3519465 L0,13.4376138 L5.02325581,13.4376138 L5.02325581,6.71880689 L8.37209302,6.71880689 L8.37209302,5.68434189e-14 L10.0465116,5.68434189e-14 L10.0465116,6.71880689 L13.3953488,6.71880689 L13.3953488,13.4376138 L18.4186047,13.4376138 L18.4186047,21.8361224 L31.8139535,21.8361224 L31.8139535,13.4376138 L36.8372093,13.4376138 L36.8372093,6.71880689 L40.1860465,6.71880689 L40.1860465,5.68434189e-14 L41.8604651,5.68434189e-14 L41.8604651,6.71880689 L45.2093023,6.71880689 L45.2093023,13.4376138 L50.2325581,13.4376138 L50.2325581,45.3519465 L31.8139535,45.3519465 Z M16.744186,43.6722448 L16.744186,15.1173155 L1.6744186,15.1173155 L1.6744186,43.6722448 L6.69767442,43.6722448 L6.69767442,36.9534379 L11.7209302,36.9534379 L11.7209302,43.6722448 L16.744186,43.6722448 Z M3.34883721,16.7970172 L8.37209302,16.7970172 L8.37209302,21.8361224 L3.34883721,21.8361224 L3.34883721,16.7970172 Z M5.02325581,18.476719 L5.02325581,20.1564207 L6.69767442,20.1564207 L6.69767442,18.476719 L5.02325581,18.476719 Z M3.34883721,23.5158241 L8.37209302,23.5158241 L8.37209302,28.5549293 L3.34883721,28.5549293 L3.34883721,23.5158241 Z M5.02325581,25.1955259 L5.02325581,26.8752276 L6.69767442,26.8752276 L6.69767442,25.1955259 L5.02325581,25.1955259 Z M3.34883721,30.234631 L8.37209302,30.234631 L8.37209302,35.2737362 L3.34883721,35.2737362 L3.34883721,30.234631 Z M5.02325581,31.9143327 L5.02325581,33.5940345 L6.69767442,33.5940345 L6.69767442,31.9143327 L5.02325581,31.9143327 Z M10.0465116,16.7970172 L15.0697674,16.7970172 L15.0697674,21.8361224 L10.0465116,21.8361224 L10.0465116,16.7970172 Z M11.7209302,18.476719 L11.7209302,20.1564207 L13.3953488,20.1564207 L13.3953488,18.476719 L11.7209302,18.476719 Z M10.0465116,23.5158241 L15.0697674,23.5158241 L15.0697674,28.5549293 L10.0465116,28.5549293 L10.0465116,23.5158241 Z M11.7209302,25.1955259 L11.7209302,26.8752276 L13.3953488,26.8752276 L13.3953488,25.1955259 L11.7209302,25.1955259 Z M10.0465116,30.234631 L15.0697674,30.234631 L15.0697674,35.2737362 L10.0465116,35.2737362 L10.0465116,30.234631 Z M11.7209302,31.9143327 L11.7209302,33.5940345 L13.3953488,33.5940345 L13.3953488,31.9143327 L11.7209302,31.9143327 Z M8.37209302,38.6331396 L8.37209302,43.6722448 L10.0465116,43.6722448 L10.0465116,38.6331396 L8.37209302,38.6331396 Z M6.69767442,8.39850862 L6.69767442,13.4376138 L11.7209302,13.4376138 L11.7209302,8.39850862 L6.69767442,8.39850862 Z M48.5581395,43.6722448 L48.5581395,15.1173155 L33.4883721,15.1173155 L33.4883721,43.6722448 L38.5116279,43.6722448 L38.5116279,36.9534379 L43.5348837,36.9534379 L43.5348837,43.6722448 L48.5581395,43.6722448 Z M35.1627907,16.7970172 L40.1860465,16.7970172 L40.1860465,21.8361224 L35.1627907,21.8361224 L35.1627907,16.7970172 Z M36.8372093,18.476719 L36.8372093,20.1564207 L38.5116279,20.1564207 L38.5116279,18.476719 L36.8372093,18.476719 Z M35.1627907,23.5158241 L40.1860465,23.5158241 L40.1860465,28.5549293 L35.1627907,28.5549293 L35.1627907,23.5158241 Z M36.8372093,25.1955259 L36.8372093,26.8752276 L38.5116279,26.8752276 L38.5116279,25.1955259 L36.8372093,25.1955259 Z M35.1627907,30.234631 L40.1860465,30.234631 L40.1860465,35.2737362 L35.1627907,35.2737362 L35.1627907,30.234631 Z M36.8372093,31.9143327 L36.8372093,33.5940345 L38.5116279,33.5940345 L38.5116279,31.9143327 L36.8372093,31.9143327 Z M41.8604651,16.7970172 L46.8837209,16.7970172 L46.8837209,21.8361224 L41.8604651,21.8361224 L41.8604651,16.7970172 Z M43.5348837,18.476719 L43.5348837,20.1564207 L45.2093023,20.1564207 L45.2093023,18.476719 L43.5348837,18.476719 Z M41.8604651,23.5158241 L46.8837209,23.5158241 L46.8837209,28.5549293 L41.8604651,28.5549293 L41.8604651,23.5158241 Z M43.5348837,25.1955259 L43.5348837,26.8752276 L45.2093023,26.8752276 L45.2093023,25.1955259 L43.5348837,25.1955259 Z M41.8604651,30.234631 L46.8837209,30.234631 L46.8837209,35.2737362 L41.8604651,35.2737362 L41.8604651,30.234631 Z M43.5348837,31.9143327 L43.5348837,33.5940345 L45.2093023,33.5940345 L45.2093023,31.9143327 L43.5348837,31.9143327 Z M40.1860465,38.6331396 L40.1860465,43.6722448 L41.8604651,43.6722448 L41.8604651,38.6331396 L40.1860465,38.6331396 Z M38.5116279,8.39850862 L38.5116279,13.4376138 L43.5348837,13.4376138 L43.5348837,8.39850862 L38.5116279,8.39850862 Z" id="Shape"></path>
        </g>
    </g>
</svg>