<?xml version="1.0" encoding="UTF-8"?>
<svg width="43px" height="21px" viewBox="0 0 43 21" version="1.1" xmlns="http://www.w3.org/2000/svg" xmlns:xlink="http://www.w3.org/1999/xlink">
    <!-- Generator: Sketch 43 (38999) - http://www.bohemiancoding.com/sketch -->
    <title>noun_796588_cc (1)</title>
    <desc>Created with Sketch.</desc>
    <defs></defs>
    <g id="Page-1" stroke="none" stroke-width="1" fill="none" fill-rule="evenodd">
        <g id="noun_796588_cc-(1)" fill-rule="nonzero" fill="#92C37C">
            <path d="M0,21 L0,20 L2,20 L2,0 L17,0 L16.966,4 L25.98,4 L26,0 L41,0 L41,20 L43,20 L43,21 L0,21 Z M26,20 L26,5 L17,5 L17,20 L26,20 Z M16,20 L16,1 L3,1 L3,20 L7,20 L7,15 L12,15 L12,20 L16,20 Z M40,20 L40,1 L27,1 L27,20 L31,20 L31,15 L36,15 L36,20 L40,20 Z M28,2 L31,2 L31,5 L28,5 L28,2 Z M29,3 L29,4 L30,4 L30,3 L29,3 Z M32,2 L35,2 L35,5 L32,5 L32,2 Z M33,3 L33,4 L34,4 L34,3 L33,3 Z M28,6 L31,6 L31,9 L28,9 L28,6 Z M29,7 L29,8 L30,8 L30,7 L29,7 Z M32,6 L35,6 L35,9 L32,9 L32,6 Z M33,7 L33,8 L34,8 L34,7 L33,7 Z M28,10 L31,10 L31,13 L28,13 L28,10 Z M29,11 L29,12 L30,12 L30,11 L29,11 Z M32,10 L35,10 L35,13 L32,13 L32,10 Z M33,11 L33,12 L34,12 L34,11 L33,11 Z M18,6 L21,6 L21,9 L18,9 L18,6 Z M19,7 L19,8 L20,8 L20,7 L19,7 Z M22,6 L25,6 L25,9 L22,9 L22,6 Z M23,7 L23,8 L24,8 L24,7 L23,7 Z M18,10 L21,10 L21,13 L18,13 L18,10 Z M19,11 L19,12 L20,12 L20,11 L19,11 Z M22,10 L25,10 L25,13 L22,13 L22,10 Z M23,11 L23,12 L24,12 L24,11 L23,11 Z M18,14 L21,14 L21,17 L18,17 L18,14 Z M19,15 L19,16 L20,16 L20,15 L19,15 Z M22,14 L25,14 L25,17 L22,17 L22,14 Z M23,15 L23,16 L24,16 L24,15 L23,15 Z M36,2 L39,2 L39,5 L36,5 L36,2 Z M37,3 L37,4 L38,4 L38,3 L37,3 Z M36,6 L39,6 L39,9 L36,9 L36,6 Z M37,7 L37,8 L38,8 L38,7 L37,7 Z M36,10 L39,10 L39,13 L36,13 L36,10 Z M37,11 L37,12 L38,12 L38,11 L37,11 Z M4,2 L7,2 L7,5 L4,5 L4,2 Z M5,3 L5,4 L6,4 L6,3 L5,3 Z M8,2 L11,2 L11,5 L8,5 L8,2 Z M9,3 L9,4 L10,4 L10,3 L9,3 Z M4,6 L7,6 L7,9 L4,9 L4,6 Z M5,7 L5,8 L6,8 L6,7 L5,7 Z M8,6 L11,6 L11,9 L8,9 L8,6 Z M9,7 L9,8 L10,8 L10,7 L9,7 Z M4,10 L7,10 L7,13 L4,13 L4,10 Z M5,11 L5,12 L6,12 L6,11 L5,11 Z M8,10 L11,10 L11,13 L8,13 L8,10 Z M9,11 L9,12 L10,12 L10,11 L9,11 Z M12,2 L15,2 L15,5 L12,5 L12,2 Z M13,3 L13,4 L14,4 L14,3 L13,3 Z M12,6 L15,6 L15,9 L12,9 L12,6 Z M13,7 L13,8 L14,8 L14,7 L13,7 Z M12,10 L15,10 L15,13 L12,13 L12,10 Z M13,11 L13,12 L14,12 L14,11 L13,11 Z M8,16 L8,20 L11,20 L11,16 L8,16 Z M32,16 L32,20 L35,20 L35,16 L32,16 Z" id="Shape"></path>
        </g>
    </g>
</svg>