<?xml version="1.0" encoding="UTF-8"?>
<svg width="42px" height="41px" viewBox="0 0 42 41" version="1.1" xmlns="http://www.w3.org/2000/svg" xmlns:xlink="http://www.w3.org/1999/xlink">
    <!-- Generator: Sketch 41.2 (35397) - http://www.bohemiancoding.com/sketch -->
    <title>Shape</title>
    <desc>Created with Sketch.</desc>
    <defs></defs>
    <g id="Symbols" stroke="none" stroke-width="1" fill="none" fill-rule="evenodd">
        <g id="6" fill="#81C780">
            <path d="M41.8604651,10.0782103 L41.8604651,40.3128414 L0,40.3128414 L0,10.0782103 L3.34883721,10.0782103 L3.34883721,0 L8.38213953,0 L8.37209302,10.0782103 L10.0465116,10.0782103 L10.0465116,5.03910517 L15.0898605,5.03910517 L15.0697674,10.0782103 L41.8604651,10.0782103 Z M1.6744186,38.6331396 L40.1860465,38.6331396 L40.1860465,11.7579121 L1.6744186,11.7579121 L1.6744186,38.6331396 Z M5.02325581,15.1173155 L13.3953488,15.1173155 L13.3953488,23.5158241 L5.02325581,23.5158241 L5.02325581,15.1173155 Z M6.69767442,16.7970172 L6.69767442,21.8361224 L11.7209302,21.8361224 L11.7209302,16.7970172 L6.69767442,16.7970172 Z M5.02325581,26.8752276 L13.3953488,26.8752276 L13.3953488,35.2737362 L5.02325581,35.2737362 L5.02325581,26.8752276 Z M6.69767442,28.5549293 L6.69767442,33.5940345 L11.7209302,33.5940345 L11.7209302,28.5549293 L6.69767442,28.5549293 Z M16.744186,15.1173155 L25.1162791,15.1173155 L25.1162791,23.5158241 L16.744186,23.5158241 L16.744186,15.1173155 Z M18.4186047,16.7970172 L18.4186047,21.8361224 L23.4418605,21.8361224 L23.4418605,16.7970172 L18.4186047,16.7970172 Z M16.744186,26.8752276 L25.1162791,26.8752276 L25.1162791,35.2737362 L16.744186,35.2737362 L16.744186,26.8752276 Z M18.4186047,28.5549293 L18.4186047,33.5940345 L23.4418605,33.5940345 L23.4418605,28.5549293 L18.4186047,28.5549293 Z M28.4651163,15.1173155 L36.8372093,15.1173155 L36.8372093,23.5158241 L28.4651163,23.5158241 L28.4651163,15.1173155 Z M30.1395349,16.7970172 L30.1395349,21.8361224 L35.1627907,21.8361224 L35.1627907,16.7970172 L30.1395349,16.7970172 Z M5.02325581,1.67970172 L5.02325581,10.0782103 L6.69767442,10.0782103 L6.69767442,1.67970172 L5.02325581,1.67970172 Z M11.7209302,6.71880689 L11.7209302,10.0782103 L13.3953488,10.0782103 L13.3953488,6.71880689 L11.7209302,6.71880689 Z M28.4651163,26.8752276 L36.8372093,26.8752276 L36.8372093,35.2737362 L28.4651163,35.2737362 L28.4651163,26.8752276 Z M30.1395349,28.5549293 L30.1395349,33.5940345 L35.1627907,33.5940345 L35.1627907,28.5549293 L30.1395349,28.5549293 Z" id="Shape"></path>
        </g>
    </g>
</svg>