<?xml version="1.0" encoding="UTF-8"?><svg width="161" height="113" viewBox="0 0 161 113" xmlns="http://www.w3.org/2000/svg" xmlns:xlink="http://www.w3.org/1999/xlink"><svg width="41" height="32" viewBox="0 0 41 32" id="L1VzZXJzL2t1a2tvbWFoL3Byb2plY3RzL2lzdC1mcm9udGVuZC9zcmMvbW9kdWxlcy9jaG9vc2UvaWNvbnMvc3ByaXRlLWljb240LnN2Zw==" x="90"><title>sprite-icon4</title><path d="M17.456.06c-1.736.257-2.059.588-2.059 2.075V3.22l-.93.312c-1.558.514-3.993 1.928-5.515 3.158-1.862 1.543-3.58 3.746-4.655 6.023-1.45 3.03-1.647 4.004-1.737 8.319l-.09 3.728-.859.44C.645 25.695 0 26.43 0 27.017c0 1.561 3.205 2.81 9.131 3.581 12.443 1.634 29.094.257 31.421-2.59.931-1.138.394-2.11-1.611-3.01l-1.164-.515V21.71c0-3.213-.179-4.517-.93-6.85a17.857 17.857 0 0 0-5.605-8.226c-1.504-1.23-3.813-2.57-5.407-3.103l-.949-.312v-.973c0-1.268-.107-1.506-.77-1.873-.43-.22-1.217-.294-3.347-.35-1.522-.018-3.008 0-3.313.037zm6.016 1.671c.125.129-1.003 13.075-1.182 13.589-.053.184-.662.239-2.238.239-1.181 0-2.148-.055-2.148-.11 0-.074-.287-3.14-.627-6.832-.358-3.69-.573-6.775-.501-6.849.072-.073.555-.184 1.038-.22 1.29-.129 5.497.018 5.658.183zm-7.896 3.122c0 .092.251 2.7.538 5.84.447 4.682.59 5.729.841 5.912.43.33 5.944.33 6.374 0 .268-.183.412-1.175.86-6.004.304-3.177.572-5.821.608-5.858.161-.165 2.81.973 3.957 1.708l1.235.77-.09 1.543c-.053.863-.089 2.516-.089 3.673 0 2.002.036 2.185.573 3.36 1.092 2.35 2.81 3.93 5.067 4.628l1.074.33v3.398l-1.11-.24c-5.264-1.12-16.131-1.505-23.597-.825-2.041.183-6.66.918-7.663 1.211-.412.129-.412.11-.358-1.67l.053-1.8 1.182-.404c2.166-.735 3.885-2.314 4.87-4.462.555-1.176.573-1.322.573-3.526 0-1.267-.072-2.92-.143-3.691l-.144-1.414 1.182-.753c1.128-.734 3.51-1.836 3.993-1.854.107 0 .214.055.214.128zM9.185 12.07c.036 2.442-.358 3.562-1.755 5.105-.895 1.01-2.542 2.056-3.205 2.056-.394 0-.358-.66.072-2.552.627-2.644 2.023-5.344 3.76-7.254l.805-.881.144.79c.071.44.16 1.67.179 2.736zm23.58-1.91c.59.753 1.342 1.873 1.682 2.516.788 1.45 1.665 4.113 1.826 5.582l.126 1.157-.842-.294c-2.04-.716-3.616-2.387-4.26-4.554-.323-1.083-.359-1.524-.252-3.048.126-2.167.269-2.975.502-2.828.09.055.644.716 1.217 1.469zm-5.372 14.213c5.8.422 10.259 1.267 11.799 2.222.555.349.573.385.304.698-.627.716-4.279 1.616-8.612 2.13-3.401.404-13.034.569-17.008.294-3.545-.258-7.466-.808-9.472-1.323-1.665-.44-3.007-1.046-2.918-1.34.304-.955 6.07-2.24 11.852-2.663 3.134-.22 11.047-.22 14.055-.018z" fill="#77AE0E" fill-rule="evenodd"/></svg><svg width="39" height="37" viewBox="0 0 39 37" id="L1VzZXJzL2t1a2tvbWFoL3Byb2plY3RzL2lzdC1mcm9udGVuZC9zcmMvbW9kdWxlcy9jaG9vc2UvaWNvbnMvc3ByaXRlLWljb241LnN2Zw==" x="90" y="32"><title>sprite-icon5</title><g fill="#77AE0E" fill-rule="evenodd"><path d="M3.84.145C2.394.598 1.109 1.68.466 2.99l-.402.808-.048 14.412c-.032 14.186-.032 14.412.29 15.285.658 1.761 2.216 3.021 4.176 3.328.675.113 6.748.178 17.399.178h16.338V4.686H5.767V0l-.755.016c-.433 0-.947.065-1.172.13zm.723 13.75v12.506l-.61.13c-.74.16-1.479.532-2.122 1.066L1.35 28l-.048-11.859-.032-11.86.402-.823c.225-.469.658-1.034.964-1.26.626-.485 1.526-.922 1.767-.84.112.032.16 4.345.16 12.537zm32.371-7.917v29.73H20.901c-17.752 0-17.03.048-18.298-1.05-.932-.792-1.334-1.713-1.334-3.006 0-1.309.37-2.149 1.334-2.99.787-.694 1.622-1.033 2.586-1.033h.578V5.979h31.167z"/><path d="M17.142 10.736l-.049 2.036-.53.177c-.77.259-1.59.986-1.992 1.761-.53 1.018-.514 2.537.048 3.507.241.404.579.856.755 1.017.306.275.306.291-.032 2.263l-.353 1.97-1.317.05-1.318.048v1.276h2.41l-.096.436c-.049.259-.386 2.182-.772 4.282l-.674 3.813.546.113c.305.049.578.065.626.032.033-.048.402-1.987.836-4.33l.755-4.265 1.863-.049 1.848-.048.257 1.406c.145.775.498 2.746.787 4.378l.514 2.99.547-.098c.305-.048.578-.113.61-.145.032-.032-.257-1.874-.659-4.088-.401-2.213-.723-4.12-.723-4.233 0-.13.354-.194 1.205-.194h1.205v-1.293H20.74l-.257-1.502a76.983 76.983 0 0 1-.37-2.02c-.08-.452 0-.63.402-1.05 1.864-1.939 1.028-5.203-1.542-6.107l-.514-.178V8.684h-1.27l-.047 2.052zm2.008 3.587c1.333.888 1.51 2.682.37 3.813-.274.29-.595.55-.708.581-.16.049-.112.55.21 2.246.224 1.196.4 2.278.4 2.375 0 .162-.433.21-1.606.21-1.59 0-1.606 0-1.526-.371.145-.646.723-4.056.723-4.233 0-.097-.225-.307-.482-.453-.578-.355-1.124-1.357-1.124-2.084 0-.743.465-1.6 1.108-2.02.69-.468 1.976-.5 2.635-.064zM27.456 8.959v21.004l.9 1.81.915 1.825.932-1.858.931-1.858v-10.47l.017-10.453h-3.695zm2.41 13.28c-.017 6.82-.033 7.53-.29 8.015l-.289.533-.273-.582c-.241-.517-.273-1.34-.273-7.998v-7.432h1.124v7.465z"/></g></svg><svg width="47" height="47" viewBox="0 0 47 47" id="L1VzZXJzL2t1a2tvbWFoL3Byb2plY3RzL2lzdC1mcm9udGVuZC9zcmMvbW9kdWxlcy9jaG9vc2UvaWNvbnMvc3ByaXRlLWljb24xLnN2Zw=="><title>sprite-icon1</title><g fill="#77AE0E" fill-rule="evenodd"><path d="M25.14.075c1.44.132 3.562.673 4.916 1.238 2.254.962 4.005 2.176 5.768 4.027 2.35 2.452 3.824 5.361 4.484 8.847.275 1.455.275 4.291 0 5.83-.36 2.008-1.32 4.46-2.482 6.37l-.264.422 4.664 6.731c2.878 4.16 4.664 6.84 4.664 7.02 0 .601-.18.59-4.22-.192-2.087-.409-3.825-.721-3.849-.697-.036.024-.504 1.622-1.043 3.534-.552 1.923-1.031 3.546-1.08 3.618-.083.144-.539.156-.73.024-.06-.048-1.943-2.945-4.185-6.455-2.23-3.51-4.113-6.443-4.196-6.527-.12-.133-.336-.12-1.211.048-1.44.276-4.269.288-5.792.012-.91-.169-1.15-.18-1.234-.06-.048.084-1.943 3.053-4.197 6.587-3.525 5.493-4.16 6.43-4.424 6.467-.168.024-.36-.036-.432-.12-.072-.084-.575-1.72-1.127-3.643a177.452 177.452 0 0 0-1.019-3.522c-.012-.024-1.667.289-3.669.686-1.99.408-3.777.733-3.956.733a.52.52 0 0 1-.468-.253c-.156-.3-.42.097 5.515-8.462l3.825-5.53-.3-.48c-1.103-1.815-1.954-3.93-2.386-5.95-.311-1.43-.311-5.025-.012-6.515.792-3.92 2.986-7.585 5.995-10.025A17.285 17.285 0 0 1 25.141.075zm-4.484 1.262C14.35 2.395 9.194 7.42 7.791 13.887c-.311 1.442-.311 4.928 0 6.37.66 3.018 2.063 5.698 4.137 7.85 2.362 2.464 5.06 3.955 8.429 4.664 1.618.348 4.436.372 6.007.072 3.273-.65 6.126-2.164 8.416-4.472a16.073 16.073 0 0 0 4.46-8.522c.264-1.443.264-4.111 0-5.554C38.222 8.634 34.218 3.91 28.846 2.01c-2.673-.937-5.311-1.154-8.189-.673zm12.985 29.45c-1.103.818-3.081 1.9-4.28 2.332-.48.169-.72.325-.671.41.503.828 7.17 11.226 7.29 11.346.107.12.311-.468 1.019-2.945.48-1.707.97-3.197 1.079-3.317.203-.217.323-.205 3.597.457 1.858.372 3.405.66 3.429.637.036-.048-1.583-2.417-6.63-9.677l-1.595-2.308-1.115 1.154c-.6.625-1.56 1.49-2.123 1.911zM5.85 33.805c-2.242 3.257-4.053 5.926-4.005 5.926.048 0 1.583-.3 3.406-.661 2.385-.481 3.393-.638 3.549-.553.155.084.443.95 1.09 3.221.48 1.707.912 3.137.96 3.198.048.048 1.75-2.513 3.777-5.686 2.038-3.186 3.68-5.806 3.656-5.83-.024-.024-.467-.204-.983-.409-2.362-.937-4.1-2.103-5.899-3.918-.731-.746-1.355-1.31-1.39-1.275-.036.036-1.919 2.741-4.161 5.987z"/><path d="M21.97 12.549c-1.379.42-1.978 1.406-2.134 3.498-.18 2.368.192 4.387.923 5.072.684.65 1.055.757 2.542.757 1.187 0 1.45-.036 1.858-.264 1.02-.54 1.44-1.358 1.643-3.21.156-1.406.024-3.16-.336-4.183-.24-.72-1.043-1.454-1.786-1.646-.588-.145-2.23-.157-2.71-.024zm2.29 1.755c.432.384.54.985.54 2.885 0 2.08-.12 2.596-.708 2.957-.647.396-1.558.24-1.93-.325-.42-.65-.528-3.63-.168-4.892.168-.637.696-.95 1.463-.89.312.024.671.144.803.265zM30.363 12.549c-1.379.42-1.978 1.406-2.134 3.498-.18 2.368.192 4.387.923 5.072.683.65 1.055.757 2.542.757 1.187 0 1.45-.036 1.858-.264 1.02-.54 1.44-1.358 1.643-3.21.156-1.406.024-3.16-.336-4.183-.24-.72-1.043-1.454-1.786-1.646-.588-.145-2.23-.157-2.71-.024zm2.29 1.755c.432.384.54.985.54 2.885 0 2.08-.12 2.596-.708 2.957-.647.396-1.558.24-1.93-.325-.42-.65-.528-3.63-.168-4.892.168-.637.695-.95 1.463-.89.311.024.671.144.803.265zM12.39 12.865c0 .253.036.637.072.842l.084.372h2.014c1.116 0 2.027.024 2.027.048 0 .036-.06.205-.132.397-.072.18-.636 1.767-1.247 3.522a209.287 209.287 0 0 1-1.2 3.39c-.071.192.013.216.948.216.564 0 1.031-.024 1.031-.048s.612-1.851 1.367-4.05a965.121 965.121 0 0 0 1.45-4.28c.049-.204-.011-.349-.227-.577l-.3-.3H12.39v.468z"/></g></svg><svg width="37" height="36" viewBox="0 0 37 36" id="L1VzZXJzL2t1a2tvbWFoL3Byb2plY3RzL2lzdC1mcm9udGVuZC9zcmMvbW9kdWxlcy9jaG9vc2UvaWNvbnMvc3ByaXRlLWljb24yLnN2Zw==" y="77"><title>sprite-icon2</title><g fill="#77AE0E" fill-rule="evenodd"><path d="M.502 36.251a.831.831 0 0 1-.4-.443C.016 35.6-.008 29.721.004 18.96.04 3.291.053 2.43.265 2.221.477 2.012 1.338 2 17.692 2c16.355 0 17.216.012 17.428.221.212.21.224 1.046.224 16.935 0 15.89-.012 16.726-.224 16.935-.212.21-1.086.221-17.278.246C7.75 36.35.677 36.312.502 36.251zm33.532-17.095V3.291H1.35v31.73h32.684V19.156z"/><path d="M9.53 8.289l-1.546 1.5-.798-.762c-.437-.419-.886-.763-.998-.763-.262 0-.7.443-.7.713 0 .111.487.701 1.099 1.292.786.775 1.172 1.07 1.41 1.07.236 0 .748-.43 2.145-1.82 1.01-1.009 1.834-1.919 1.834-2.03 0-.27-.437-.7-.711-.7-.112 0-.898.676-1.734 1.5zM14.995 8.97c-.187.185-.187.75 0 .935.212.21 14.333.21 14.545 0 .188-.184.188-.75 0-.935-.212-.209-14.333-.209-14.545 0zM9.456 15.423l-1.46 1.439-.748-.701c-.786-.738-1.198-.874-1.56-.505-.361.345-.224.665.712 1.612 1.01 1.045 1.472 1.34 1.808 1.156.387-.21 3.768-3.653 3.768-3.85 0-.098-.1-.27-.225-.381-.486-.43-.773-.27-2.295 1.23zM14.995 15.98c-.187.185-.187.75 0 .935.212.21 14.333.21 14.545 0 .188-.184.188-.75 0-.934-.212-.21-14.333-.21-14.545 0zM14.995 22.99c-.187.185-.187.75 0 .935.212.21 14.333.21 14.545 0 .188-.184.188-.75 0-.934-.212-.21-14.333-.21-14.545 0zM9.419 28.802l-1.51 1.476-.736-.738c-.45-.442-.848-.738-1.01-.738-.375 0-.724.419-.637.763.1.381 2.109 2.312 2.408 2.312.212 0 3.693-3.296 3.93-3.726.187-.332-.175-.824-.6-.824-.249 0-.673.344-1.845 1.475zM14.995 29.263c-.187.184-.187.75 0 .934.212.21 14.333.21 14.545 0 .188-.184.188-.75 0-.934-.212-.21-14.333-.21-14.545 0z"/></g></svg><svg width="43" height="30" viewBox="0 0 43 30" id="L1VzZXJzL2t1a2tvbWFoL3Byb2plY3RzL2lzdC1mcm9udGVuZC9zcmMvbW9kdWxlcy9jaG9vc2UvaWNvbnMvc3ByaXRlLWljb24zLnN2Zw==" y="47"><title>sprite-icon3</title><g fill="#77AE0E" fill-rule="evenodd"><path d="M4.234.067C2.67.307 1.131 1.527.421 3.08l-.355.777-.04 10.781C-.014 25.138 0 25.433.263 26.29c.487 1.62 1.683 2.84 3.274 3.348.816.268 1.184.268 19.935.268 17.608 0 19.12-.014 19.278-.228.158-.174.184-2.29.184-12.495 0-10.206-.026-12.322-.184-12.496-.158-.214-1.473-.228-16.385-.228H10.152l-.158-.67C9.415 1.326 6.812-.361 4.234.068zm2.63 1.808c.382.227.894.656 1.118.964.828 1.098.828 1.085.828 10.165v8.223l-.552-.482c-.868-.763-1.801-1.071-3.195-1.071-1.013-.014-1.302.04-1.933.348-.421.2-.973.522-1.223.723l-.46.348V4.26l.315-.67c.381-.844 1.355-1.741 2.17-2.009.92-.308 2.09-.188 2.932.295zm34.69 3.924v22.768L22.92 28.54C4.274 28.5 4.274 28.5 3.67 28.218c-1.854-.884-2.67-2.826-1.999-4.821.276-.844 1.25-1.822 2.09-2.116.921-.322 2.092-.281 2.88.107 1.197.562 2.17 2.05 2.17 3.295 0 .535.434.884.895.723l.355-.12.026-9.577c.026-5.263.066-9.656.105-9.75.04-.12 3.314-.16 15.714-.16h15.649z"/><path d="M24.459 8.533c-1.157.662-1.368.962-1.013 1.425.263.337.776.287 1.552-.175.605-.35.736-.388.96-.25.802.475 1.42.725 1.67.662.368-.1.578-.562.394-.887-.197-.35-1.933-1.275-2.353-1.262-.198 0-.737.225-1.21.487zM19.172 11.47c-.565.312-1.078.674-1.157.812-.065.125-.131.675-.131 1.212 0 1.1.21 1.537.723 1.537.552 0 .723-.313.723-1.262v-.862l.724-.388c.683-.362.986-.662.986-.974 0-.188-.487-.638-.684-.638-.092 0-.631.263-1.184.563zM30.64 11.157c-.474.45-.277.825.722 1.362l.724.388v.862c0 .95.17 1.262.723 1.262.526 0 .723-.437.723-1.6 0-1.212-.079-1.324-1.473-2.061-1.012-.538-1.065-.55-1.42-.213zM21.908 13.481c-.184.163-.21.675-.21 3.674 0 3 .026 3.511.21 3.674.302.3 7.298.3 7.6 0 .184-.163.21-.675.21-3.674 0-2.999-.026-3.511-.21-3.674-.302-.3-7.298-.3-7.6 0zm3.077 2.112v.937H23.012v-1.874H24.985v.937zm3.419 0v.937H26.43v-1.874H28.404v.937zm-3.42 3.124v.937h-1.972V17.78H24.985v.937zm3.42 0v.937H26.43V17.78H28.404v.937zM18.094 15.43c-.17.226-.21.688-.21 2.475 0 2.374.092 2.749.71 2.749.67 0 .736-.262.736-2.774 0-2.074-.026-2.337-.236-2.512-.342-.287-.763-.262-1 .063zM32.375 16.73c-.276.188-.29.25-.29 2.55 0 2.549.053 2.748.724 2.748.631 0 .723-.362.723-2.774 0-2.061-.026-2.249-.263-2.474-.315-.3-.5-.312-.894-.05zM18.094 22.428c-.315.413-.29 2.225.026 2.587.21.25.33.275 1.605.237 1.367-.037 1.38-.037 1.499-.375.21-.562-.171-.85-1.131-.85h-.763v-.724c0-.55-.065-.787-.236-.937-.342-.288-.763-.263-1 .062zM32.31 22.378c-.159.163-.224.463-.224.938v.712h-.763c-.96 0-1.341.287-1.131.85.118.337.132.337 1.5.374 1.275.038 1.393.013 1.617-.237.302-.362.328-2.174.013-2.587a.648.648 0 0 0-1.013-.05zM21.776 24.303c-.263.35-.263.537 0 .774.171.175.644.2 3.156.2h2.946l.157-.312c.119-.237.106-.362-.078-.625l-.21-.312h-2.894c-2.827 0-2.88 0-3.077.275z"/></g></svg><svg width="37" height="22" viewBox="0 0 37 22" id="L1VzZXJzL2t1a2tvbWFoL3Byb2plY3RzL2lzdC1mcm9udGVuZC9zcmMvbW9kdWxlcy9kaXJlY3Rpb25zL2ljb25zL3Nwcml0ZS1pY29uMS5zdmc=" x="47" y="21"><title>noun_796594_cc (1)</title><path d="M27 20H0v-7h10V8H7l4-5h13V0h3v3h4l4 5h-3v3h-1v-1H11v7.006L18 17v-5h6v5h3v3zM11 9h20V8H11v1zm1-5L9 7h24l-3-3H12zm-1 15h7v-1h-7v1zm15 0v-1h-2v1h2zm-3 0v-6h-4v6h4zm-11-8h5v4h-5v-4zm1 1v2h3v-2h-3zm12 3v-4h4v1h-3v2h3v1h-4zm0-14v2h1V1h-1zm7.5 11a2.5 2.5 0 1 1 0 5 2.5 2.5 0 0 1 0-5zm0 1a1.5 1.5 0 1 0 0 3 1.5 1.5 0 0 0 0-3zm.5 4c1.363.03 4 .952 4 3v2h-9v-2c0-2.07 2.468-2.884 4-3h1zm0 1h-1s-3.008.422-3 2c-.013.513 0 1 0 1h7s-.016-.19 0-1c-.005-1.557-2.353-2-3-2zm-23 1v-5H1v5h1v-4h7v4h1zm-7-3v1h5v-1H3zm0 3h5v-1H3v1z" fill-rule="nonzero" fill="#92C37C"/></svg><svg width="31" height="26" viewBox="0 0 31 26" id="L1VzZXJzL2t1a2tvbWFoL3Byb2plY3RzL2lzdC1mcm9udGVuZC9zcmMvbW9kdWxlcy9kaXJlY3Rpb25zL2ljb25zL3Nwcml0ZS1pY29uMi5zdmc=" x="37" y="77"><title>noun_796584_cc (1)</title><path d="M0 26v-1h2V9h6V0h15v9h6v16h2v1H0zm22-1V1H9v24h4v-3h5v3h4zM10 2h3v3h-3V2zm1 1v1h1V3h-1zm3-1h3v3h-3V2zm1 1v1h1V3h-1zm3-1h3v3h-3V2zm1 1v1h1V3h-1zm-9 3h3v3h-3V6zm1 1v1h1V7h-1zm3-1h3v3h-3V6zm1 1v1h1V7h-1zm3-1h3v3h-3V6zm1 1v1h1V7h-1zm-9 3h3v3h-3v-3zm1 1v1h1v-1h-1zm3-1h3v3h-3v-3zm1 1v1h1v-1h-1zm3-1h3v3h-3v-3zm1 1v1h1v-1h-1zm-9 3h3v3h-3v-3zm1 1v1h1v-1h-1zm3-1h3v3h-3v-3zm1 1v1h1v-1h-1zm3-1h3v3h-3v-3zm1 1v1h1v-1h-1zm-9 3h3v3h-3v-3zm1 1v1h1v-1h-1zm7-1h3v3h-3v-3zm1 1v1h1v-1h-1zm-5 4v2h3v-2h-3zM3 10v15h5V10H3zm1 1h3v3H4v-3zm1 1v1h1v-1H5zm-1 3h3v3H4v-3zm1 1v1h1v-1H5zm18-6v15h5V10h-5zm1 1h3v3h-3v-3zm1 1v1h1v-1h-1zm-1 3h3v3h-3v-3zm1 1v1h1v-1h-1zm-1 3h3v3h-3v-3zm1 1v1h1v-1h-1zM4 19h3v3H4v-3zm1 1v1h1v-1H5zm9-2h3v3h-3v-3zm1 1v1h1v-1h-1z" fill-rule="nonzero" fill="#92C37C"/></svg><svg width="43" height="21" viewBox="0 0 43 21" id="L1VzZXJzL2t1a2tvbWFoL3Byb2plY3RzL2lzdC1mcm9udGVuZC9zcmMvbW9kdWxlcy9kaXJlY3Rpb25zL2ljb25zL3Nwcml0ZS1pY29uMy5zdmc=" x="47"><title>noun_796588_cc (1)</title><path d="M0 21v-1h2V0h15l-.034 4h9.014L26 0h15v20h2v1H0zm26-1V5h-9v15h9zm-10 0V1H3v19h4v-5h5v5h4zm24 0V1H27v19h4v-5h5v5h4zM28 2h3v3h-3V2zm1 1v1h1V3h-1zm3-1h3v3h-3V2zm1 1v1h1V3h-1zm-5 3h3v3h-3V6zm1 1v1h1V7h-1zm3-1h3v3h-3V6zm1 1v1h1V7h-1zm-5 3h3v3h-3v-3zm1 1v1h1v-1h-1zm3-1h3v3h-3v-3zm1 1v1h1v-1h-1zM18 6h3v3h-3V6zm1 1v1h1V7h-1zm3-1h3v3h-3V6zm1 1v1h1V7h-1zm-5 3h3v3h-3v-3zm1 1v1h1v-1h-1zm3-1h3v3h-3v-3zm1 1v1h1v-1h-1zm-5 3h3v3h-3v-3zm1 1v1h1v-1h-1zm3-1h3v3h-3v-3zm1 1v1h1v-1h-1zM36 2h3v3h-3V2zm1 1v1h1V3h-1zm-1 3h3v3h-3V6zm1 1v1h1V7h-1zm-1 3h3v3h-3v-3zm1 1v1h1v-1h-1zM4 2h3v3H4V2zm1 1v1h1V3H5zm3-1h3v3H8V2zm1 1v1h1V3H9zM4 6h3v3H4V6zm1 1v1h1V7H5zm3-1h3v3H8V6zm1 1v1h1V7H9zm-5 3h3v3H4v-3zm1 1v1h1v-1H5zm3-1h3v3H8v-3zm1 1v1h1v-1H9zm3-9h3v3h-3V2zm1 1v1h1V3h-1zm-1 3h3v3h-3V6zm1 1v1h1V7h-1zm-1 3h3v3h-3v-3zm1 1v1h1v-1h-1zm-5 5v4h3v-4H8zm24 0v4h3v-4h-3z" fill-rule="nonzero" fill="#92C37C"/></svg><svg width="21" height="27" viewBox="0 0 21 27" id="L1VzZXJzL2t1a2tvbWFoL3Byb2plY3RzL2lzdC1mcm9udGVuZC9zcmMvbW9kdWxlcy9kaXJlY3Rpb25zL2ljb25zL3Nwcml0ZS1pY29uNC5zdmc=" x="131" y="57"><title>noun_796589_cc (1)</title><path d="M21 27H0V8h3V4h2V0h1v4h2v4h3v2h10v17zm-11-1V9H1v17h3v-4h3v4h3zM2 10h3v3H2v-3zm1 1v1h1v-1H3zm-1 3h3v3H2v-3zm1 1v1h1v-1H3zm-1 3h3v3H2v-3zm1 1v1h1v-1H3zm3-9h3v3H6v-3zm1 1v1h1v-1H7zm-1 3h3v3H6v-3zm1 1v1h1v-1H7zm-1 3h3v3H6v-3zm1 1v1h1v-1H7zm-2 4v3h1v-3H5zM4 5v3h3V5H4zm16 21V11h-9v15h3v-2h3v2h3zm-8-14h3v3h-3v-3zm1 1v1h1v-1h-1zm-1 3h3v3h-3v-3zm1 1v1h1v-1h-1zm-1 3h3v3h-3v-3zm1 1v1h1v-1h-1zm3-9h3v3h-3v-3zm1 1v1h1v-1h-1zm-1 3h3v3h-3v-3zm1 1v1h1v-1h-1zm-1 3h3v3h-3v-3zm1 1v1h1v-1h-1zm-2 4v1h1v-1h-1z" fill-rule="nonzero" fill="#92C37C"/></svg><svg width="30" height="27" viewBox="0 0 30 27" id="L1VzZXJzL2t1a2tvbWFoL3Byb2plY3RzL2lzdC1mcm9udGVuZC9zcmMvbW9kdWxlcy9kaXJlY3Rpb25zL2ljb25zL3Nwcml0ZS1pY29uNS5zdmc=" x="131"><title>noun_796585_cc (1)</title><path d="M19 27V14h-8v13H0V8h3V4h2V0h1v4h2v4h3v5h8V8h3V4h2V0h1v4h2v4h3v19H19zm-9-1V9H1v17h3v-4h3v4h3zM2 10h3v3H2v-3zm1 1v1h1v-1H3zm-1 3h3v3H2v-3zm1 1v1h1v-1H3zm-1 3h3v3H2v-3zm1 1v1h1v-1H3zm3-9h3v3H6v-3zm1 1v1h1v-1H7zm-1 3h3v3H6v-3zm1 1v1h1v-1H7zm-1 3h3v3H6v-3zm1 1v1h1v-1H7zm-2 4v3h1v-3H5zM4 5v3h3V5H4zm25 21V9h-9v17h3v-4h3v4h3zm-8-16h3v3h-3v-3zm1 1v1h1v-1h-1zm-1 3h3v3h-3v-3zm1 1v1h1v-1h-1zm-1 3h3v3h-3v-3zm1 1v1h1v-1h-1zm3-9h3v3h-3v-3zm1 1v1h1v-1h-1zm-1 3h3v3h-3v-3zm1 1v1h1v-1h-1zm-1 3h3v3h-3v-3zm1 1v1h1v-1h-1zm-2 4v3h1v-3h-1zM23 5v3h3V5h-3z" fill-rule="nonzero" fill="#92C37C"/></svg><svg width="25" height="24" viewBox="0 0 25 24" id="L1VzZXJzL2t1a2tvbWFoL3Byb2plY3RzL2lzdC1mcm9udGVuZC9zcmMvbW9kdWxlcy9kaXJlY3Rpb25zL2ljb25zL3Nwcml0ZS1pY29uNi5zdmc=" x="131" y="84"><title>noun_730598_cc (1)</title><path d="M25 6v18H0V6h2V0h3.006L5 6h1V3h3.012L9 6h16zM1 23h23V7H1v16zM3 9h5v5H3V9zm1 1v3h3v-3H4zm-1 6h5v5H3v-5zm1 1v3h3v-3H4zm6-8h5v5h-5V9zm1 1v3h3v-3h-3zm-1 6h5v5h-5v-5zm1 1v3h3v-3h-3zm6-8h5v5h-5V9zm1 1v3h3v-3h-3zM3 1v5h1V1H3zm4 3v2h1V4H7zm10 12h5v5h-5v-5zm1 1v3h3v-3h-3z" fill-rule="nonzero" fill="#92C37C"/></svg><svg width="32" height="15" viewBox="0 0 32 15" id="L1VzZXJzL2t1a2tvbWFoL3Byb2plY3RzL2lzdC1mcm9udGVuZC9zcmMvbW9kdWxlcy9kaXJlY3Rpb25zL2ljb25zL3Nwcml0ZS1pY29uNy5zdmc=" x="43" y="47"><title>noun_796601_cc (1)</title><path d="M32 0v4h-1v11H0V8h10V4H9V0h23zM11 5h19V4H11v1zm-1-4v2h21V1H10zm1 13h7v-1h-7v1zm19-8H11v6.006L18 12V8h5v4h7V6zm0 8v-1h-7v1h7zm-8 0V9h-3v5h3zM12 7h5v4h-5V7zm1 1v2h3V8h-3zm11-1h5v4h-5V7zm1 1v2h3V8h-3zm-15 6V9.008L1 9v5h1v-4l7 .008V14h1zm-2-1H3v1h5v-1zm0-1v-1H3v1h5z" fill-rule="nonzero" fill="#92C37C"/></svg><svg width="21" height="21" viewBox="0 0 21 21" id="L1VzZXJzL2t1a2tvbWFoL3Byb2plY3RzL2lzdC1mcm9udGVuZC9zcmMvbW9kdWxlcy9tZW51L3Nwcml0ZS1jbG9zZS5zdmc=" x="68" y="77"><title>sprite-close</title><path d="M10.5 7.12L4.08.7A2.388 2.388 0 0 0 .702.7 2.383 2.383 0 0 0 .7 4.078l6.42 6.422-6.42 6.422A2.383 2.383 0 0 0 .703 20.3a2.388 2.388 0 0 0 3.376.001L10.5 13.88l6.42 6.422a2.388 2.388 0 0 0 3.377-.001c.94-.94.934-2.446.002-3.378l-6.42-6.422 6.42-6.422A2.383 2.383 0 0 0 20.297.7 2.388 2.388 0 0 0 16.921.7L10.5 7.12z" fill="#88b673" fill-rule="evenodd"/></svg><svg width="30" height="30" viewBox="0 0 30 30" id="L1VzZXJzL2t1a2tvbWFoL3Byb2plY3RzL2lzdC1mcm9udGVuZC9zcmMvbW9kdWxlcy9tZW51L3Nwcml0ZS1tZW51LnN2Zw==" x="131" y="27"><title>sprite-hamburger</title><g fill="#fff" fill-rule="evenodd"><rect width="30" height="6" rx="1"/><rect y="24" width="30" height="6" rx="1"/><rect y="12" width="30" height="6" rx="1"/></g></svg></svg>