<?xml version="1.0" encoding="UTF-8"?><svg width="374" height="303" viewBox="0 0 374 303" xmlns="http://www.w3.org/2000/svg" xmlns:xlink="http://www.w3.org/1999/xlink"><svg width="36" height="36" viewBox="-3 -3 36 36" id="L1VzZXJzL2FsZmFtb3RvcnMvUHJvamVjdHMvaXN0LWZyb250ZW5kL3NyYy9tb2R1bGVzL21lbnUvc3ByaXRlLW1lbnUuc3Zn" x="317" y="151"><title>sprite-hamburger</title><g fill="#fff" fill-rule="evenodd"><rect width="30" height="6" rx="1"/><rect y="24" width="30" height="6" rx="1"/><rect y="12" width="30" height="6" rx="1"/></g></svg><svg width="27" height="27" viewBox="-3 -3 27 27" id="L1VzZXJzL2FsZmFtb3RvcnMvUHJvamVjdHMvaXN0LWZyb250ZW5kL3NyYy9tb2R1bGVzL21lbnUvc3ByaXRlLWNsb3NlLnN2Zw==" x="317" y="187"><title>sprite-close</title><path d="M10.5 7.12L4.08.7A2.388 2.388 0 0 0 .702.7 2.383 2.383 0 0 0 .7 4.078l6.42 6.422-6.42 6.422A2.383 2.383 0 0 0 .703 20.3a2.388 2.388 0 0 0 3.376.001L10.5 13.88l6.42 6.422a2.388 2.388 0 0 0 3.377-.001c.94-.94.934-2.446.002-3.378l-6.42-6.422 6.42-6.422A2.383 2.383 0 0 0 20.297.7 2.388 2.388 0 0 0 16.921.7L10.5 7.12z" fill="#88b673" fill-rule="evenodd"/></svg><svg width="125" height="125" viewBox="-3 -3 125 125" id="L1VzZXJzL2FsZmFtb3RvcnMvUHJvamVjdHMvaXN0LWZyb250ZW5kL3NyYy9tb2R1bGVzL2Nob29zZS9pY29ucy9zcHJpdGUtaWNvbjEuc3Zn"><title>1</title><g fill="#77AE0E" fill-rule="evenodd"><path d="M63.73.2c3.648.335 9.027 1.705 12.462 3.135 5.714 2.435 10.151 5.509 14.62 10.196 5.957 6.209 9.695 13.574 11.367 22.4.699 3.683.699 10.865 0 14.76-.912 5.083-3.344 11.292-6.292 16.131l-.669 1.066 11.824 17.043c7.294 10.53 11.823 17.317 11.823 17.774 0 1.522-.456 1.491-10.699-.487-5.288-1.035-9.695-1.826-9.756-1.765-.091.06-1.277 4.108-2.644 8.948-1.399 4.87-2.614 8.978-2.736 9.16-.213.366-1.368.396-1.854.061-.152-.121-4.924-7.456-10.607-16.343-5.654-8.887-10.425-16.313-10.638-16.526-.304-.335-.851-.305-3.07.121-3.647.7-10.82.73-14.68.03-2.31-.425-2.918-.456-3.13-.151-.122.213-4.924 7.73-10.638 16.678-8.936 13.909-10.547 16.283-11.216 16.374-.425.06-.912-.091-1.094-.304-.182-.213-1.459-4.353-2.857-9.222-1.368-4.87-2.553-8.857-2.583-8.918-.03-.06-4.225.73-9.3 1.735-5.046 1.035-9.575 1.857-10.03 1.857-.548 0-.943-.244-1.186-.64-.395-.76-1.064.244 13.981-21.425l9.696-14-.76-1.218c-2.796-4.596-4.954-9.952-6.049-15.065-.79-3.622-.79-12.722-.03-16.496 2.006-9.921 7.568-19.204 15.197-25.382C41.057 2.574 52.424-.865 63.73.2zM52.364 3.397c-15.987 2.678-29.056 15.4-32.612 31.774-.79 3.652-.79 12.478 0 16.13 1.671 7.64 5.228 14.427 10.486 19.874 5.987 6.24 12.826 10.014 21.366 11.81 4.104.882 11.246.943 15.228.182 8.297-1.644 15.53-5.478 21.336-11.322 5.896-5.874 9.817-13.391 11.307-21.578.668-3.652.668-10.409 0-14.061C96.89 21.87 86.739 9.909 73.122 5.1c-6.778-2.374-13.464-2.922-20.759-1.705zM85.28 77.961c-2.797 2.07-7.812 4.81-10.85 5.905-1.217.426-1.824.822-1.703 1.035 1.277 2.1 18.176 28.426 18.48 28.73.273.304.79-1.187 2.583-7.457 1.216-4.321 2.462-8.095 2.735-8.4.517-.547.821-.517 9.118 1.157 4.711.943 8.632 1.674 8.693 1.613.091-.122-4.012-6.117-16.808-24.5l-4.042-5.843-2.827 2.921c-1.52 1.583-3.95 3.774-5.38 4.84zm-70.453 7.64c-5.684 8.247-10.273 15.004-10.151 15.004.121 0 4.012-.761 8.631-1.674 6.049-1.217 8.602-1.613 8.997-1.4.395.213 1.124 2.404 2.766 8.157 1.215 4.321 2.31 7.943 2.431 8.095.122.122 4.438-6.36 9.574-14.395 5.167-8.066 9.331-14.7 9.27-14.761-.06-.061-1.185-.518-2.492-1.035-5.988-2.374-10.395-5.326-14.954-9.922-1.854-1.887-3.434-3.317-3.525-3.226-.092.091-4.863 6.94-10.547 15.157z"/><path d="M55.007 32.907c-3.496 1.065-5.015 3.561-5.41 8.857-.456 5.995.486 11.108 2.34 12.843 1.732 1.644 2.675 1.917 6.443 1.917 3.01 0 3.678-.09 4.711-.67 2.584-1.369 3.648-3.438 4.164-8.125.395-3.561.061-8.005-.85-10.591-.609-1.827-2.645-3.683-4.53-4.17-1.489-.365-5.653-.396-6.868-.06zm5.805 4.444c1.094.973 1.368 2.495 1.368 7.304 0 5.265-.304 6.574-1.794 7.487-1.64 1.004-3.95.609-4.893-.822-1.064-1.643-1.337-9.191-.426-12.387.426-1.613 1.763-2.404 3.708-2.252.79.06 1.703.365 2.037.67zM76.282 32.907c-3.495 1.065-5.015 3.561-5.41 8.857-.456 5.995.486 11.108 2.34 12.843 1.733 1.644 2.675 1.917 6.444 1.917 3.009 0 3.678-.09 4.711-.67 2.583-1.369 3.647-3.438 4.164-8.125.395-3.561.06-8.005-.851-10.591-.608-1.827-2.644-3.683-4.529-4.17-1.49-.365-5.653-.396-6.869-.06zm5.805 4.444c1.095.973 1.368 2.495 1.368 7.304 0 5.265-.304 6.574-1.793 7.487-1.641 1.004-3.951.609-4.893-.822-1.064-1.643-1.338-9.191-.426-12.387.426-1.613 1.763-2.404 3.708-2.252.79.06 1.702.365 2.036.67zM30.722 34.013c0 .64.091 1.613.182 2.13l.213.944h5.106c2.827 0 5.137.06 5.137.122 0 .091-.152.517-.334 1.004-.183.457-1.611 4.474-3.161 8.917-1.55 4.444-2.918 8.31-3.04 8.583-.182.487.03.548 2.401.548 1.429 0 2.614-.061 2.614-.122 0-.06 1.55-4.687 3.465-10.256 1.915-5.6 3.556-10.47 3.678-10.835.121-.518-.03-.883-.578-1.461l-.76-.76H30.722v1.186z"/></g></svg><svg width="85" height="83" viewBox="-3 -3 85 83" id="L1VzZXJzL2FsZmFtb3RvcnMvUHJvamVjdHMvaXN0LWZyb250ZW5kL3NyYy9tb2R1bGVzL2Nob29zZS9pY29ucy9zcHJpdGUtaWNvbjIuc3Zn" x="228" y="86"><title>2</title><g fill="#77AE0E" fill-rule="evenodd"><path d="M1.132 76.02c-.331-.136-.745-.573-.883-.982C.055 74.574 0 61.526.028 37.642.11 2.866.138.955.608.492 1.077.026 2.982 0 39.185 0 75.39 0 77.294.027 77.763.491c.47.464.497 2.32.497 37.588 0 35.266-.027 37.123-.497 37.587-.469.464-2.402.491-38.246.546-22.34.027-37.998-.055-38.385-.191zM75.361 38.08V2.866H3.01V73.291h72.351V38.079z"/><path d="M21.07 59.151l-3.424 3.33-1.767-1.692c-.967-.928-1.961-1.692-2.21-1.692-.58 0-1.546.982-1.546 1.583 0 .246 1.077 1.556 2.43 2.866 1.74 1.72 2.596 2.375 3.12 2.375.525 0 1.657-.956 4.75-4.04 2.237-2.238 4.06-4.258 4.06-4.504 0-.6-.967-1.556-1.574-1.556-.249 0-1.989 1.501-3.839 3.33zM33.165 60.407c-.414-.41-.414-1.665 0-2.075.47-.464 31.73-.464 32.2 0 .414.41.414 1.666 0 2.075-.47.464-31.73.464-32.2 0zM20.904 27.039l-3.23 3.193-1.657-1.555c-1.74-1.638-2.651-1.939-3.452-1.12-.801.765-.497 1.474 1.574 3.576 2.237 2.32 3.258 2.975 4.004 2.566.856-.464 8.34-8.107 8.34-8.544 0-.218-.221-.6-.497-.846-1.077-.955-1.713-.6-5.082 2.73zM33.165 44.848c-.414-.41-.414-1.665 0-2.075.47-.464 31.73-.464 32.2 0 .414.41.414 1.666 0 2.075-.47.464-31.73.464-32.2 0zM33.165 29.29c-.414-.41-.414-1.666 0-2.075.47-.465 31.73-.465 32.2 0 .414.409.414 1.665 0 2.074-.47.464-31.73.464-32.2 0zM20.822 13.512l-3.342 3.275-1.63-1.637c-.993-.983-1.877-1.638-2.236-1.638-.828 0-1.602.928-1.408 1.692.22.846 4.667 5.132 5.33 5.132.469 0 8.173-7.316 8.698-8.271.414-.737-.386-1.829-1.325-1.829-.553 0-1.492.764-4.087 3.276zM33.165 15.368c-.414-.41-.414-1.665 0-2.075.47-.464 31.73-.464 32.2 0 .414.41.414 1.665 0 2.075-.47.464-31.73.464-32.2 0z"/></g></svg><svg width="103" height="74" viewBox="-3 -3 103 74" id="L1VzZXJzL2FsZmFtb3RvcnMvUHJvamVjdHMvaXN0LWZyb250ZW5kL3NyYy9tb2R1bGVzL2Nob29zZS9pY29ucy9zcHJpdGUtaWNvbjMuc3Zn" x="125"><title>3</title><g fill="#77AE0E" fill-rule="evenodd"><path d="M9.552.15c-3.53.547-7 3.31-8.603 6.831l-.8 1.76-.09 24.438C-.03 56.98 0 57.647.593 59.59c1.098 3.673 3.797 6.436 7.387 7.59 1.839.607 2.67.607 44.97.607 39.72 0 43.13-.03 43.486-.516.356-.395.416-5.192.416-28.324s-.06-27.928-.416-28.323c-.356-.486-3.322-.516-36.96-.516H22.9l-.356-1.518C21.24 3.004 15.366-.82 9.552.15zm5.932 4.1c.86.515 2.018 1.487 2.522 2.185 1.869 2.49 1.869 2.459 1.869 23.04v18.64l-1.246-1.093c-1.958-1.73-4.064-2.428-7.209-2.428-2.284-.03-2.936.09-4.36.789-.95.455-2.195 1.184-2.759 1.64l-1.038.789V9.652l.712-1.517c.86-1.913 3.055-3.947 4.894-4.554 2.077-.698 4.717-.425 6.615.668zm78.253 8.894V64.75l-42.033-.06c-42.063-.092-42.063-.092-43.428-.73-4.182-2.003-6.022-6.405-4.509-10.928.623-1.912 2.818-4.129 4.717-4.796 2.076-.729 4.716-.638 6.496.242 2.7 1.275 4.895 4.645 4.895 7.468 0 1.215.979 2.004 2.017 1.64l.8-.274.06-21.705c.06-11.93.148-21.887.237-22.1.09-.273 7.476-.364 35.448-.364h35.3z"/><path d="M62.174 18.45c-2.61 1.633-3.085 2.373-2.284 3.513.593.832 1.75.708 3.5-.432 1.365-.862 1.662-.955 2.166-.616 1.81 1.171 3.204 1.787 3.767 1.633.83-.246 1.305-1.386.89-2.188-.445-.862-4.36-3.142-5.31-3.112-.445 0-1.66.555-2.729 1.202zM50.25 25.691c-1.276.77-2.433 1.664-2.61 2.003-.15.308-.297 1.664-.297 2.989 0 2.711.474 3.79 1.631 3.79 1.246 0 1.632-.77 1.632-3.112v-2.126l1.631-.956c1.543-.893 2.225-1.633 2.225-2.403 0-.462-1.098-1.571-1.543-1.571-.207 0-1.424.647-2.67 1.386zM76.116 24.92c-1.068 1.11-.623 2.034 1.632 3.36l1.631.955v2.126c0 2.342.386 3.112 1.632 3.112 1.186 0 1.631-1.079 1.631-3.944 0-2.99-.178-3.266-3.322-5.084-2.284-1.325-2.403-1.356-3.204-.524zM56.42 30.652c-.416.4-.475 1.664-.475 9.06 0 7.394.06 8.658.475 9.058.682.74 16.463.74 17.145 0 .415-.4.475-1.664.475-9.059s-.06-8.658-.475-9.059c-.682-.74-16.463-.74-17.145 0zm6.94 5.207v2.311h-4.449v-4.622h4.45v2.311zm7.713 0v2.311h-4.449v-4.622h4.449v2.311zm-7.712 7.704v2.31h-4.45v-4.621h4.45v2.31zm7.712 0v2.31h-4.449v-4.621h4.449v2.31zM47.817 35.459c-.386.555-.474 1.695-.474 6.1 0 5.855.207 6.78 1.601 6.78 1.513 0 1.662-.647 1.662-6.84 0-5.116-.06-5.763-.534-6.194-.772-.709-1.72-.647-2.255.154zM80.032 38.663c-.623.463-.653.617-.653 6.286 0 6.286.119 6.78 1.632 6.78 1.424 0 1.631-.894 1.631-6.841 0-5.084-.06-5.547-.593-6.101-.712-.74-1.127-.77-2.017-.124zM47.817 52.714c-.712 1.017-.652 5.485.06 6.379.474.616.741.677 3.618.585 3.085-.092 3.115-.092 3.382-.924.475-1.387-.386-2.096-2.551-2.096h-1.72v-1.787c0-1.356-.149-1.941-.534-2.31-.772-.71-1.72-.648-2.255.153zM79.883 52.591c-.355.4-.504 1.14-.504 2.311v1.756h-1.72c-2.166 0-3.026.709-2.551 2.096.267.832.296.832 3.381.924 2.878.092 3.145.03 3.649-.585.682-.894.742-5.362.03-6.379-.534-.832-1.632-.893-2.285-.123zM56.123 57.336c-.593.863-.593 1.325 0 1.91.386.432 1.453.494 7.12.494h6.644l.356-.77c.267-.586.237-.894-.178-1.541l-.475-.77h-6.526c-6.377 0-6.496 0-6.941.677z"/></g></svg><svg width="91" height="71" viewBox="-3 -3 91 71" id="L1VzZXJzL2FsZmFtb3RvcnMvUHJvamVjdHMvaXN0LWZyb250ZW5kL3NyYy9tb2R1bGVzL2Nob29zZS9pY29ucy9zcHJpdGUtaWNvbjQuc3Zn" x="93" y="125"><title>Shape</title><path d="M48.8.124c3.6.528 4.269 1.206 4.269 4.26V6.61l1.93.641c3.229 1.056 8.277 3.96 11.432 6.486 3.86 3.167 7.424 7.691 9.65 12.367 3.007 6.221 3.416 8.22 3.601 17.08l.186 7.655 1.781.905c2.005 1.018 3.341 2.526 3.341 3.732 0 3.205-6.644 5.77-18.93 7.353-25.797 3.356-60.317.528-65.142-5.317-1.93-2.337-.817-4.336 3.34-6.183l2.413-1.056v-5.694c0-6.598.371-9.275 1.93-14.064 2.153-6.56 6.236-12.518 11.618-16.892 3.118-2.526 7.906-5.278 11.21-6.372l1.967-.64v-2c0-2.6.223-3.091 1.596-3.845.891-.453 2.524-.603 6.941-.717 3.155-.037 6.236 0 6.867.076zM36.328 3.555c-.26.264 2.08 26.846 2.45 27.902.112.377 1.374.49 4.64.49 2.45 0 4.454-.113 4.454-.226 0-.15.594-6.448 1.3-14.026.742-7.58 1.187-13.914 1.039-14.065-.149-.15-1.151-.377-2.153-.452-2.673-.264-11.395.038-11.73.377zm16.37 6.41c0 .189-.52 5.543-1.114 11.99-.928 9.615-1.225 11.764-1.745 12.141-.89.68-12.323.68-13.214 0-.556-.377-.853-2.413-1.781-12.33-.631-6.522-1.188-11.952-1.262-12.027-.334-.34-5.828 1.998-8.203 3.506l-2.561 1.584.185 3.167c.111 1.772.186 5.166.186 7.541 0 4.11-.075 4.487-1.188 6.9-2.264 4.827-5.828 8.07-10.504 9.502l-2.227.679v6.975l2.3-.49c10.913-2.3 33.444-3.092 48.922-1.697 4.232.377 13.808 1.886 15.887 2.489.853.264.853.226.742-3.431l-.111-3.695-2.45-.83c-4.491-1.508-8.055-4.75-10.096-9.162-1.15-2.413-1.188-2.715-1.188-7.24 0-2.601.149-5.995.297-7.578l.297-2.904-2.45-1.546c-2.338-1.508-7.275-3.77-8.277-3.808-.223 0-.446.113-.446.264zm13.25 14.818c-.074 5.015.743 7.315 3.638 10.482 1.856 2.074 5.27 4.223 6.644 4.223.817 0 .743-1.357-.148-5.24-1.3-5.43-4.195-10.973-7.795-14.894l-1.67-1.81-.297 1.621c-.149.905-.334 3.431-.371 5.618zm-48.884-3.921c-1.225 1.546-2.784 3.846-3.489 5.165-1.633 2.98-3.452 8.446-3.786 11.463l-.26 2.375 1.745-.603c4.231-1.47 7.498-4.902 8.834-9.35.668-2.225.742-3.13.52-6.26-.26-4.45-.557-6.108-1.04-5.807-.185.114-1.336 1.47-2.524 3.017zM28.2 50.046c-12.027.867-21.269 2.601-24.461 4.562-1.15.717-1.188.792-.631 1.433 1.3 1.47 8.871 3.318 17.854 4.374 7.052.83 27.021 1.169 35.262.603 7.349-.528 15.478-1.659 19.635-2.715 3.452-.905 6.236-2.149 6.05-2.752-.63-1.96-12.583-4.6-24.572-5.468-6.495-.452-22.902-.452-29.137-.037z" fill="#77AE0E" fill-rule="evenodd"/></svg><svg width="89" height="86" viewBox="-3 -3 89 86" id="L1VzZXJzL2FsZmFtb3RvcnMvUHJvamVjdHMvaXN0LWZyb250ZW5kL3NyYy9tb2R1bGVzL2Nob29zZS9pY29ucy9zcHJpdGUtaWNvbjUuc3Zn" x="228"><title>5</title><g fill="#77AE0E" fill-rule="evenodd"><path d="M8.351.314c-3.145.979-5.94 3.32-7.338 6.149L.14 8.21.035 39.37c-.07 30.673-.07 31.162.629 33.048 1.433 3.808 4.822 6.533 9.085 7.197 1.467.244 14.675.384 37.842.384h35.536V10.131H12.544V0l-1.642.035c-.944 0-2.062.14-2.55.28zm1.573 29.73v27.039l-1.328.28c-1.608.349-3.215 1.152-4.613 2.305l-1.048.873L2.83 34.9 2.76 9.258l.874-1.782c.49-1.013 1.433-2.236 2.096-2.725C7.093 3.703 9.05 2.76 9.574 2.934c.245.07.35 9.398.35 27.11zM80.33 12.926v64.28H45.46c-38.61 0-37.038.104-39.798-2.272-2.027-1.711-2.9-3.703-2.9-6.497 0-2.83.803-4.647 2.9-6.463 1.712-1.502 3.529-2.236 5.625-2.236h1.258V12.926h67.787z"/><path d="M38.568 22.402l.104 4.401 1.153.385c1.678.559 3.46 2.13 4.333 3.808 1.153 2.2 1.118 5.484-.105 7.58-.524.874-1.257 1.852-1.642 2.201-.664.594-.664.63.07 4.891l.769 4.262 2.865.105 2.865.105v2.76H43.74l.21.943c.104.559.838 4.716 1.677 9.257l1.467 8.245-1.188.245c-.664.104-1.258.14-1.362.07-.07-.105-.874-4.298-1.817-9.363l-1.643-9.223-4.053-.105-4.018-.104-.56 3.039c-.314 1.677-1.082 5.939-1.711 9.467l-1.119 6.463-1.188-.21c-.663-.104-1.257-.244-1.327-.314-.07-.07.559-4.052 1.432-8.838.874-4.786 1.573-8.909 1.573-9.153 0-.28-.77-.42-2.621-.42h-2.62v-2.794h5.87l.559-3.25c.35-1.746.698-3.737.803-4.366.175-.978 0-1.362-.873-2.27-4.053-4.193-2.237-11.25 3.354-13.206l1.118-.384v-8.664h2.76l.106 4.437zM34.2 30.157c-2.9 1.922-3.285 5.8-.804 8.245.594.629 1.293 1.188 1.538 1.257.349.105.244 1.188-.455 4.856-.489 2.585-.873 4.926-.873 5.136 0 .349.943.454 3.494.454 3.46 0 3.494 0 3.32-.804-.315-1.397-1.573-8.768-1.573-9.153 0-.21.49-.663 1.048-.978 1.258-.768 2.446-2.934 2.446-4.506 0-1.607-1.013-3.459-2.41-4.367-1.503-1.013-4.299-1.083-5.731-.14zM66.752 17.559v45.415l-1.956 3.912-1.992 3.948-2.027-4.017-2.026-4.018V40.162l-.035-22.603h8.036zm-5.24 28.716c.034 14.742.069 16.28.628 17.328l.629 1.152.594-1.257c.524-1.118.594-2.9.594-17.293v-16.07h-2.446v16.14z"/></g></svg><svg width="93" height="94" viewBox="-3 -3 93 94" id="L1VzZXJzL2FsZmFtb3RvcnMvUHJvamVjdHMvaXN0LWZyb250ZW5kL3NyYy9tb2R1bGVzL2Nob29zZS9pY29ucy9zcHJpdGUtaWNvbjYuc3Zn" y="125"><title>noun_843849_cc (1)</title><path d="M42.097 0v1.196h-5.262c-1.684 0-3.018 1.127-3.439 2.676-7.083 3.49-11.815 10.358-12.682 18.072-5.882.392-10.617 3.292-13.417 8.258l-.211.422c-1.964 1.62-3.227 4.083-3.227 6.758v.846c-1.614.14-2.946 1.548-2.946 3.238v4.082c0 1.69 1.262 3.099 2.946 3.24v10.77c0 3.872 1.332 7.462 3.648 10.278l-3.578 1.76C1.543 72.723 0 75.186 0 77.862V88h16.978v-.14H84.405V77.792c0-2.675-1.545-5.07-3.93-6.266l-10.945-5.35v-.282c3.648-2.605 6.244-6.828 7.717-9.926l2.667.492c.28.07.561.072.771.072 2.246 0 4.14-1.62 4.561-3.802l1.684-9.504c.421-2.535-1.122-4.859-3.578-5.422-.554-9.802-7.952-17.951-17.73-19.306A22.956 22.956 0 0 0 53.603 3.942c-.421-1.549-1.755-2.674-3.439-2.674h-5.262V0h-2.806zm-5.262 4.012h5.262v16.192h2.806V4.012h5.262a.78.78 0 0 1 .772.776v10.77h2.806V7.11c6.104 3.59 9.893 10.209 9.893 17.39v2.534l3.017.844v1.83H20.347v-1.76l3.017-.844V24.57c0-7.18 3.859-13.8 9.893-17.39v8.448h2.806V4.788a.78.78 0 0 1 .772-.776zM66.23 21.477c7.695 1.51 13.518 7.976 14.315 15.835l-.632-.14c-1.56-8.17-6.476-13.498-13.588-14.795-.029-.3-.055-.602-.095-.9zM28.415 24.64v2.816h30.17V24.64h-30.17zm-7.857.133v.149l-3.018.914v2.746H12.63c-.21 0-.491 0-.702.07 2.21-2.279 5.119-3.587 8.63-3.879zM69.46 26.4c4.238 2.132 6.997 6.454 7.857 12.603l-.701 3.872h-.14c-3.591.574-6.834-.21-9.816-1.427a5.242 5.242 0 0 0 1.677-1.53c1.193-1.69 1.403-3.943.56-5.773-.28-.634-.7-1.126-1.121-1.548h1.684v-6.197zm-56.831 5h4.911v1.197h1.684c-.49.422-.841.985-1.122 1.548-.842 1.83-.632 4.083.56 5.772.771 1.083 1.844 1.785 3.078 2.112H10.454v9.998h17.452c2.404 3.778 4.887 6.257 7.175 7.884v1.126l-2.596 1.268-11.576 5.632a8.559 8.559 0 0 0-4.2 4.581c-5.877-1.565-10.044-6.842-10.044-13.029V37.382c0-3.309 2.666-5.984 5.964-5.984zm11.437 1.197h38.868c-.07 2.253-.56 5.632-1.332 7.744C55.288 58.01 46.868 59.91 43.5 59.91c-3.298.07-11.716-1.83-18.03-19.5-.632-2.323-1.264-4.787-1.404-7.814zm-2.667 1.9c.14 1.76.49 3.31.842 4.788-.632-.211-1.052-.634-1.332-.986-.632-.845-.702-2.041-.281-2.886.21-.352.42-.705.771-.916zm44.202 0c.35.211.631.493.771.916.421.845.35 2.041-.28 2.886-.281.352-.631.775-1.263.986.351-1.55.631-3.24.772-4.788zm14.453 5.562l2.666.492a1.876 1.876 0 0 1 1.474 2.112l-1.685 9.504c-.14.986-1.122 1.62-2.104 1.478l-2.666-.492 2.315-13.094zM3.859 41.114v4.716c-.07-.14-.14-.211-.14-.352v-4.082c0-.141.07-.212.14-.282zm59.636 2.033C66.55 44.62 70.097 45.9 74.09 45.9c.632 0 1.334-.07 1.965-.14l-1.684 9.504c-4.56 9.082-9.683 10.138-11.788 10.138-.698 0-1.63-.116-2.71-.505l-1.946-.95c-1.515-.936-3.19-2.454-4.884-4.872 3.494-2.77 7.226-7.63 10.452-15.928zM13.26 44.844h10.934a53.554 53.554 0 0 0 2.07 4.366H13.261v-4.366zm24.556 16.474c2.316 1.056 4.28 1.268 5.613 1.268 1.333 0 3.298-.212 5.613-1.268v.634c.07.07.07.07.07.14 0 .211-.07.494-.07.776 0 .14-.07.351-.07.492-.07.14-.07.281-.141.422 0 0 0 .07-.07.07-.07.141-.07.211-.14.352 0 .07-.07.142-.14.212 0 .07-.07.141-.14.212l-.212.422a5.749 5.749 0 0 1-2.455 2.042h-.07c-.14.07-.28.14-.42.14h-.07c-.141.07-.282.07-.423.07h-.14c-.14 0-.28.07-.42.07H43.43c-3.088 0-5.614-2.534-5.614-5.632v-.422zm-2.455 2.746c0 .07.07.141.07.212 0 .07.07.21.07.28.07.141.14.353.21.494 0 .07.07.14.07.21.07.211.211.423.281.564 0 0 0 .07.07.07l.42.634c.07.07.072.141.142.212.07.14.21.281.35.422l.21.21c.07.141.21.211.351.352l.211.212.351.352.21.212c.14.14.281.21.422.352.07.07.14.07.14.14l.631.422c.07 0 .07.07.14.07.21.07.351.212.562.282.07.07.14.07.28.07.141.07.28.142.491.142.07 0 .211.07.281.07.14.07.35.07.49.14.071 0 .212.072.282.072.14 0 .351.07.562.07h.28c.28 0 .562.07.772.07h.772c.14 0 .28 0 .35-.07.14 0 .21 0 .351-.07.14 0 .35-.071.49-.142.07 0 .142 0 .212-.07.21-.07.35-.14.56-.14h.141c.21-.07.42-.142.56-.212h.072c.21-.07.42-.211.56-.282.211-.14.352-.211.562-.352.21-.14.35-.211.491-.352 0 0 .07 0 .07-.07.14-.14.282-.282.422-.352l.07-.07.35-.352c.07-.07.14-.141.14-.212.07-.07.141-.211.281-.282.07-.14.211-.21.281-.352.07-.07.07-.14.14-.14a7.116 7.116 0 0 0 1.194-2.676l13.19 6.408c1.964.915 3.156 2.956 3.156 5.068v9.364h-6.384v-1.972h-2.807v1.972h-30.87v-1.972h-2.807v1.972h-6.314V75.54c0-2.183 1.262-4.155 3.157-5.07l13.26-6.406zm31.572 3.308c.28.634.772 1.127 1.333 1.408l10.945 5.28a4.152 4.152 0 0 1 2.315 3.732v7.252h-4.21v-1.198h-2.806v1.198h-3.648V75.54c0-3.239-1.895-6.196-4.772-7.604l-.342-.168c.406-.117.804-.247 1.185-.396zM9.612 71.948c1.876 1.57 4.089 2.743 6.535 3.33-.003.087-.01.174-.01.262v9.644H9.962v-1.338H7.156v1.338h-4.35v-7.322c0-1.549.913-3.026 2.316-3.73l4.49-2.184z" fill-rule="nonzero" fill="#77AE0E"/></svg><svg width="68" height="43" viewBox="-3 -3 68 43" id="L1VzZXJzL2FsZmFtb3RvcnMvUHJvamVjdHMvaXN0LWZyb250ZW5kL3NyYy9tb2R1bGVzL2RpcmVjdGlvbnMvaWNvbnMvc3ByaXRlLWljb24tMS5zdmc=" x="125" y="74"><title>1</title><path d="M45.21 33.594H0V21.836h16.744v-8.398h-5.023l6.698-8.399h21.767V0h5.023v5.04h6.698l6.698 8.398H53.58v5.039h-1.674v-1.68H18.419v11.768l11.72-.01v-8.399h10.047v8.399h5.023v5.039zM18.418 15.117h33.488v-1.68H18.419v1.68zm1.674-8.398l-5.023 5.039h40.186l-5.023-5.04h-30.14zm-1.674 25.195h11.72v-1.68H18.42v1.68zm25.116-5v-1.68h-3.349v1.68h3.349zm-5.023 5V21.836h-6.698v10.078h6.698zM20.093 18.477h8.372v6.719h-8.372v-6.72zm1.674 1.68v3.359h5.024v-3.36h-5.024zm20.093 5.039v-6.72h6.698v1.68h-5.023v3.36h5.023v1.68H41.86zm0-23.516v3.36h1.675V1.68H41.86zM54.42 20.156a4.193 4.193 0 0 1 4.186 4.2c0 2.319-1.875 4.199-4.186 4.199a4.193 4.193 0 0 1-4.186-4.2c0-2.319 1.874-4.199 4.186-4.199zm0 1.68a2.516 2.516 0 0 0-2.512 2.52 2.516 2.516 0 0 0 2.512 2.52 2.516 2.516 0 0 0 2.511-2.52 2.516 2.516 0 0 0-2.511-2.52zm.837 6.719c2.282.05 6.697 1.599 6.697 5.039v3.36h-15.07v-3.36c0-3.477 4.133-4.844 6.698-5.04h1.675zm0 1.68H53.58s-5.036.708-5.023 3.359c-.022.862 0 1.68 0 1.68H60.28s-.027-.32 0-1.68c-.008-2.615-3.94-3.36-5.023-3.36zm-38.512 1.68v-8.4H1.674v8.4H3.35v-6.72h11.72v6.72h1.675zm-11.72-5.04v1.68h8.371v-1.68H5.023zm0 5.04h8.371v-1.68H5.023v1.68z" fill="#81C780" fill-rule="evenodd"/></svg><svg width="59" height="51" viewBox="-3 -3 59 51" id="L1VzZXJzL2FsZmFtb3RvcnMvUHJvamVjdHMvaXN0LWZyb250ZW5kL3NyYy9tb2R1bGVzL2RpcmVjdGlvbnMvaWNvbnMvc3ByaXRlLWljb24tMi5zdmc=" y="252"><title>Shape</title><path d="M0 44.473v-1.71h3.41V15.395h10.231V0h25.577v15.395h10.23v27.368h3.41v1.71H0zm37.513-1.71V1.71H15.346v41.052h6.82V37.63h8.526v5.132h6.82zM17.05 3.42h5.116v5.132H17.05V3.42zm1.705 1.71v1.711h1.705v-1.71h-1.705zm5.116-1.71h5.115v5.132h-5.115V3.42zm1.705 1.71v1.711h1.705v-1.71h-1.705zm5.115-1.71h5.116v5.132h-5.116V3.42zm1.705 1.71v1.711h1.705v-1.71h-1.705zm-15.346 5.132h5.116v5.132H17.05v-5.132zm1.705 1.71v1.711h1.705v-1.71h-1.705zm5.116-1.71h5.115v5.132h-5.115v-5.132zm1.705 1.71v1.711h1.705v-1.71h-1.705zm5.115-1.71h5.116v5.132h-5.116v-5.132zm1.705 1.71v1.711h1.705v-1.71h-1.705zm-15.346 5.132h5.116v5.132H17.05v-5.132zm1.705 1.71v1.711h1.705v-1.71h-1.705zm5.116-1.71h5.115v5.132h-5.115v-5.132zm1.705 1.71v1.711h1.705v-1.71h-1.705zm5.115-1.71h5.116v5.132h-5.116v-5.132zm1.705 1.71v1.711h1.705v-1.71h-1.705zm-15.346 5.132h5.116v5.132H17.05v-5.132zm1.705 1.71v1.711h1.705v-1.71h-1.705zm5.116-1.71h5.115v5.132h-5.115v-5.132zm1.705 1.71v1.711h1.705v-1.71h-1.705zm5.115-1.71h5.116v5.132h-5.116v-5.132zm1.705 1.71v1.711h1.705v-1.71h-1.705zM17.051 30.79h5.116v5.132H17.05v-5.132zm1.705 1.71v1.711h1.705V32.5h-1.705zm11.936-1.71h5.116v5.132h-5.116v-5.132zm1.705 1.71v1.711h1.705V32.5h-1.705zm-8.525 6.843v3.42h5.115v-3.42h-5.115zM5.115 17.105v25.658h8.526V17.105H5.115zm1.705 1.71h5.116v5.132H6.82v-5.131zm1.706 1.711v1.71h1.705v-1.71H8.526zM6.82 25.658h5.116v5.131H6.82v-5.131zm1.706 1.71v1.71h1.705v-1.71H8.526zm30.692-10.263v25.658h8.525V17.105h-8.525zm1.705 1.71h5.115v5.132h-5.115v-5.131zm1.705 1.711v1.71h1.705v-1.71h-1.705zm-1.705 5.132h5.115v5.131h-5.115v-5.131zm1.705 1.71v1.71h1.705v-1.71h-1.705zM40.923 32.5h5.115v5.131h-5.115V32.5zm1.705 1.71v1.71h1.705v-1.71h-1.705zM6.82 32.5h5.116v5.131H6.82V32.5zm1.706 1.71v1.71h1.705v-1.71H8.526zm15.346-3.421h5.115v5.132h-5.115v-5.132zm1.705 1.71v1.711h1.705V32.5h-1.705z" fill="#81C780" fill-rule="evenodd"/></svg><svg width="76" height="41" viewBox="-3 -3 76 41" id="L1VzZXJzL2FsZmFtb3RvcnMvUHJvamVjdHMvaXN0LWZyb250ZW5kL3NyYy9tb2R1bGVzL2RpcmVjdGlvbnMvaWNvbnMvc3ByaXRlLWljb24tMy5zdmc=" x="228" y="169"><title>Shape</title><path d="M0 34.294V32.66h3.256V0h24.418l-.055 6.532h14.674L42.326 0h24.418v32.66H70v1.634H0zm42.326-1.633V8.165H27.674v24.496h14.652zm-16.28 0V1.633H4.885v31.028h6.511v-8.165h8.14v8.165h6.512zm39.07 0V1.633H43.953v31.028h6.512v-8.165h8.14v8.165h6.511zM45.581 3.266h4.884v4.9h-4.884v-4.9zM47.21 4.9v1.633h1.628V4.9H47.21zm4.884-1.633h4.884v4.9h-4.884v-4.9zM53.721 4.9v1.633h1.628V4.9H53.72zm-8.14 4.9h4.884v4.898h-4.884V9.798zm1.628 1.632v1.633h1.628v-1.633H47.21zm4.884-1.633h4.884v4.9h-4.884v-4.9zm1.628 1.633v1.633h1.628v-1.633H53.72zm-8.14 4.9h4.884v4.899h-4.884v-4.9zm1.628 1.632v1.634h1.628v-1.634H47.21zm4.884-1.633h4.884v4.9h-4.884v-4.9zm1.628 1.633v1.634h1.628v-1.634H53.72zM29.302 9.798h4.884v4.9h-4.884v-4.9zm1.628 1.633v1.633h1.628v-1.633H30.93zm4.884-1.633h4.884v4.9h-4.884v-4.9zm1.628 1.633v1.633h1.628v-1.633h-1.628zm-8.14 4.9h4.884v4.899h-4.884v-4.9zm1.628 1.632v1.634h1.628v-1.634H30.93zm4.884-1.633h4.884v4.9h-4.884v-4.9zm1.628 1.633v1.634h1.628v-1.634h-1.628zm-8.14 4.9h4.884v4.899h-4.884v-4.9zm1.628 1.633v1.633h1.628v-1.633H30.93zm4.884-1.633h4.884v4.899h-4.884v-4.9zm1.628 1.633v1.633h1.628v-1.633h-1.628zm21.163-21.23h4.883v4.9h-4.883v-4.9zM60.233 4.9v1.633h1.627V4.9h-1.627zm-1.628 4.9h4.883v4.898h-4.883V9.798zm1.628 1.632v1.633h1.627v-1.633h-1.627zm-1.628 4.9h4.883v4.899h-4.883v-4.9zm1.628 1.632v1.634h1.627v-1.634h-1.627zM6.512 3.266h4.883v4.9H6.512v-4.9zM8.14 4.9v1.633h1.627V4.9H8.14zm4.883-1.633h4.884v4.9h-4.884v-4.9zM14.651 4.9v1.633h1.628V4.9h-1.628zm-8.14 4.9h4.884v4.898H6.512V9.798zM8.14 11.43v1.633h1.627v-1.633H8.14zm4.883-1.633h4.884v4.9h-4.884v-4.9zm1.628 1.633v1.633h1.628v-1.633h-1.628zm-8.14 4.9h4.884v4.899H6.512v-4.9zm1.629 1.632v1.634h1.627v-1.634H8.14zm4.883-1.633h4.884v4.9h-4.884v-4.9zm1.628 1.633v1.634h1.628v-1.634h-1.628zm4.884-14.697h4.884v4.9h-4.884v-4.9zM21.163 4.9v1.633h1.628V4.9h-1.628zm-1.628 4.9h4.884v4.898h-4.884V9.798zm1.628 1.632v1.633h1.628v-1.633h-1.628zm-1.628 4.9h4.884v4.899h-4.884v-4.9zm1.628 1.632v1.634h1.628v-1.634h-1.628zm-8.14 8.166v6.532h4.884v-6.532h-4.884zm39.07 0v6.532h4.884v-6.532h-4.884z" fill="#81C780" fill-rule="evenodd"/></svg><svg width="42" height="52" viewBox="-3 -3 42 52" id="L1VzZXJzL2FsZmFtb3RvcnMvUHJvamVjdHMvaXN0LWZyb250ZW5kL3NyYy9tb2R1bGVzL2RpcmVjdGlvbnMvaWNvbnMvc3ByaXRlLWljb24tNC5zdmc=" x="317" y="52"><title>Shape</title><path d="M35.163 45.352H0V13.438h5.023v-6.72h3.35V0h1.674v6.719h3.348v6.719h5.024v3.359h16.744v28.555zm-18.419-1.68V15.117H1.674v28.555h5.024v-6.719h5.023v6.72h5.023zM3.35 16.797h5.023v5.04H3.35v-5.04zm1.674 1.68v1.68h1.675v-1.68H5.023zM3.35 23.516h5.023v5.039H3.35v-5.04zm1.674 1.68v1.68h1.675v-1.68H5.023zM3.35 30.235h5.023v5.039H3.35v-5.04zm1.674 1.68v1.679h1.675v-1.68H5.023zm5.024-15.118h5.023v5.04h-5.023v-5.04zm1.674 1.68v1.68h1.674v-1.68h-1.674zm-1.674 5.039h5.023v5.039h-5.023v-5.04zm1.674 1.68v1.68h1.674v-1.68h-1.674zm-1.674 5.039h5.023v5.039h-5.023v-5.04zm1.674 1.68v1.679h1.674v-1.68h-1.674zm-3.349 6.718v5.04h1.675v-5.04H8.372zM6.698 8.4v5.039h5.023v-5.04H6.698zm26.79 35.273V18.477h-15.07v25.195h5.024v-3.36h5.023v3.36h5.023zM20.093 20.156h5.023v5.04h-5.023v-5.04zm1.674 1.68v1.68h1.675v-1.68h-1.675zm-1.674 5.04h5.023v5.038h-5.023v-5.039zm1.674 1.679v1.68h1.675v-1.68h-1.675zm-1.674 5.039h5.023v5.04h-5.023v-5.04zm1.674 1.68v1.68h1.675v-1.68h-1.675zm5.024-15.118h5.023v5.04h-5.023v-5.04zm1.674 1.68v1.68h1.675v-1.68h-1.675zm-1.674 5.04h5.023v5.038h-5.023v-5.039zm1.674 1.679v1.68h1.675v-1.68h-1.675zm-1.674 5.039h5.023v5.04h-5.023v-5.04zm1.674 1.68v1.68h1.675v-1.68h-1.675zm-3.349 6.719v1.68h1.675v-1.68h-1.675z" fill="#81C780" fill-rule="evenodd"/></svg><svg width="57" height="52" viewBox="-3 -3 57 52" id="L1VzZXJzL2FsZmFtb3RvcnMvUHJvamVjdHMvaXN0LWZyb250ZW5kL3NyYy9tb2R1bGVzL2RpcmVjdGlvbnMvaWNvbnMvc3ByaXRlLWljb24tNS5zdmc=" x="317"><title>Shape</title><path d="M31.814 45.352V23.516H18.419v21.836H0V13.438h5.023v-6.72h3.35V0h1.674v6.719h3.348v6.719h5.024v8.398h13.395v-8.398h5.023v-6.72h3.349V0h1.674v6.719h3.35v6.719h5.023v31.914H31.814zm-15.07-1.68V15.117H1.674v28.555h5.024v-6.719h5.023v6.72h5.023zM3.35 16.797h5.023v5.04H3.35v-5.04zm1.674 1.68v1.68h1.675v-1.68H5.023zM3.35 23.516h5.023v5.039H3.35v-5.04zm1.674 1.68v1.68h1.675v-1.68H5.023zM3.35 30.235h5.023v5.039H3.35v-5.04zm1.674 1.68v1.679h1.675v-1.68H5.023zm5.024-15.118h5.023v5.04h-5.023v-5.04zm1.674 1.68v1.68h1.674v-1.68h-1.674zm-1.674 5.039h5.023v5.039h-5.023v-5.04zm1.674 1.68v1.68h1.674v-1.68h-1.674zm-1.674 5.039h5.023v5.039h-5.023v-5.04zm1.674 1.68v1.679h1.674v-1.68h-1.674zm-3.349 6.718v5.04h1.675v-5.04H8.372zM6.698 8.4v5.039h5.023v-5.04H6.698zm41.86 35.273V15.117h-15.07v28.555h5.024v-6.719h5.023v6.72h5.023zM35.163 16.797h5.023v5.04h-5.023v-5.04zm1.674 1.68v1.68h1.675v-1.68h-1.675zm-1.674 5.039h5.023v5.039h-5.023v-5.04zm1.674 1.68v1.68h1.675v-1.68h-1.675zm-1.674 5.039h5.023v5.039h-5.023v-5.04zm1.674 1.68v1.679h1.675v-1.68h-1.675zm5.023-15.118h5.024v5.04H41.86v-5.04zm1.675 1.68v1.68h1.674v-1.68h-1.674zm-1.675 5.039h5.024v5.039H41.86v-5.04zm1.675 1.68v1.68h1.674v-1.68h-1.674zm-1.675 5.039h5.024v5.039H41.86v-5.04zm1.675 1.68v1.679h1.674v-1.68h-1.674zm-3.349 6.718v5.04h1.674v-5.04h-1.674zM38.512 8.4v5.039h5.023v-5.04h-5.023z" fill="#81C780" fill-rule="evenodd"/></svg><svg width="48" height="47" viewBox="-3 -3 48 47" id="L1VzZXJzL2FsZmFtb3RvcnMvUHJvamVjdHMvaXN0LWZyb250ZW5kL3NyYy9tb2R1bGVzL2RpcmVjdGlvbnMvaWNvbnMvc3ByaXRlLWljb24tNi5zdmc=" x="317" y="104"><title>Shape</title><path d="M41.86 10.078v30.235H0V10.078h3.349V0h5.033l-.01 10.078h1.675V5.04h5.043l-.02 5.04h26.79zM1.674 38.633h38.512V11.758H1.674v26.875zm3.35-23.516h8.371v8.399H5.023v-8.399zm1.674 1.68v5.04h5.023v-5.04H6.698zM5.023 26.875h8.372v8.399H5.023v-8.399zm1.675 1.68v5.039h5.023v-5.04H6.698zm10.046-13.438h8.372v8.399h-8.372v-8.399zm1.675 1.68v5.04h5.023v-5.04h-5.023zm-1.675 10.078h8.372v8.399h-8.372v-8.399zm1.675 1.68v5.039h5.023v-5.04h-5.023zm10.046-13.438h8.372v8.399h-8.372v-8.399zm1.675 1.68v5.04h5.023v-5.04H30.14zM5.023 1.68v8.398h1.675V1.68H5.023zm6.698 5.039v3.36h1.674v-3.36h-1.674zm16.744 20.156h8.372v8.399h-8.372v-8.399zm1.675 1.68v5.039h5.023v-5.04H30.14z" fill="#81C780" fill-rule="evenodd"/></svg><svg width="63" height="33" viewBox="-3 -3 63 33" id="L1VzZXJzL2FsZmFtb3RvcnMvUHJvamVjdHMvaXN0LWZyb250ZW5kL3NyYy9tb2R1bGVzL2RpcmVjdGlvbnMvaWNvbnMvc3ByaXRlLWljb24tNy5zdmc=" y="219"><title>Shape</title><path d="M56.512 0v7.086h-1.766v19.488H0V14.173h17.66V7.086h-1.766V0h40.618zM19.426 8.858H52.98V7.086H19.426v1.772zM17.66 1.772v3.543h37.086V1.772H17.66zm1.766 23.03h12.362V23.03H19.426v1.772zM52.98 10.629H19.426v10.64l12.362-.01v-7.086h8.83v7.086H52.98v-10.63zm0 14.173V23.03H40.618v1.772H52.98zm-14.128 0v-8.858h-5.298v8.858h5.298zm-17.66-12.401h8.83v7.086h-8.83v-7.086zm1.766 1.772v3.543h5.298v-3.543h-5.298zM42.384 12.4h8.83v7.086h-8.83v-7.086zm1.766 1.772v3.543h5.298v-3.543H44.15zM17.66 24.802v-8.844l-15.894-.014v8.858h1.766v-7.086l12.362.014v7.072h1.766zm-3.532-1.772h-8.83v1.772h8.83V23.03zm0-1.771v-1.772h-8.83v1.772h8.83z" fill="#81C780" fill-rule="evenodd"/></svg></svg>